<?xml version="1.0" encoding="utf-8"?>
<!-- Generator: Adobe Illustrator 22.0.1, SVG Export Plug-In . SVG Version: 6.00 Build 0)  -->
<svg version="1.1" id="Layer_1" xmlns="http://www.w3.org/2000/svg" xmlns:xlink="http://www.w3.org/1999/xlink" x="0px" y="0px"
	 viewBox="0 0 512 512" style="enable-background:new 0 0 512 512;" xml:space="preserve">
<style type="text/css">
	.st0{fill:none;}
	.st1{fill:#F15A24;}
	.st2{fill:#F7931E;}
	.st3{fill:#FCEE21;}
</style>
<rect x="96" y="416" class="st0" width="96" height="64"/>
<rect x="64" y="320" class="st0" width="64" height="64"/>
<rect x="160" y="320" class="st0" width="64" height="64"/>
<rect x="160" y="224" class="st0" width="64" height="64"/>
<path class="st0" d="M92.4,34.5c-0.1,0.1-0.2,0.3-0.3,0.4c0.2,0.3,0.3,0.6,0.5,0.9c1.7-0.2,3.5-0.4,5.2-0.5c0.5,0,0.9,0,1.3,0
	c-0.1-0.1-0.2-0.2-0.3-0.3c-0.3-0.4-0.7-0.7-1-1.1C96,34.6,94.1,34.9,92.4,34.5z"/>
<path class="st0" d="M81.5,90.4c0.8,0.7,1.4,1.7,1.7,2.8c0.9,0.1,1.8,0.4,2.6,1c-1.2-4-2.4-8-3.6-12c-0.5,0.3-1,0.5-1.5,0.8
	C83.3,84.6,83.5,88.2,81.5,90.4z"/>
<path class="st0" d="M109.9,32c1.6,1.5,3.1,3.1,4.3,5.1c1.7,2.9,0.1,6.3-3,7.3c-4,1.3-7.6,0.8-11.8,0.8c-3.5,0-6.9,0.7-10.3,0.9
	c-1.9,0.1-3.9,0.2-5.9,0.2c-0.3,0.5-0.8,1-1.3,1.4c0.4,1.1,0.7,2.3,1.1,3.4c6.9,2,13.6,4.3,19.5,8c4.5,2.8,2.3,8.8-2.5,9.3
	c-0.8,0.1-1.5,0.1-2.3,0.2c-0.5,1.9-1.5,3.7-3.3,5.3c-1,0.9-2.2,1.7-3.5,2.4c2,6.6,3.9,13.1,5.8,19.7H128V32H109.9z"/>
<path class="st0" d="M105.6,128c2.3,8.7,4.5,17.4,6.7,26.2c1.6,6.3-8.1,8.9-9.6,2.7c-2.1-8.3-4.2-16.6-6.4-24.9
	c-1.1,1.3-2,2.7-3,4.1c-3.5,5.2-11.8,0.6-8.8-4.7c-0.3,0-0.6-0.1-0.9-0.1c-3.3-0.7-6-2.7-9.5-2.2c-0.6,0.1-1.2,0-1.7-0.2
	c-0.8,1.1-2,2-3.3,2.4c1.5,0.5,2.9,0.9,4,1.4c3.8,1.7,2.9,8.5-1.2,9.1c-1.3,0.2-2.7,0.4-4,0.5c0.2,2.3-1,4.4-3.1,5.2
	c-0.1,0.7-0.3,1.4-0.7,2.1c9.7,0.4,19.4,1.4,28.8,4.1c1.2,0.3,2.1,1,2.7,1.8c0.2,0,0.3,0,0.5,0c6.4-0.1,6.4,9.9,0,10
	c-10.7,0.2-21.3,0.7-32,1.3V192h64v-64H105.6z"/>
<rect x="64" y="224" class="st0" width="64" height="64"/>
<rect x="160" y="128" class="st0" width="64" height="64"/>
<rect x="384" y="320" class="st0" width="64" height="64"/>
<rect x="384" y="224" class="st0" width="64" height="64"/>
<rect x="288" y="224" class="st0" width="64" height="64"/>
<path class="st0" d="M216.9,51.8c-3.1-2.8-7.2-5.7-9-9.5c-0.5-1.1-0.7-2.2-0.5-3.3c-0.2-0.2-0.4-0.3-0.5-0.5
	c-0.3-0.3-0.5-0.7-0.7-1.1c-3.2-0.8-6.5-1.8-9.7-2.7c-0.3,1.5-0.6,3-1.1,4.5c-1.6,5.4-10,4.4-9.8-1.3c0-1.9,0-3.9,0.1-5.8H160v64h64
	V58.3C221.6,56.1,219.2,54,216.9,51.8z"/>
<rect x="320" y="416" class="st0" width="96" height="64"/>
<rect x="288" y="320" class="st0" width="64" height="64"/>
<path d="M480,480V192H256V86.1c-0.8-0.7-1.7-1.4-2.6-2.1c-8.4-7-16.6-14.2-24.8-21.5c-1.5-1.4-3.1-2.8-4.6-4.2V96h-64V32h25.6
	c0.1-2.2,0.2-4.5,0.7-6.7h-82.6c0,0.2,0,0.3,0.1,0.5c1.1,1.1,2.2,2.2,3.3,3.4c1,1,2,1.9,2.9,2.8h18v64H96.8c3.1,10.6,6,21.3,8.9,32
	H128v64H64v-25.2c-10.7,0.6-21.3,1.4-32,2.3V480H0v32h512v-32H480z M64,224h64v64H64V224z M64,320h64v64H64V320z M192,480H96v-64h96
	V480z M224,384h-64v-64h64V384z M224,288h-64v-64h64V288z M224,192h-64v-64h64V192z M288,224h64v64h-64V224z M288,320h64v64h-64V320
	z M416,480h-96v-64h96V480z M448,384h-64v-64h64V384z M448,288h-64v-64h64V288z"/>
<g>
	<title>Fichier 3</title>
	<g id="Calque_2_2_">
		<g id="OBJECTS_1_">
			<path class="st1" d="M181.5,33.9c0,0,18.3,29.2-16.3,69.3c0,0-15.8,14.7-8.6,47.5c0,0-12.2-12.4-8.6-33c0,0-25.6,70.8,54.3,73.4
				c0,0,75.7-22.3,27.9-90.2c0,0,4.2,27.8-5.1,33.8c0,0-15.7-6.1-10.9-36.7c0,0,8.6-24.5-7-41.7c0,0,0,19.9-10.3,24.5
				C196.9,80.9,208.6,46.8,181.5,33.9z"/>
			<path class="st2" d="M216,185.2c8.3-7.8,13.7-21.3-0.8-41.9c0,0,2.4,15.8-2.9,19.3c0,0-9-3.5-6.2-20.9c0,0,4.9-14.1-4.1-23.8
				c0,0,0,11.4-5.9,14.1c0,0,6.7-19.5-8.8-26.9c0,0,10.4,16.7-9.3,39.6c0,0-9.1,8.5-4.9,27.1c0,0-7-7.1-4.9-18.9
				c0,0-7.3,20.3,4.6,32.7c7.8,3.1,17.5,5.1,29.7,5.5C207.2,189.6,211.7,187.6,216,185.2z"/>
			<path class="st3" d="M211.2,187.6c3.1-5.1,3.8-12.4-3.4-22.6c0,0,1.6,10-1.8,12.2c0,0-5.7-2.1-3.9-13.2c0,0,3.1-8.8-2.6-15.1
				c0,0,0,7.2-3.6,8.8c0,0,4.2-12.3-5.5-16.9c0,0,6.5,10.5-5.9,24.9c0,0-5.7,5.2-3.1,17c0,0-4.4-4.5-3.1-11.8c0,0-3.3,9.1,0.2,16.6
				c7.8,2.2,15.8,3.4,24,3.6C205.4,190.2,208.3,189,211.2,187.6z"/>
		</g>
	</g>
</g>
<g>
	<title>Fichier 4</title>
	<g id="Calque_2_3_">
		<g id="OBJECTS_2_">
			<path class="st1" d="M160.8,189.5c0.7,8.1-5.4,18.6-11.3,26.7c-1.2-21.8,7.3-59.2-31.4-84.2c0,0,18.7,30.5-12.1,51
				c-9.9,6.6-18.2,14.4-24.6,23.1c-2.9-8.9-11.6-19.4-32.6-29.4c0,0,21.8,30.1,1.7,47.7c0,0,8.1-18.3-13.7-28.1
				c0,0,8.8,11.6-2.8,31.5c0,0-28.1,46.7,63.6,65.3C192.5,271,160.8,189.5,160.8,189.5z"/>
			<path class="st1" d="M160.8,189.5c0.7,8.1-5.4,18.6-11.3,26.7c-1.2-21.8,7.3-59.2-31.4-84.2c0,0,18.7,30.5-12.1,51
				c-9.9,6.6-18.2,14.4-24.6,23.1c-2.9-8.9-11.6-19.4-32.6-29.4c0,0,21.8,30.1,1.7,47.7c0,0,8.1-18.3-13.7-28.1
				c0,0,8.8,11.6-2.8,31.5c0,0-28.1,46.7,63.6,65.3C192.5,271,160.8,189.5,160.8,189.5z"/>
			<path class="st2" d="M129.2,249.5c-0.7-13.4,4.3-36.2-19.2-51.6c0,0,11.6,18.6-7.5,31.3c-6.1,4.1-11.1,8.8-15.1,14.1
				c-1.7-5.5-7.1-11.9-19.9-18c0,0,13.5,18.5,1,29.2c0,0,5-11.3-8.5-17.3c0,0,5.4,7.1-1.7,19.3c0,0-8.5,14.3,6.1,26.6
				c10.6,4.3,21.7,7.6,33.3,9.8c9.4-2.1,18.4-5.2,26.7-9.1c20.8-19.3,11.8-50.8,11.8-50.8C136.5,238.1,132.9,244.6,129.2,249.5z"/>
			<path class="st3" d="M117.1,270.7c-0.5-8.4,2.8-22.7-12-32.3c0,0,7.3,11.6-4.7,19.6c-3.8,2.5-6.9,5.5-9.4,8.8
				c-1-3.5-4.5-7.4-12.5-11.3c0,0,8.3,11.5,0.7,18.3c0,0,3.1-7-5.2-10.8c0,0,3.5,4.5-1,12c-1.9,3.5-2.1,7.4-0.5,11
				c8.1,2.8,16.6,5,25.3,6.7c7.3-1.7,14.4-3.8,21.2-6.6c6.8-11.6,2.8-25.9,2.8-25.9C121.6,263.6,119.4,267.6,117.1,270.7z"/>
		</g>
	</g>
</g>
</svg>
