<?xml version="1.0" encoding="utf-8"?>
<!-- Generator: Adobe Illustrator 22.0.1, SVG Export Plug-In . SVG Version: 6.00 Build 0)  -->
<svg version="1.1" id="Layer_1" xmlns="http://www.w3.org/2000/svg" xmlns:xlink="http://www.w3.org/1999/xlink" x="0px" y="0px"
	 viewBox="0 0 512 512" style="enable-background:new 0 0 512 512;" xml:space="preserve">
<style type="text/css">
	.st0{fill:none;}
</style>
<path class="st0" d="M113.5,449.7c1.6,0.8,2.8,2.3,3.7,0.5c0.9-1.8-0.7-3-2.1-4.2c-2.9-2.7-6.3-5.2-9.9-7.5c-0.5,1.7-2,3-4.1,2.3
	c-1.4-0.4-2.7-0.8-4.1-1.3c-0.3,0.2-0.6,0.4-1,0.6v0.7c2,1.1,4.1,2.2,6.1,3.3C105.9,446,109.7,447.8,113.5,449.7z"/>
<path class="st0" d="M138.1,416c7.2,10.3,14.4,20.6,21.6,30.9c2.6,3.7-3.5,7.2-6,3.5c-8-11.5-15.9-23-24-34.4h0
	c-0.5,2.1-2.8,3.9-5.1,2.4c-0.9-0.6-1.6-1.2-2.3-1.8c-0.2,0.5-0.4,0.9-0.8,1.2c1.3,1.5,1.4,3.9-0.4,5.1c1.9,3.1,2.9,6.5,2,10.1
	c-0.6,2.1-3.2,3.3-5.1,2.1c-1.2-0.7-2.3-1.5-3.4-2.3c-1,0.5-2.2,0.5-3.3,0c-3.1-1.5-5.7-4-8.2-6.5c-1.5,0.2-2.9,0.5-4.4,0.7
	c5.7,2.7,10.9,6.3,16.2,10c4.6,3.3,10.9,7.7,10.2,14.1c-0.8,6.9-7,8.6-12.5,6c-5.5-2.7-11-5.4-16.5-8.3V480h96v-64H138.1z"/>
<path class="st0" d="M75.4,324.6c-0.8,3.8-2.8,7-5.3,9.9c0.4,1.1,0.6,2.3,0.8,3.5c1.5-1.2,2.8-2.4,3.8-3.2c1.8-1.5,3.6-3.1,5.3-4.7
	c-0.8-0.2-1.6-0.7-2-1.6c-0.8-1.9-1.6-3.7-2.3-5.6c-0.1,0.3-0.2,0.5-0.2,0.8C75.5,323.9,75.5,324.2,75.4,324.6z"/>
<path class="st0" d="M86.5,333.5c-3.7,3.7-7.7,7.2-12,10.2c-1,0.7-2.2,1.6-3.5,2.3c-0.3,2.9-0.7,5.6-1.2,7.8
	c1.2-0.4,2.4-0.8,3.7-1.2c1.6-0.5,3.1,0.4,3.9,1.7c1.8-0.1,3.6-0.3,5.4-0.7c3.8-0.9,6.2,4.4,2.7,6.4c-2.2,1.3-4.4,2.5-6.7,3.6
	c3.3,3.5,6.9,6.7,10.5,9.9c-0.5-2.6,2.8-5.4,5.2-3.6c4.5,3.3,8.3,7.3,11.7,11.6c-1.7-3.5-3-7.1-3.8-11c-0.9-4.4,5.8-6.3,6.7-1.9
	c1.2,5.5,3.4,10.5,6.3,15.3H128v-64h-13.3c2.7,3.8,5.4,7.5,8,11.2c2.6,3.7-3.4,7.2-6,3.5c-2.8-3.9-5.5-7.7-8.3-11.6
	c-0.7,1.4-2.2,2.5-4,1.9c-1.2-0.4-2.1-1-3-1.6c-1.1,1-2.6,1.3-3.9,0.7c-0.8,1.3-1.7,2.5-2.7,3.7c-1.9,2.4-6,0.3-6-2.5
	c0-0.6,0-1.3,0.1-2c-0.2,0-0.5,0.1-0.7,0.1c0,0.3,0,0.7,0,1c0,2.2-1.6,3.3-3.3,3.4C87.1,328.4,88.6,331.3,86.5,333.5z"/>
<path class="st0" d="M67.6,322.9c0.1-0.5,0.1-0.9,0.2-1.4c-0.2-0.2-0.3-0.4-0.5-0.6c-0.2,0.5-0.4,1-0.6,1.5
	c-0.1,0.6-0.2,1.2-0.4,1.8C66.8,323.7,67.2,323.3,67.6,322.9z"/>
<path class="st0" d="M70.5,375.5c1.1,0.6,2.2,1.3,3.2,2.1c0.6,0,1.2,0.1,1.8,0.1c2.3-0.6,4.6-0.8,6.9-1c-3.5-3.2-6.9-6.4-10.1-9.9
	c-0.7,0.3-1.4,0.7-2.1,1C72.2,370.7,72,373.3,70.5,375.5z"/>
<path class="st0" d="M187.6,320c-0.1,2.7-0.1,5.3-0.1,8c0,3.1-3.3,4.1-5.3,2.9c0.5,7.7,0.8,15.4,1,23.1c0.1,4.5-6.9,4.5-7,0
	c-0.2-9.5-0.7-18.9-1.4-28.3c-2,1-5-0.1-5.3-3c-0.1-0.9-0.1-1.8-0.2-2.7H160v64h64v-64H187.6z"/>
<path class="st0" d="M169.4,276.5c-2.2-15.3-4.8-30.5-7.7-45.6c-0.3-1.5-0.6-3-0.9-4.4c-0.3-0.2-0.6-0.4-0.8-0.6V288h9
	C169.1,284.2,169.3,280.3,169.4,276.5z"/>
<path class="st0" d="M180,237.4c-0.6,0-1.1-0.1-1.6-0.3c0.4,1.3,0.8,2.6,1.1,4C179.7,239.8,179.8,238.6,180,237.4z"/>
<path class="st0" d="M174.2,258.3c-0.2-4.4-0.3-8.8-1.1-13.1c-0.7-3.9-2.1-7.7-2.9-11.6c-0.1-0.5-0.2-1-0.2-1.5
	c-0.3,0-0.5,0.1-0.8,0c1.8,9.6,3.5,19.2,5.1,28.8C174.3,260,174.3,259.1,174.2,258.3z"/>
<path class="st0" d="M193.7,224c-1.1,21.4-3.2,42.7-4.6,64H224v-64H193.7z"/>
<path class="st0" d="M81.5,90.4c0.8,0.7,1.4,1.7,1.7,2.8c0.9,0.1,1.8,0.4,2.6,1c-1.2-4-2.4-8-3.6-12c-0.5,0.3-1,0.5-1.5,0.8
	C83.3,84.6,83.5,88.2,81.5,90.4z"/>
<path class="st0" d="M97.5,92.2c0.8-0.3,1.7-0.5,2.6-0.8c2.6-1.4,5.2-2.7,7.5-3.8c2.9-1.4,6.1-2.8,9.4-4.1c0.3-1.8,1-3.5,1.8-5.1
	c-1.9-0.1-3.7-0.2-5.6-0.6c-4.1-0.8-4.7-6.6-1.6-8.9c-0.3,0-0.6-0.1-0.9-0.1c-2.2-0.4-3.4-2.3-3.5-4.3c-0.1,0-0.2,0-0.2,0
	c-0.7,0.1-1.4,0.1-2.2,0.2c-0.6,1.9-2.3,3.6-4.7,3.8c-0.8,0.1-1.5,0.1-2.3,0.2c-0.5,1.9-1.5,3.7-3.3,5.3c-1,0.9-2.2,1.7-3.5,2.4
	c1.7,5.5,3.3,11,4.9,16.4C96.4,92.5,97,92.4,97.5,92.2z"/>
<path class="st0" d="M75.2,135.5c2.9-1,5.9-2,8.8-3c0.1-0.4,0.2-0.7,0.4-1.1c-0.3,0-0.6-0.1-0.9-0.1c-0.7-0.1-1.3-0.3-2-0.6
	c-2.6,0.8-5.3,1.6-7.9,2.4C74.5,133.6,75,134.5,75.2,135.5z"/>
<path class="st0" d="M112.6,153.2c0.1-0.2,0.1-0.4,0.2-0.7c0.7-1.7,2-3.1,3.6-4.2c-0.3-3.6-0.3-7.5,1.6-10.5
	c0.7-1.2,1.9-1.7,3.2-1.7c-2.1-1.2-4.1-2.4-6.1-3.6c-2.5,0.8-5.1,1.7-7.6,2.5c1.6,6.1,3.1,12.1,4.7,18.2
	C112.3,153.3,112.4,153.3,112.6,153.2z"/>
<path class="st0" d="M95.5,155.5c0.2,0,0.3,0,0.5,0c6.4-0.1,6.4,9.9,0,10c-5.4,0.1-10.7,0.3-16,0.5c-0.5,1.2-1.5,2.3-3.1,2.8
	c-4.1,1.2-8.2,2.7-12.2,4.4c0.3,0.6,0.5,1.2,0.5,1.9c0.2,0.5,0.2,1.2,0,1.8c-0.2,0.6-0.4,1.2-0.6,1.8c0,0.2,0,0.3,0,0.5
	c0.3-0.1,0.6-0.1,0.9-0.1c0.2,0,0.3,0,0.5,0c1.9-0.4,3.8-0.7,5.6-1.2c4.4-0.9,6.3,5.7,1.9,6.7c-2,0.4-3.9,1-5.8,1.3
	c-0.6,1.2-1.3,2.4-1.7,3.7c2.3-0.4,4.6-0.6,6.9-0.1c1.9,0.4,3.6,1.1,5.3,1.9c0.4,0.1,0.8,0.2,1.2,0.3c0.1-0.2,0.1-0.5,0.2-0.7
	c0.5-1.6,1.8-2.4,3.1-2.5c0.4-1.1,0.8-2.1,1.2-3.2c1.7-4.2,7.4-2.6,6.8,1.9c-0.2,1.2-0.4,2.5-0.5,3.7c0.6-0.8,1.6-1.3,2.6-1.3
	c0.3-1,0.7-1.9,1-2.9c0-0.1,0-0.3,0-0.4c0.1-0.9,0.4-1.6,0.8-2.1c0.6-1.8,1.3-3.7,2-5.5c1.4-3.8,6.3-2.8,6.8,0.6
	c0.4-1.1,0.8-2.2,1.2-3.3c0.3-0.9,0.9-1.5,1.5-1.9c0.3-0.8,0.5-1.6,0.8-2.4c1.6-4.2,7.8-2.6,6.8,1.9c-0.8,3.6-1.6,7.3-2.3,10.9
	c0.4,0.4,0.6,0.9,0.7,1.4c0.5-0.3,1.1-0.4,1.7-0.3c0.7-1.5,1.7-2.9,2.9-4.1c0.1-0.4,0.2-0.8,0.4-1.3c0.9-2.8,3.6-7.1,6.7-10.1
	c-0.4-0.7-0.7-1.5-1.1-2.2c-1.7,0.9-3.4,1.8-5.3,2.4c-1.7,0.6-3.9-0.7-4.3-2.4c-0.4-2.2-0.4-4.2,0-6.2c-1.5-0.1-2.9-0.1-4.3-0.2
	c-1.2-0.1-2.1-0.6-2.7-1.3c-1.4-0.4-2.5-1.5-3-3.3c-1.5-6.2-3.1-12.3-4.7-18.4c-0.5,0.2-1,0.4-1.6,0.5c-1.7,0.9-3.4,1.9-5.1,2.8
	c-5.1,2.9-10.3,5.8-15.4,8.8c5.7,0.6,11.3,1.6,16.9,3.2C94.1,154,94.9,154.7,95.5,155.5z"/>
<path class="st0" d="M116.7,252.1c-2.6,3.6-8.7,0.1-6-3.5c2.1-2.9,4.2-5.8,6.4-8.6c-13.4,7.9-26.8,15.8-40.2,23.6
	c0.8,1.3,1.5,2.5,2.3,3.8c1.2,0.8,2.3,1.5,3.6,2.2c1.1,0.6,1.6,1.6,1.7,2.6c0.4,1,0.3,2.2-0.2,3.2c0.7,1,1.3,2,2,3.1
	c10.5-0.8,21-2,31.5-3.6c4.4-0.7,6.3,6.1,1.9,6.7c-9.6,1.5-19.3,2.6-29,3.4c0.6,1,1.3,1.9,1.9,2.9H128v-50.7
	C124.1,242.1,120.3,247.1,116.7,252.1z"/>
<path class="st0" d="M73.3,257.6c16.6-9.7,33.1-19.5,49.7-29.2c-0.7-0.1-1.4-0.4-2-0.9c-0.9,0.6-1.7,1.3-2.6,1.9
	c-2.2,1.5-4.2,0.1-4.9-1.9c-1.5,1-2.9,2-4.4,3c0,0.1-0.1,0.3-0.1,0.4c-0.5,1.8-2.3,2.6-3.9,2.4c-10.9,7.5-21.9,15.1-32.8,22.6
	C72.6,256.5,72.9,257,73.3,257.6z"/>
<path class="st0" d="M93.4,231.1c-3,1.3-6,2.5-9,3.8c-0.1,0.3-0.2,0.7-0.4,1c-0.7,1.8-2.7,2.6-4.4,2.3c-0.5,1.8-1,3.6-1.7,5.3
	c5.5-3.8,10.9-7.5,16.4-11.3C93.9,232,93.6,231.6,93.4,231.1z"/>
<path class="st0" d="M177.8,135c2.1,0.6,4.2,1.3,6.4,1.9c-0.1-0.4-0.1-0.8,0-1.2C182,135.5,179.9,135.3,177.8,135z"/>
<path class="st0" d="M220.3,140.6c-1.2-0.5-2-1.9-2-3.3c-1.5,0-3-0.1-4.4-0.1c-0.5,0.5-0.9,1.1-1.3,1.6c2.7,1.3,5.5,2.4,8.4,3.4
	c-0.1-0.2-0.2-0.4-0.3-0.6C220.5,141.3,220.4,141,220.3,140.6z"/>
<path class="st0" d="M201.8,141c-0.2-0.1-0.4-0.2-0.6-0.4c-1.5-1-1.8-2.5-1.5-3.9c-1.5-0.1-2.9-0.1-4.4-0.2
	c-1.8,0.7-3.6,1.4-5.3,2.1c3.7,1.1,7.3,2.2,11,3.3C201.3,141.7,201.6,141.4,201.8,141z"/>
<path class="st0" d="M184.3,162.3c-3.4-1.1-6.8-2.3-10.1-3.4c-2.6,2.8-5.3,5.5-8.1,8.1c0.8-0.3,1.6-0.6,2.4-0.8
	c1.7-0.3,4,0.5,4.3,2.4c0.5,3-0.1,5.7-1.3,8.2C175.7,172.1,180,167.2,184.3,162.3z"/>
<path class="st0" d="M174.7,141.4c-0.4,1.3-0.8,2.7-1.4,4c1.3,1.8,0.1,4.4-1.8,5.2c0.2,0.1,0.4,0.1,0.5,0.2c1.8-2,3.7-3.9,5.5-5.9
	c3.1-3.3,8,1.7,4.9,4.9c-1,1.1-2.1,2.3-3.2,3.5c3.3,1.1,6.6,2.2,9.9,3.3c0.2-0.2,0.4-0.5,0.6-0.7c2.2-2.7,4.4-5.3,6.6-8.1
	C189.2,145.7,181.9,143.5,174.7,141.4z"/>
<path class="st0" d="M200.4,154c2.2-1,4.4-2,6.5-2.9c-1.1-0.3-2.2-0.7-3.3-1C202.5,151.4,201.4,152.7,200.4,154z"/>
<path class="st0" d="M217.8,154.5c-3.2,2.2-6.4,4.5-9.5,6.7c-12.1,8.6-24.3,17.1-36.5,25.7c-1,1.1-2,2.2-2.9,3.3
	c-0.6,0.6-1.1,1.2-1.7,1.9h1c5.9-2.5,11.9-5,17.8-7.6c0.2-0.1,0.4-0.2,0.6-0.4c0.7-0.5,1.5-0.9,2.2-1.4c0.9-0.6,1.7-0.7,2.4-0.5
	c3-1.3,5.9-2.5,8.9-3.8c2.9-1.2,5.5,1.4,5.3,3.7c3.8-2.4,7.3,3.7,3.5,6.1c-2.2,1.4-4.4,2.7-6.6,4H224v-35.6
	C221.9,155.8,219.9,155.1,217.8,154.5z"/>
<path class="st0" d="M195,129.3c1.1-0.4,2.2-0.9,3.3-1.3h-18.4C184.9,128.6,189.9,129,195,129.3z"/>
<rect x="384" y="320" class="st0" width="64" height="64"/>
<rect x="384" y="224" class="st0" width="64" height="64"/>
<rect x="288" y="224" class="st0" width="64" height="64"/>
<path class="st0" d="M173.8,87.6c2.7-1.3,5.5-2.6,8.2-4c-2.1,0-4.2,0-6.3-0.1C175.2,85,174.6,86.3,173.8,87.6z"/>
<path class="st0" d="M162,84c-0.2,0.3-0.5,0.5-0.7,0.7c0.6,0.2,1.2,0.2,1.7,0c0.6-0.2,1.2-0.9,1.8-1.7c-0.4,0-0.9,0-1.3-0.1
	c-0.2,0-0.5-0.1-0.7-0.1C162.6,83.3,162.4,83.7,162,84z"/>
<path class="st0" d="M171.5,55.8c-3.4,1.8-6.9,3.2-10.5,4.3c0,0.1,0.1,0.1,0.1,0.2c1,0.7,1.9,1.5,2.9,2.3c2.4-0.2,4.2,1.3,4.9,3.1
	c0.3,0.1,0.6,0.3,0.9,0.4c2.3,0.2,4.5,0.5,6.7,1c0.7,0,1.5-0.1,2.2-0.1c5.1-1.8,9.5-5.4,14.7-7c9.5-3,19.3-2.9,29.1-2.9
	c-1.9-1.7-3.8-3.5-5.7-5.2c-3.1-2.8-7.2-5.7-9-9.5c-0.5-1.1-0.7-2.2-0.5-3.3c-0.2-0.2-0.4-0.3-0.5-0.5c-0.3-0.3-0.5-0.7-0.7-1.1
	c-3.2-0.8-6.5-1.8-9.7-2.7c-0.3,1.5-0.6,3-1.1,4.5c-1.2,3.9-6,4.4-8.4,2.2c-7.4,1.5-14.8,2.7-22.2,3.8c-0.1,0.1-0.2,0.2-0.3,0.3
	c2,0.3,4,0.7,6,1.3C174.4,47.8,175.4,53.8,171.5,55.8z"/>
<rect x="320" y="416" class="st0" width="96" height="64"/>
<rect x="288" y="320" class="st0" width="64" height="64"/>
<path class="st0" d="M75.4,324.6c-0.8,3.8-2.8,7-5.3,9.9c0.4,1.1,0.6,2.3,0.8,3.5c1.5-1.2,2.8-2.4,3.8-3.2c1.8-1.5,3.6-3.1,5.3-4.7
	c-0.8-0.2-1.6-0.7-2-1.6c-0.8-1.9-1.6-3.7-2.3-5.6c-0.1,0.3-0.2,0.5-0.2,0.8C75.5,323.9,75.5,324.2,75.4,324.6z"/>
<path class="st0" d="M86.5,333.5c-3.7,3.7-7.7,7.2-12,10.2c-1,0.7-2.2,1.6-3.5,2.3c-0.3,2.9-0.7,5.6-1.2,7.8
	c1.2-0.4,2.4-0.8,3.7-1.2c1.6-0.5,3.1,0.4,3.9,1.7c1.8-0.1,3.6-0.3,5.4-0.7c3.8-0.9,6.2,4.4,2.7,6.4c-2.2,1.3-4.4,2.5-6.7,3.6
	c3.3,3.5,6.9,6.7,10.5,9.9c-0.5-2.6,2.8-5.4,5.2-3.6c4.5,3.3,8.3,7.3,11.7,11.6c-1.7-3.5-3-7.1-3.8-11c-0.9-4.4,5.8-6.3,6.7-1.9
	c1.2,5.5,3.4,10.5,6.3,15.3H128v-64h-13.3c2.7,3.8,5.4,7.5,8,11.2c2.6,3.7-3.4,7.2-6,3.5c-2.8-3.9-5.5-7.7-8.3-11.6
	c-0.7,1.4-2.2,2.5-4,1.9c-1.2-0.4-2.1-1-3-1.6c-1.1,1-2.6,1.3-3.9,0.7c-0.8,1.3-1.7,2.5-2.7,3.7c-1.9,2.4-6,0.3-6-2.5
	c0-0.6,0-1.3,0.1-2c-0.2,0-0.5,0.1-0.7,0.1c0,0.3,0,0.7,0,1c0,2.2-1.6,3.3-3.3,3.4C87.1,328.4,88.6,331.3,86.5,333.5z"/>
<path class="st0" d="M67.6,322.9c0.1-0.5,0.1-0.9,0.2-1.4c-0.2-0.2-0.3-0.4-0.5-0.6c-0.2,0.5-0.4,1-0.6,1.5
	c-0.1,0.6-0.2,1.2-0.4,1.8C66.8,323.7,67.2,323.3,67.6,322.9z"/>
<path class="st0" d="M70.5,375.5c1.1,0.6,2.2,1.3,3.2,2.1c0.6,0,1.2,0.1,1.8,0.1c2.3-0.6,4.6-0.8,6.9-1c-3.5-3.2-6.9-6.4-10.1-9.9
	c-0.7,0.3-1.4,0.7-2.1,1C72.2,370.7,72,373.3,70.5,375.5z"/>
<path class="st0" d="M113.5,449.7c1.6,0.8,2.8,2.3,3.7,0.5c0.9-1.8-0.7-3-2.1-4.2c-2.9-2.7-6.3-5.2-9.9-7.5c-0.5,1.7-2,3-4.1,2.3
	c-1.4-0.4-2.7-0.8-4.1-1.3c-0.3,0.2-0.6,0.4-1,0.6v0.7c2,1.1,4.1,2.2,6.1,3.3C105.9,446,109.7,447.8,113.5,449.7z"/>
<path class="st0" d="M138.1,416c7.2,10.3,14.4,20.6,21.6,30.9c2.6,3.7-3.5,7.2-6,3.5c-8-11.5-15.9-23-24-34.4h0
	c-0.5,2.1-2.8,3.9-5.1,2.4c-0.9-0.6-1.6-1.2-2.3-1.8c-0.2,0.5-0.4,0.9-0.8,1.2c1.3,1.5,1.4,3.9-0.4,5.1c1.9,3.1,2.9,6.5,2,10.1
	c-0.6,2.1-3.2,3.3-5.1,2.1c-1.2-0.7-2.3-1.5-3.4-2.3c-1,0.5-2.2,0.5-3.3,0c-3.1-1.5-5.7-4-8.2-6.5c-1.5,0.2-2.9,0.5-4.4,0.7
	c5.7,2.7,10.9,6.3,16.2,10c4.6,3.3,10.9,7.7,10.2,14.1c-0.8,6.9-7,8.6-12.5,6c-5.5-2.7-11-5.4-16.5-8.3V480h96v-64H138.1z"/>
<path class="st0" d="M187.6,320c-0.1,2.7-0.1,5.3-0.1,8c0,3.1-3.3,4.1-5.3,2.9c0.5,7.7,0.8,15.4,1,23.1c0.1,4.5-6.9,4.5-7,0
	c-0.2-9.5-0.7-18.9-1.4-28.3c-2,1-5-0.1-5.3-3c-0.1-0.9-0.1-1.8-0.2-2.7H160v64h64v-64H187.6z"/>
<path class="st0" d="M184.1,135.7c-2.1-0.2-4.2-0.4-6.3-0.7c2.1,0.6,4.2,1.3,6.4,1.9C184.1,136.5,184.1,136.1,184.1,135.7z"/>
<path class="st0" d="M220.3,140.6c-1.2-0.5-2-1.9-2-3.3c-1.5,0-3-0.1-4.4-0.1c-0.5,0.5-0.9,1.1-1.3,1.6c2.7,1.3,5.5,2.4,8.4,3.4
	c-0.1-0.2-0.2-0.4-0.3-0.6C220.5,141.3,220.4,141,220.3,140.6z"/>
<path class="st0" d="M184.3,162.3c-3.4-1.1-6.8-2.3-10.1-3.4c-2.6,2.8-5.3,5.5-8.1,8.1c0.8-0.3,1.6-0.6,2.4-0.8
	c1.7-0.3,4,0.5,4.3,2.4c0.5,3-0.1,5.7-1.3,8.2C175.7,172.1,180,167.2,184.3,162.3z"/>
<path class="st0" d="M174.7,141.4c-0.4,1.3-0.8,2.7-1.4,4c1.3,1.8,0.1,4.4-1.8,5.2c0.2,0.1,0.4,0.1,0.5,0.2c1.8-2,3.7-3.9,5.5-5.9
	c3.1-3.3,8,1.7,4.9,4.9c-1,1.1-2.1,2.3-3.2,3.5c3.3,1.1,6.6,2.2,9.9,3.3c0.2-0.2,0.4-0.5,0.6-0.7c2.2-2.7,4.4-5.3,6.6-8.1
	C189.2,145.7,181.9,143.5,174.7,141.4z"/>
<path class="st0" d="M200.4,154c2.2-1,4.4-2,6.5-2.9c-1.1-0.3-2.2-0.7-3.3-1C202.5,151.4,201.4,152.7,200.4,154z"/>
<path class="st0" d="M217.8,154.5c-3.2,2.2-6.4,4.5-9.5,6.7c-12.1,8.6-24.3,17.1-36.5,25.7c-1,1.1-2,2.2-2.9,3.3
	c-0.6,0.6-1.1,1.2-1.7,1.9h1c5.9-2.5,11.9-5,17.8-7.6c0.2-0.1,0.4-0.2,0.6-0.4c0.7-0.5,1.5-0.9,2.2-1.4c0.9-0.6,1.7-0.7,2.4-0.5
	c3-1.3,5.9-2.5,8.9-3.8c2.9-1.2,5.5,1.4,5.3,3.7c3.8-2.4,7.3,3.7,3.5,6.1c-2.2,1.4-4.4,2.7-6.6,4H224v-35.6
	C221.9,155.8,219.9,155.1,217.8,154.5z"/>
<path class="st0" d="M201.8,141c-0.2-0.1-0.4-0.2-0.6-0.4c-1.5-1-1.8-2.5-1.5-3.9c-1.5-0.1-2.9-0.1-4.4-0.2
	c-1.8,0.7-3.6,1.4-5.3,2.1c3.7,1.1,7.3,2.2,11,3.3C201.3,141.7,201.6,141.4,201.8,141z"/>
<path class="st0" d="M93.4,231.1c-3,1.3-6,2.5-9,3.8c-0.1,0.3-0.2,0.7-0.4,1c-0.7,1.8-2.7,2.6-4.4,2.3c-0.5,1.8-1,3.6-1.7,5.3
	c5.5-3.8,10.9-7.5,16.4-11.3C93.9,232,93.6,231.6,93.4,231.1z"/>
<path class="st0" d="M73.3,257.6c16.6-9.7,33.1-19.5,49.7-29.2c-0.7-0.1-1.4-0.4-2-0.9c-0.9,0.6-1.7,1.3-2.6,1.9
	c-2.2,1.5-4.2,0.1-4.9-1.9c-1.5,1-2.9,2-4.4,3c0,0.1-0.1,0.3-0.1,0.4c-0.5,1.8-2.3,2.6-3.9,2.4c-10.9,7.5-21.9,15.1-32.8,22.6
	C72.6,256.5,72.9,257,73.3,257.6z"/>
<path class="st0" d="M116.7,252.1c-2.6,3.6-8.7,0.1-6-3.5c2.1-2.9,4.2-5.8,6.4-8.6c-13.4,7.9-26.8,15.8-40.2,23.6
	c0.8,1.3,1.5,2.5,2.3,3.8c1.2,0.8,2.3,1.5,3.6,2.2c1.1,0.6,1.6,1.6,1.7,2.6c0.4,1,0.3,2.2-0.2,3.2c0.7,1,1.3,2,2,3.1
	c10.5-0.8,21-2,31.5-3.6c4.4-0.7,6.3,6.1,1.9,6.7c-9.6,1.5-19.3,2.6-29,3.4c0.6,1,1.3,1.9,1.9,2.9H128v-50.7
	C124.1,242.1,120.3,247.1,116.7,252.1z"/>
<path class="st0" d="M180,237.4c-0.6,0-1.1-0.1-1.6-0.3c0.4,1.3,0.8,2.6,1.1,4C179.7,239.8,179.8,238.6,180,237.4z"/>
<path class="st0" d="M174.2,258.3c-0.2-4.4-0.3-8.8-1.1-13.1c-0.7-3.9-2.1-7.7-2.9-11.6c-0.1-0.5-0.2-1-0.2-1.5
	c-0.3,0-0.5,0.1-0.8,0c1.8,9.6,3.5,19.2,5.1,28.8C174.3,260,174.3,259.1,174.2,258.3z"/>
<path class="st0" d="M169.4,276.5c-2.2-15.3-4.8-30.5-7.7-45.6c-0.3-1.5-0.6-3-0.9-4.4c-0.3-0.2-0.6-0.4-0.8-0.6V288h9
	C169.1,284.2,169.3,280.3,169.4,276.5z"/>
<path class="st0" d="M193.7,224c-1.1,21.4-3.2,42.7-4.6,64H224v-64H193.7z"/>
<rect x="320" y="416" class="st0" width="96" height="64"/>
<rect x="384" y="224" class="st0" width="64" height="64"/>
<rect x="288" y="224" class="st0" width="64" height="64"/>
<rect x="384" y="320" class="st0" width="64" height="64"/>
<rect x="288" y="320" class="st0" width="64" height="64"/>
<path class="st0" d="M187.6,320c-0.1,2.7-0.1,5.3-0.1,8c0,3.1-3.3,4.1-5.3,2.9c0.5,7.7,0.8,15.4,1,23.1c0.1,4.5-6.9,4.5-7,0
	c-0.2-9.5-0.7-18.9-1.4-28.3c-2,1-5-0.1-5.3-3c-0.1-0.9-0.1-1.8-0.2-2.7H160v64h64v-64H187.6z"/>
<path class="st0" d="M174.2,258.3c-0.2-4.4-0.3-8.8-1.1-13.1c-0.7-3.9-2.1-7.7-2.9-11.6c-0.1-0.5-0.2-1-0.2-1.5
	c-0.3,0-0.5,0.1-0.8,0c1.8,9.6,3.5,19.2,5.1,28.8C174.3,260,174.3,259.1,174.2,258.3z"/>
<path class="st0" d="M180,237.4c-0.6,0-1.1-0.1-1.6-0.3c0.4,1.3,0.8,2.6,1.1,4C179.7,239.8,179.8,238.6,180,237.4z"/>
<path class="st0" d="M169.4,276.5c-2.2-15.3-4.8-30.5-7.7-45.6c-0.3-1.5-0.6-3-0.9-4.4c-0.3-0.2-0.6-0.4-0.8-0.6V288h9
	C169.1,284.2,169.3,280.3,169.4,276.5z"/>
<path class="st0" d="M193.7,224c-1.1,21.4-3.2,42.7-4.6,64H224v-64H193.7z"/>
<path class="st0" d="M75.4,324.6c-0.8,3.8-2.8,7-5.3,9.9c0.4,1.1,0.6,2.3,0.8,3.5c1.5-1.2,2.8-2.4,3.8-3.2c1.8-1.5,3.6-3.1,5.3-4.7
	c-0.8-0.2-1.6-0.7-2-1.6c-0.8-1.9-1.6-3.7-2.3-5.6c-0.1,0.3-0.2,0.5-0.2,0.8C75.5,323.9,75.5,324.2,75.4,324.6z"/>
<path class="st0" d="M86.5,333.5c-3.7,3.7-7.7,7.2-12,10.2c-1,0.7-2.2,1.6-3.5,2.3c-0.3,2.9-0.7,5.6-1.2,7.8
	c1.2-0.4,2.4-0.8,3.7-1.2c1.6-0.5,3.1,0.4,3.9,1.7c1.8-0.1,3.6-0.3,5.4-0.7c3.8-0.9,6.2,4.4,2.7,6.4c-2.2,1.3-4.4,2.5-6.7,3.6
	c3.3,3.5,6.9,6.7,10.5,9.9c-0.5-2.6,2.8-5.4,5.2-3.6c4.5,3.3,8.3,7.3,11.7,11.6c-1.7-3.5-3-7.1-3.8-11c-0.9-4.4,5.8-6.3,6.7-1.9
	c1.2,5.5,3.4,10.5,6.3,15.3H128v-64h-13.3c2.7,3.8,5.4,7.5,8,11.2c2.6,3.7-3.4,7.2-6,3.5c-2.8-3.9-5.5-7.7-8.3-11.6
	c-0.7,1.4-2.2,2.5-4,1.9c-1.2-0.4-2.1-1-3-1.6c-1.1,1-2.6,1.3-3.9,0.7c-0.8,1.3-1.7,2.5-2.7,3.7c-1.9,2.4-6,0.3-6-2.5
	c0-0.6,0-1.3,0.1-2c-0.2,0-0.5,0.1-0.7,0.1c0,0.3,0,0.7,0,1c0,2.2-1.6,3.3-3.3,3.4C87.1,328.4,88.6,331.3,86.5,333.5z"/>
<path class="st0" d="M67.6,322.9c0.1-0.5,0.1-0.9,0.2-1.4c-0.2-0.2-0.3-0.4-0.5-0.6c-0.2,0.5-0.4,1-0.6,1.5
	c-0.1,0.6-0.2,1.2-0.4,1.8C66.8,323.7,67.2,323.3,67.6,322.9z"/>
<path class="st0" d="M70.5,375.5c1.1,0.6,2.2,1.3,3.2,2.1c0.6,0,1.2,0.1,1.8,0.1c2.3-0.6,4.6-0.8,6.9-1c-3.5-3.2-6.9-6.4-10.1-9.9
	c-0.7,0.3-1.4,0.7-2.1,1C72.2,370.7,72,373.3,70.5,375.5z"/>
<rect x="288" y="224" class="st0" width="64" height="64"/>
<path class="st0" d="M113.5,449.7c1.6,0.8,2.8,2.3,3.7,0.5c0.9-1.8-0.7-3-2.1-4.2c-2.9-2.7-6.3-5.2-9.9-7.5c-0.5,1.7-2,3-4.1,2.3
	c-1.4-0.4-2.7-0.8-4.1-1.3c-0.3,0.2-0.6,0.4-1,0.6v0.7c2,1.1,4.1,2.2,6.1,3.3C105.9,446,109.7,447.8,113.5,449.7z"/>
<path class="st0" d="M138.1,416c7.2,10.3,14.4,20.6,21.6,30.9c2.6,3.7-3.5,7.2-6,3.5c-8-11.5-15.9-23-24-34.4h0
	c-0.5,2.1-2.8,3.9-5.1,2.4c-0.9-0.6-1.6-1.2-2.3-1.8c-0.2,0.5-0.4,0.9-0.8,1.2c1.3,1.5,1.4,3.9-0.4,5.1c1.9,3.1,2.9,6.5,2,10.1
	c-0.6,2.1-3.2,3.3-5.1,2.1c-1.2-0.7-2.3-1.5-3.4-2.3c-1,0.5-2.2,0.5-3.3,0c-3.1-1.5-5.7-4-8.2-6.5c-1.5,0.2-2.9,0.5-4.4,0.7
	c5.7,2.7,10.9,6.3,16.2,10c4.6,3.3,10.9,7.7,10.2,14.1c-0.8,6.9-7,8.6-12.5,6c-5.5-2.7-11-5.4-16.5-8.3V480h96v-64H138.1z"/>
<rect x="288" y="320" class="st0" width="64" height="64"/>
<rect x="384" y="224" class="st0" width="64" height="64"/>
<rect x="320" y="416" class="st0" width="96" height="64"/>
<rect x="384" y="320" class="st0" width="64" height="64"/>
<path d="M480,480V192H202.5c-2.7,1.6-5.3,3.1-8,4.7c0,9.1-0.3,18.2-0.8,27.3H224v64h-34.9c-0.7,10.7-1.3,21.3-1.5,32H224v64h-64v-64
	h9.3c-0.9-10.7-0.7-21.3-0.3-32h-9v-62.1c-2.8-1.9-5.4-3.9-8.1-5.9c-3.8,2.1-7.7,4.2-11.4,6.4c-2.3,1.3-4.6,2.6-6.8,4
	c-1.9,2.3-3.8,4.6-5.6,6.9V288H92.5c7.2,10.8,14.6,21.4,22.2,32H128v64h-12.7c4.4,7.4,10.2,14.1,15.1,21.1c2.6,3.6,5.2,7.3,7.7,10.9
	H192v64H96v-31.3c-2.9-1.5-5.8-3.1-8.6-4.7c-2.2-1.3-4.4-2.6-6.6-3.9c-16.2,2.6-32.5,5-48.8,7.3V480H0v32h512v-32H480z M288,224h64
	v64h-64V224z M288,320h64v64h-64V320z M416,480h-96v-64h96V480z M448,384h-64v-64h64V384z M448,288h-64v-64h64V288z"/>
</svg>
