<?xml version="1.0" encoding="utf-8"?>
<!-- Generator: Adobe Illustrator 22.0.1, SVG Export Plug-In . SVG Version: 6.00 Build 0)  -->
<svg version="1.1" id="Layer_1" xmlns="http://www.w3.org/2000/svg" xmlns:xlink="http://www.w3.org/1999/xlink" x="0px" y="0px"
	 viewBox="0 0 512 512" style="enable-background:new 0 0 512 512;" xml:space="preserve">
<style type="text/css">
	.st0{fill:none;}
	.st1{fill:#319997;}
</style>
<rect x="96" y="416" class="st0" width="96" height="64"/>
<rect x="64" y="320" class="st0" width="64" height="64"/>
<rect x="160" y="320" class="st0" width="64" height="64"/>
<rect x="160" y="224" class="st0" width="64" height="64"/>
<path class="st0" d="M81.5,90.4c0.8,0.7,1.4,1.7,1.7,2.8c0.9,0.1,1.8,0.4,2.6,1c-1.2-4-2.4-8-3.6-12c-0.5,0.3-1,0.5-1.5,0.8
	C83.3,84.6,83.5,88.2,81.5,90.4z"/>
<path class="st0" d="M97.5,92.2c0.8-0.3,1.7-0.5,2.6-0.8c2.6-1.4,5.2-2.7,7.5-3.8c2.9-1.4,6.1-2.8,9.4-4.1c0.3-1.8,1-3.5,1.8-5.1
	c-1.9-0.1-3.7-0.2-5.6-0.6c-4.1-0.8-4.7-6.6-1.6-8.9c-0.3,0-0.6-0.1-0.9-0.1c-2.2-0.4-3.4-2.3-3.5-4.3c-0.1,0-0.2,0-0.2,0
	c-0.7,0.1-1.4,0.1-2.2,0.2c-0.6,1.9-2.3,3.6-4.7,3.8c-0.8,0.1-1.5,0.1-2.3,0.2c-0.5,1.9-1.5,3.7-3.3,5.3c-1,0.9-2.2,1.7-3.5,2.4
	c1.7,5.5,3.3,11,4.9,16.4C96.4,92.5,97,92.4,97.5,92.2z"/>
<path class="st0" d="M75.2,135.5c2.9-1,5.9-2,8.8-3c0.1-0.4,0.2-0.7,0.4-1.1c-0.3,0-0.6-0.1-0.9-0.1c-0.7-0.1-1.3-0.3-2-0.6
	c-2.6,0.8-5.3,1.6-7.9,2.4C74.5,133.6,75,134.5,75.2,135.5z"/>
<path class="st0" d="M115,132.6c-2.5,0.8-5.1,1.7-7.6,2.5c1.7,6.3,3.3,12.7,4.9,19.1c1.6,6.3-8.1,8.9-9.6,2.7s-3.1-12.3-4.7-18.4
	c-0.5,0.2-1,0.4-1.6,0.5c-1.7,0.9-3.4,1.9-5.1,2.8c-5.1,2.9-10.3,5.8-15.4,8.8c5.7,0.6,11.3,1.6,16.9,3.2c1.2,0.3,2.1,1,2.7,1.8
	c0.2,0,0.3,0,0.5,0c6.4-0.1,6.4,9.9,0,10c-5.4,0.1-10.7,0.3-16,0.5c-0.5,1.2-1.5,2.3-3.1,2.8c-4.3,1.2-8.6,2.8-12.8,4.6V192h64
	v-52.1C123.6,137.7,119.3,135.2,115,132.6z"/>
<rect x="64" y="224" class="st0" width="64" height="64"/>
<path class="st0" d="M177.8,135c2.1,0.6,4.2,1.3,6.4,1.9c-0.1-0.4-0.1-0.8,0-1.2C182,135.5,179.9,135.3,177.8,135z"/>
<path class="st0" d="M209,137.1c3.8,2,7.8,3.7,11.9,5.1c-0.1-0.2-0.2-0.4-0.3-0.6c-0.1-0.3-0.2-0.6-0.3-1c-1.2-0.5-2-1.9-2-3.3
	C215.2,137.3,212.1,137.2,209,137.1z"/>
<path class="st0" d="M201.2,140.7c-1.5-1-1.8-2.5-1.5-3.9c-1.5-0.1-2.9-0.1-4.4-0.2c-1.8,0.7-3.6,1.4-5.3,2.1
	c5.4,1.6,10.7,3.2,16,4.8C204.5,142.6,202.8,141.7,201.2,140.7z"/>
<path class="st0" d="M216.9,154.2c-5,2.3-10.1,4.6-15.1,6.8c-4.1,1.8-7.6-4.2-3.5-6c2.9-1.3,5.8-2.6,8.7-3.9
	c-1.4-0.4-2.8-0.9-4.2-1.3c-12.6-3.8-25.2-7.6-37.9-11.3c0,0.7-0.1,1.4-0.4,2.1c2.6,1.1,5.2,2.4,7.7,3.8c2.9,1.6,1.7,5.3-0.6,6.3
	c7.6,2.7,15.2,5.2,22.8,7.7c4.3,1.4,2.4,8.2-1.9,6.7c-10.8-3.6-21.7-7.2-32.4-11.2V192h64v-35.6
	C221.6,155.7,219.3,154.9,216.9,154.2z"/>
<path class="st0" d="M219,130.4c0.1-0.3,0.2-0.5,0.3-0.8c0.3-0.6,0.7-1.1,1.1-1.6h-1.8c-0.8,0.3-1.7,0.6-2.5,0.9
	c-0.7,0.3-1.5,0.6-2.2,0.8c-0.4,0.1-0.8,0.3-1.2,0.5C214.7,130.2,216.9,130.3,219,130.4z"/>
<path class="st0" d="M195,129.3c1.1-0.4,2.2-0.9,3.3-1.3h-18.4C184.9,128.6,189.9,129,195,129.3z"/>
<rect x="384" y="320" class="st0" width="64" height="64"/>
<rect x="384" y="224" class="st0" width="64" height="64"/>
<rect x="288" y="224" class="st0" width="64" height="64"/>
<path class="st0" d="M173.8,87.6c2.7-1.3,5.5-2.6,8.2-4c-2.1,0-4.2,0-6.3-0.1C175.2,85,174.6,86.3,173.8,87.6z"/>
<path class="st0" d="M162,84c-0.2,0.3-0.5,0.5-0.7,0.7c0.6,0.2,1.2,0.2,1.7,0c0.6-0.2,1.2-0.9,1.8-1.7c-0.4,0-0.9,0-1.3-0.1
	c-0.2,0-0.5-0.1-0.7-0.1C162.6,83.3,162.4,83.7,162,84z"/>
<path class="st0" d="M171.5,55.8c-3.4,1.8-6.9,3.2-10.5,4.3c0,0.1,0.1,0.1,0.1,0.2c1,0.7,1.9,1.5,2.9,2.3c2.4-0.2,4.2,1.3,4.9,3.1
	c0.3,0.1,0.6,0.3,0.9,0.4c2.3,0.2,4.5,0.5,6.7,1c0.7,0,1.5-0.1,2.2-0.1c5.1-1.8,9.5-5.4,14.7-7c9.5-3,19.3-2.9,29.1-2.9
	c-1.9-1.7-3.8-3.5-5.7-5.2c-3.1-2.8-7.2-5.7-9-9.5c-0.5-1.1-0.7-2.2-0.5-3.3c-0.2-0.2-0.4-0.3-0.5-0.5c-0.3-0.3-0.5-0.7-0.7-1.1
	c-3.2-0.8-6.5-1.8-9.7-2.7c-0.3,1.5-0.6,3-1.1,4.5c-1.2,3.9-6,4.4-8.4,2.2c-7.4,1.5-14.8,2.7-22.2,3.8c-0.1,0.1-0.2,0.2-0.3,0.3
	c2,0.3,4,0.7,6,1.3C174.4,47.8,175.4,53.8,171.5,55.8z"/>
<rect x="320" y="416" class="st0" width="96" height="64"/>
<rect x="288" y="320" class="st0" width="64" height="64"/>
<rect x="64" y="320" class="st0" width="64" height="64"/>
<rect x="96" y="416" class="st0" width="96" height="64"/>
<rect x="160" y="320" class="st0" width="64" height="64"/>
<path class="st0" d="M184.1,135.7c-2.1-0.2-4.2-0.4-6.3-0.7c2.1,0.6,4.2,1.3,6.4,1.9C184.1,136.5,184.1,136.1,184.1,135.7z"/>
<path class="st0" d="M220.6,141.6c-0.1-0.3-0.2-0.6-0.3-1c-1.2-0.5-2-1.9-2-3.3c-3.1-0.1-6.2-0.1-9.3-0.2c3.8,2,7.8,3.7,11.9,5.1
	C220.8,142,220.7,141.8,220.6,141.6z"/>
<path class="st0" d="M216.9,154.2c-5,2.3-10.1,4.6-15.1,6.8c-4.1,1.8-7.6-4.2-3.5-6c2.9-1.3,5.8-2.6,8.7-3.9
	c-1.4-0.4-2.8-0.9-4.2-1.3c-12.6-3.8-25.2-7.6-37.9-11.3c0,0.7-0.1,1.4-0.4,2.1c2.6,1.1,5.2,2.4,7.7,3.8c2.9,1.6,1.7,5.3-0.6,6.3
	c7.6,2.7,15.2,5.2,22.8,7.7c4.3,1.4,2.4,8.2-1.9,6.7c-10.8-3.6-21.7-7.2-32.4-11.2V192h64v-35.6
	C221.6,155.7,219.3,154.9,216.9,154.2z"/>
<path class="st0" d="M201.2,140.7c-1.5-1-1.8-2.5-1.5-3.9c-1.5-0.1-2.9-0.1-4.4-0.2c-1.8,0.7-3.6,1.4-5.3,2.1
	c5.4,1.6,10.7,3.2,16,4.8C204.5,142.6,202.8,141.7,201.2,140.7z"/>
<rect x="64" y="224" class="st0" width="64" height="64"/>
<rect x="160" y="224" class="st0" width="64" height="64"/>
<rect x="320" y="416" class="st0" width="96" height="64"/>
<rect x="384" y="224" class="st0" width="64" height="64"/>
<rect x="288" y="224" class="st0" width="64" height="64"/>
<rect x="384" y="320" class="st0" width="64" height="64"/>
<rect x="288" y="320" class="st0" width="64" height="64"/>
<path d="M480,480V192H256v-25.6c-2.5-0.8-5-1.5-7.4-2.3c-8.2-2.6-16.4-5.2-24.6-7.8V192h-64v-38.1c-10.9-4.1-21.7-8.6-32-14V192H64
	v-18.6c-5.8,2.4-11.5,5.1-17.2,7.4c-4.9,2-9.8,3.9-14.8,5.9V480H0v32h512v-32H480z M64,224h64v64H64V224z M64,320h64v64H64V320z
	 M192,480H96v-64h96V480z M224,384h-64v-64h64V384z M224,288h-64v-64h64V288z M288,224h64v64h-64V224z M288,320h64v64h-64V320z
	 M416,480h-96v-64h96V480z M448,384h-64v-64h64V384z M448,288h-64v-64h64V288z"/>
<g>
	<path class="st1" d="M176.8,66.7V38.5c0-1.9,1.5-3.4,3.4-3.4h23.5V11.5c0-1.9,1.5-3.4,3.4-3.4h28.3c1.9,0,3.4,1.5,3.4,3.4V35h23.5
		c1.9,0,3.4,1.5,3.4,3.4v28.3c0,1.9-1.5,3.4-3.4,3.4h-23.5v23.5c0,1.9-1.5,3.4-3.4,3.4h-28.3c-1.9,0-3.4-1.5-3.4-3.4V70.2h-23.5
		C178.4,70.2,176.8,68.6,176.8,66.7"/>
</g>
<g>
	<path class="st1" d="M165.5,143.7v-16.8c0-1.1,0.9-2,2-2h14v-14c0-1.1,0.9-2,2-2h16.8c1.1,0,2,0.9,2,2v14h14c1.1,0,2,0.9,2,2v16.8
		c0,1.1-0.9,2-2,2h-14v14c0,1.1-0.9,2-2,2h-16.8c-1.1,0-2-0.9-2-2v-14h-14C166.4,145.8,165.5,144.8,165.5,143.7"/>
</g>
<g>
	<path class="st1" d="M226.5,179.4v-16.8c0-1.1,0.9-2,2-2h14v-14c0-1.1,0.9-2,2-2h16.8c1.1,0,2,0.9,2,2v14h14c1.1,0,2,0.9,2,2v16.8
		c0,1.1-0.9,2-2,2h-14v14c0,1.1-0.9,2-2,2h-16.8c-1.1,0-2-0.9-2-2v-14h-14C227.4,181.5,226.5,180.5,226.5,179.4"/>
</g>
<g>
	<path class="st1" d="M59.2,61.2V33c0-1.9,1.5-3.4,3.4-3.4h23.5V6c0-1.9,1.5-3.4,3.4-3.4h28.3c1.9,0,3.4,1.5,3.4,3.4v23.5h23.5
		c1.9,0,3.4,1.5,3.4,3.4v28.3c0,1.9-1.5,3.4-3.4,3.4h-23.5v23.5c0,1.9-1.5,3.4-3.4,3.4H89.6c-1.9,0-3.4-1.5-3.4-3.4V64.7H62.7
		C60.8,64.7,59.2,63.1,59.2,61.2"/>
</g>
<g>
	<path class="st1" d="M47.9,138.2v-16.8c0-1.1,0.9-2,2-2h14v-14c0-1.1,0.9-2,2-2h16.8c1.1,0,2,0.9,2,2v14h14c1.1,0,2,0.9,2,2v16.8
		c0,1.1-0.9,2-2,2h-14v14c0,1.1-0.9,2-2,2H66c-1.1,0-2-0.9-2-2v-14h-14C48.8,140.3,47.9,139.3,47.9,138.2"/>
</g>
<g>
	<path class="st1" d="M108.9,173.9v-16.8c0-1.1,0.9-2,2-2h14v-14c0-1.1,0.9-2,2-2h16.8c1.1,0,2,0.9,2,2v14h14c1.1,0,2,0.9,2,2v16.8
		c0,1.1-0.9,2-2,2h-14v14c0,1.1-0.9,2-2,2H127c-1.1,0-2-0.9-2-2v-14h-14C109.8,176,108.9,175,108.9,173.9"/>
</g>
</svg>
