<?xml version="1.0" encoding="utf-8"?>
<!-- Generator: Adobe Illustrator 22.0.1, SVG Export Plug-In . SVG Version: 6.00 Build 0)  -->
<svg version="1.1" id="Layer_1" xmlns="http://www.w3.org/2000/svg" xmlns:xlink="http://www.w3.org/1999/xlink" x="0px" y="0px"
	 viewBox="0 0 512 512" style="enable-background:new 0 0 512 512;" xml:space="preserve">
<style type="text/css">
	.st0{fill:#319997;}
</style>
<path d="M480,480V192H256V0H32v480H0v32h512v-32H480z M64,32h64v64H64V32z M64,128h64v64H64V128z M64,224h64v64H64V224z M64,320h64
	v64H64V320z M192,480H96v-64h96V480z M224,384h-64v-64h64V384z M224,288h-64v-64h64V288z M224,192h-64v-64h64V192z M224,96h-64V32
	h64V96z M288,224h64v64h-64V224z M288,320h64v64h-64V320z M416,480h-96v-64h96V480z M448,384h-64v-64h64V384z M448,288h-64v-64h64
	V288z"/>
<g>
	<path class="st0" d="M185.5,38.4V10.2c0-1.9,1.5-3.4,3.4-3.4h23.5v-23.6c0-1.9,1.5-3.4,3.4-3.4h28.4c1.9,0,3.4,1.5,3.4,3.4V6.7
		h23.5c1.9,0,3.4,1.5,3.4,3.4v28.3c0,1.9-1.5,3.4-3.4,3.4h-23.5v23.5c0,1.9-1.5,3.4-3.4,3.4h-28.3c-1.9,0-3.4-1.5-3.4-3.4V41.9H189
		C187.1,41.9,185.5,40.3,185.5,38.4"/>
</g>
<g>
	<path class="st0" d="M174.2,115.4V98.6c0-1.1,0.9-2,2-2h14v-14c0-1.1,0.9-2,2-2H209c1.1,0,2,0.9,2,2v14h14c1.1,0,2,0.9,2,2v16.8
		c0,1.1-0.9,2-2,2h-14v14c0,1.1-0.9,2-2,2h-16.8c-1.1,0-2-0.9-2-2v-14h-14C175.1,117.5,174.2,116.5,174.2,115.4"/>
</g>
<g>
	<path class="st0" d="M235.2,151.1v-16.8c0-1.1,0.9-2,2-2h14v-14c0-1.1,0.9-2,2-2H270c1.1,0,2,0.9,2,2v14h14c1.1,0,2,0.9,2,2v16.8
		c0,1.1-0.9,2-2,2h-14v14c0,1.1-0.9,2-2,2h-16.8c-1.1,0-2-0.9-2-2v-14h-14C236.1,153.2,235.2,152.2,235.2,151.1"/>
</g>
<g>
	<path class="st0" d="M1.8,66.1V37.9c0-1.9,1.5-3.4,3.4-3.4h23.5V10.9c0-1.9,1.5-3.4,3.4-3.4h28.4c1.9,0,3.4,1.5,3.4,3.4v23.5h23.5
		c1.9,0,3.4,1.5,3.4,3.4v28.3c0,1.9-1.5,3.4-3.4,3.4H63.9V93c0,1.9-1.5,3.4-3.4,3.4H32.2c-1.9,0-3.4-1.5-3.4-3.4V69.6H5.3
		C3.4,69.6,1.8,68,1.8,66.1"/>
</g>
<g>
	<path class="st0" d="M-9.5,143.1v-16.8c0-1.1,0.9-2,2-2h14v-14c0-1.1,0.9-2,2-2h16.8c1.1,0,2,0.9,2,2v14h14c1.1,0,2,0.9,2,2v16.8
		c0,1.1-0.9,2-2,2h-14v14c0,1.1-0.9,2-2,2H8.5c-1.1,0-2-0.9-2-2v-14h-14C-8.6,145.2-9.5,144.2-9.5,143.1"/>
</g>
<g>
	<path class="st0" d="M51.5,178.8V162c0-1.1,0.9-2,2-2h14v-14c0-1.1,0.9-2,2-2h16.8c1.1,0,2,0.9,2,2v14h14c1.1,0,2,0.9,2,2v16.8
		c0,1.1-0.9,2-2,2h-14v14c0,1.1-0.9,2-2,2H69.5c-1.1,0-2-0.9-2-2v-14h-14C52.4,180.9,51.5,179.9,51.5,178.8"/>
</g>
</svg>
