<?xml version="1.0" encoding="utf-8"?>
<!-- Generator: Adobe Illustrator 22.0.1, SVG Export Plug-In . SVG Version: 6.00 Build 0)  -->
<svg version="1.1" id="Layer_1" xmlns="http://www.w3.org/2000/svg" xmlns:xlink="http://www.w3.org/1999/xlink" x="0px" y="0px"
	 viewBox="0 0 512 512" style="enable-background:new 0 0 512 512;" xml:space="preserve">
<style type="text/css">
	.st0{fill:none;}
	.st1{fill:#F15A24;}
	.st2{fill:#F7931E;}
	.st3{fill:#FCEE21;}
</style>
<rect x="96" y="416" class="st0" width="96" height="64"/>
<rect x="64" y="320" class="st0" width="64" height="64"/>
<rect x="160" y="320" class="st0" width="64" height="64"/>
<rect x="160" y="224" class="st0" width="64" height="64"/>
<path class="st0" d="M81.5,90.4c0.8,0.7,1.4,1.7,1.7,2.8c0.9,0.1,1.8,0.4,2.6,1c-1.2-4-2.4-8-3.6-12c-0.5,0.3-1,0.5-1.5,0.8
	C83.3,84.6,83.5,88.2,81.5,90.4z"/>
<path class="st0" d="M97.5,92.2c0.8-0.3,1.7-0.5,2.6-0.8c2.6-1.4,5.2-2.7,7.5-3.8c2.9-1.4,6.1-2.8,9.4-4.1c0.3-1.8,1-3.5,1.8-5.1
	c-1.9-0.1-3.7-0.2-5.6-0.6c-4.1-0.8-4.7-6.6-1.6-8.9c-0.3,0-0.6-0.1-0.9-0.1c-2.2-0.4-3.4-2.3-3.5-4.3c-0.1,0-0.2,0-0.2,0
	c-0.7,0.1-1.4,0.1-2.2,0.2c-0.6,1.9-2.3,3.6-4.7,3.8c-0.8,0.1-1.5,0.1-2.3,0.2c-0.5,1.9-1.5,3.7-3.3,5.3c-1,0.9-2.2,1.7-3.5,2.4
	c1.7,5.5,3.3,11,4.9,16.4C96.4,92.5,97,92.4,97.5,92.2z"/>
<path class="st0" d="M75.2,135.5c2.9-1,5.9-2,8.8-3c0.1-0.4,0.2-0.7,0.4-1.1c-0.3,0-0.6-0.1-0.9-0.1c-0.7-0.1-1.3-0.3-2-0.6
	c-2.6,0.8-5.3,1.6-7.9,2.4C74.5,133.6,75,134.5,75.2,135.5z"/>
<path class="st0" d="M115,132.6c-2.5,0.8-5.1,1.7-7.6,2.5c1.7,6.3,3.3,12.7,4.9,19.1c1.6,6.3-8.1,8.9-9.6,2.7s-3.1-12.3-4.7-18.4
	c-0.5,0.2-1,0.4-1.6,0.5c-1.7,0.9-3.4,1.9-5.1,2.8c-5.1,2.9-10.3,5.8-15.4,8.8c5.7,0.6,11.3,1.6,16.9,3.2c1.2,0.3,2.1,1,2.7,1.8
	c0.2,0,0.3,0,0.5,0c6.4-0.1,6.4,9.9,0,10c-5.4,0.1-10.7,0.3-16,0.5c-0.5,1.2-1.5,2.3-3.1,2.8c-4.3,1.2-8.6,2.8-12.8,4.6V192h64
	v-52.1C123.6,137.7,119.3,135.2,115,132.6z"/>
<rect x="64" y="224" class="st0" width="64" height="64"/>
<path class="st0" d="M177.8,135c2.1,0.6,4.2,1.3,6.4,1.9c-0.1-0.4-0.1-0.8,0-1.2C182,135.5,179.9,135.3,177.8,135z"/>
<path class="st0" d="M209,137.1c3.8,2,7.8,3.7,11.9,5.1c-0.1-0.2-0.2-0.4-0.3-0.6c-0.1-0.3-0.2-0.6-0.3-1c-1.2-0.5-2-1.9-2-3.3
	C215.2,137.3,212.1,137.2,209,137.1z"/>
<path class="st0" d="M201.2,140.7c-1.5-1-1.8-2.5-1.5-3.9c-1.5-0.1-2.9-0.1-4.4-0.2c-1.8,0.7-3.6,1.4-5.3,2.1
	c5.4,1.6,10.7,3.2,16,4.8C204.5,142.6,202.8,141.7,201.2,140.7z"/>
<path class="st0" d="M216.9,154.2c-5,2.3-10.1,4.6-15.1,6.8c-4.1,1.8-7.6-4.2-3.5-6c2.9-1.3,5.8-2.6,8.7-3.9
	c-1.4-0.4-2.8-0.9-4.2-1.3c-12.6-3.8-25.2-7.6-37.9-11.3c0,0.7-0.1,1.4-0.4,2.1c2.6,1.1,5.2,2.4,7.7,3.8c2.9,1.6,1.7,5.3-0.6,6.3
	c7.6,2.7,15.2,5.2,22.8,7.7c4.3,1.4,2.4,8.2-1.9,6.7c-10.8-3.6-21.7-7.2-32.4-11.2V192h64v-35.6
	C221.6,155.7,219.3,154.9,216.9,154.2z"/>
<path class="st0" d="M219,130.4c0.1-0.3,0.2-0.5,0.3-0.8c0.3-0.6,0.7-1.1,1.1-1.6h-1.8c-0.8,0.3-1.7,0.6-2.5,0.9
	c-0.7,0.3-1.5,0.6-2.2,0.8c-0.4,0.1-0.8,0.3-1.2,0.5C214.7,130.2,216.9,130.3,219,130.4z"/>
<path class="st0" d="M195,129.3c1.1-0.4,2.2-0.9,3.3-1.3h-18.4C184.9,128.6,189.9,129,195,129.3z"/>
<rect x="384" y="320" class="st0" width="64" height="64"/>
<rect x="384" y="224" class="st0" width="64" height="64"/>
<rect x="288" y="224" class="st0" width="64" height="64"/>
<path class="st0" d="M173.8,87.6c2.7-1.3,5.5-2.6,8.2-4c-2.1,0-4.2,0-6.3-0.1C175.2,85,174.6,86.3,173.8,87.6z"/>
<path class="st0" d="M162,84c-0.2,0.3-0.5,0.5-0.7,0.7c0.6,0.2,1.2,0.2,1.7,0c0.6-0.2,1.2-0.9,1.8-1.7c-0.4,0-0.9,0-1.3-0.1
	c-0.2,0-0.5-0.1-0.7-0.1C162.6,83.3,162.4,83.7,162,84z"/>
<path class="st0" d="M171.5,55.8c-3.4,1.8-6.9,3.2-10.5,4.3c0,0.1,0.1,0.1,0.1,0.2c1,0.7,1.9,1.5,2.9,2.3c2.4-0.2,4.2,1.3,4.9,3.1
	c0.3,0.1,0.6,0.3,0.9,0.4c2.3,0.2,4.5,0.5,6.7,1c0.7,0,1.5-0.1,2.2-0.1c5.1-1.8,9.5-5.4,14.7-7c9.5-3,19.3-2.9,29.1-2.9
	c-1.9-1.7-3.8-3.5-5.7-5.2c-3.1-2.8-7.2-5.7-9-9.5c-0.5-1.1-0.7-2.2-0.5-3.3c-0.2-0.2-0.4-0.3-0.5-0.5c-0.3-0.3-0.5-0.7-0.7-1.1
	c-3.2-0.8-6.5-1.8-9.7-2.7c-0.3,1.5-0.6,3-1.1,4.5c-1.2,3.9-6,4.4-8.4,2.2c-7.4,1.5-14.8,2.7-22.2,3.8c-0.1,0.1-0.2,0.2-0.3,0.3
	c2,0.3,4,0.7,6,1.3C174.4,47.8,175.4,53.8,171.5,55.8z"/>
<rect x="320" y="416" class="st0" width="96" height="64"/>
<rect x="288" y="320" class="st0" width="64" height="64"/>
<rect x="64" y="320" class="st0" width="64" height="64"/>
<rect x="96" y="416" class="st0" width="96" height="64"/>
<rect x="160" y="320" class="st0" width="64" height="64"/>
<path class="st0" d="M184.1,135.7c-2.1-0.2-4.2-0.4-6.3-0.7c2.1,0.6,4.2,1.3,6.4,1.9C184.1,136.5,184.1,136.1,184.1,135.7z"/>
<path class="st0" d="M220.6,141.6c-0.1-0.3-0.2-0.6-0.3-1c-1.2-0.5-2-1.9-2-3.3c-3.1-0.1-6.2-0.1-9.3-0.2c3.8,2,7.8,3.7,11.9,5.1
	C220.8,142,220.7,141.8,220.6,141.6z"/>
<path class="st0" d="M216.9,154.2c-5,2.3-10.1,4.6-15.1,6.8c-4.1,1.8-7.6-4.2-3.5-6c2.9-1.3,5.8-2.6,8.7-3.9
	c-1.4-0.4-2.8-0.9-4.2-1.3c-12.6-3.8-25.2-7.6-37.9-11.3c0,0.7-0.1,1.4-0.4,2.1c2.6,1.1,5.2,2.4,7.7,3.8c2.9,1.6,1.7,5.3-0.6,6.3
	c7.6,2.7,15.2,5.2,22.8,7.7c4.3,1.4,2.4,8.2-1.9,6.7c-10.8-3.6-21.7-7.2-32.4-11.2V192h64v-35.6
	C221.6,155.7,219.3,154.9,216.9,154.2z"/>
<path class="st0" d="M201.2,140.7c-1.5-1-1.8-2.5-1.5-3.9c-1.5-0.1-2.9-0.1-4.4-0.2c-1.8,0.7-3.6,1.4-5.3,2.1
	c5.4,1.6,10.7,3.2,16,4.8C204.5,142.6,202.8,141.7,201.2,140.7z"/>
<rect x="64" y="224" class="st0" width="64" height="64"/>
<rect x="160" y="224" class="st0" width="64" height="64"/>
<rect x="320" y="416" class="st0" width="96" height="64"/>
<rect x="384" y="224" class="st0" width="64" height="64"/>
<rect x="288" y="224" class="st0" width="64" height="64"/>
<rect x="384" y="320" class="st0" width="64" height="64"/>
<rect x="288" y="320" class="st0" width="64" height="64"/>
<path d="M480,480V192H256v-25.6c-2.5-0.8-5-1.5-7.4-2.3c-8.2-2.6-16.4-5.2-24.6-7.8V192h-64v-38.1c-10.9-4.1-21.7-8.6-32-14V192H64
	v-18.6c-5.8,2.4-11.5,5.1-17.2,7.4c-4.9,2-9.8,3.9-14.8,5.9V480H0v32h512v-32H480z M64,224h64v64H64V224z M64,320h64v64H64V320z
	 M192,480H96v-64h96V480z M224,384h-64v-64h64V384z M224,288h-64v-64h64V288z M288,224h64v64h-64V224z M288,320h64v64h-64V320z
	 M416,480h-96v-64h96V480z M448,384h-64v-64h64V384z M448,288h-64v-64h64V288z"/>
<g>
	<title>Fichier 5</title>
	<g id="Calque_2_2_">
		<g id="OBJECTS_1_">
			<path class="st1" d="M128,118.5c0,0-93.6,17.2-60.8,123.4c0,0-17.3-7.1-18.5-39.4c0,0-33.3,61.2,57.9,88.6
				c0,0,79.7-42.5,21.3-106.9c0,0,8.6,26.9-1.6,39.8c0,0-19.3-19.5-9.8-50.8c0,0-12.4,11.8-11.9,17.5
				C104.5,190.7,93.1,147.4,128,118.5z"/>
			<path class="st2" d="M121.4,237.4c0,0-0.1,10.9-5.8,17.9c0,0-9.6-6.5-4.5-23.5c0,0-8.8,6.1-8,13.6c0,0-21.9-27.3-12.9-50.5
				c0,0-23.7,16.6-5.9,74.4c0,0-9.2-1.8-13.2-17.1c-3.6,8.4-2.4,18.2,3.4,25.5c10,5.8,20.8,10.5,32.1,13.6
				c8.4-4.9,16.1-10.7,22.8-17.5C133.1,264.4,132.6,252.3,121.4,237.4z"/>
			<path class="st3" d="M117.5,259.7c0,0,0.5,10-3.2,14.7c0,0-7-7.1-3.6-18.5c0,0-9.4,4.9-8.9,12.4c0,0-15.1-18.9-10.9-28.5
				c0,0-11.5,15.6-0.1,39.4c0,0-6.7,0.4-10.9-8.8c0,0-2.3,5.2,3.6,11.9c7.4,3.5,15.1,6.5,23.1,8.8c6.3-3.5,12.1-7.9,17.5-12.6
				C124.6,273.2,122.9,266.9,117.5,259.7z"/>
		</g>
	</g>
</g>
<g>
	<title>Fichier 6</title>
	<g id="Calque_2_3_">
		<g id="OBJECTS_2_">
			<path class="st1" d="M243.3,204.8c0,0-17.8-19.1,7.2-44.4c-11.4,2.5-21.6,8.5-28.7,17c4.5-13.6,4.2-35.3-25.4-58.5
				c0,0,13.5,22.1-6.9,45.9c0,0-13.9,12.5-17.4,30.6c-0.6-10.4-5.3-25.5-26-32.7c0,0,17.9,20.2,0,56c0,0-29.6,54.7,53.1,71.8
				c0,0,55.9-14.7,55.7-56.9C254.8,233.7,253.6,218,243.3,204.8z"/>
			<path class="st2" d="M225.6,278.9c5.8-5.6,10.3-13.2,10.3-22.9c-0.8-6.9-3.4-13.5-7.6-19.2c0,0-11.8-12.6,4.8-29.5
				c-7.6,1.6-14.3,5.6-19.2,11.4c3-9.1,2.8-23.5-17-39c0,0,9,14.7-4.5,30.5c0,0-9.3,8.4-11.7,20.3c-0.5-6.9-3.6-17-17.3-21.7
				c0,0,12,13.5,0,37.4c0,0-10.6,19.6,5.5,34.6c7.8,4,17.8,7.4,30.2,10C208.4,287.8,217.3,284,225.6,278.9z"/>
			<path class="st3" d="M215.4,284.4c4.2-3.8,6.5-9.1,6.5-14.6c-0.5-4.4-2.2-8.5-4.8-12.2c0,0-7.5-8,3-18.7c-4.8,1.1-9,3.6-12.1,7.1
				c1.9-5.8,1.7-14.8-10.7-24.7c0,0,5.8,9.3-2.8,19.4c-3.7,3.6-6.2,8.1-7.5,12.9c-0.3-4.4-2.3-10.9-10.9-13.9c0,0,7.6,8.5,0,23.6
				c0,0-6.5,12.1,3,21.4c6.5,2.3,13.2,4.3,20.1,5.6C204.7,288.9,210.2,286.9,215.4,284.4z"/>
		</g>
	</g>
</g>
</svg>
