<?xml version="1.0" encoding="utf-8"?>
<!-- Generator: Adobe Illustrator 22.0.1, SVG Export Plug-In . SVG Version: 6.00 Build 0)  -->
<svg version="1.1" id="Layer_1" xmlns="http://www.w3.org/2000/svg" xmlns:xlink="http://www.w3.org/1999/xlink" x="0px" y="0px"
	 viewBox="0 0 512 512" style="enable-background:new 0 0 512 512;" xml:space="preserve">
<style type="text/css">
	.st0{fill:none;}
	.st1{fill:#F15A24;}
	.st2{fill:#F7931E;}
	.st3{fill:#FCEE21;}
</style>
<path class="st0" d="M113.5,449.7c1.6,0.8,2.8,2.3,3.7,0.5c0.9-1.8-0.7-3-2.1-4.2c-2.9-2.7-6.3-5.2-9.9-7.5c-0.5,1.7-2,3-4.1,2.3
	c-1.4-0.4-2.7-0.8-4.1-1.3c-0.3,0.2-0.6,0.4-1,0.6v0.7c2,1.1,4.1,2.2,6.1,3.3C105.9,446,109.7,447.8,113.5,449.7z"/>
<path class="st0" d="M138.1,416c7.2,10.3,14.4,20.6,21.6,30.9c2.6,3.7-3.5,7.2-6,3.5c-7.1-10.1-14-20.3-21.1-30.4
	c-1.2,1.2-2.5,2.5-3.7,3.7c-3.2,3.2-8.1-1.8-4.9-4.9c0.2-0.2,0.4-0.4,0.6-0.6c-0.8-0.5-1.5-1.1-2.2-1.7c-0.2,0.5-0.4,0.9-0.8,1.2
	c1.3,1.5,1.4,3.9-0.4,5.1c1.9,3.1,2.9,6.5,2,10.1c-0.6,2.1-3.2,3.3-5.1,2.1c-1.2-0.7-2.3-1.5-3.4-2.3c-1,0.5-2.2,0.5-3.3,0
	c-3.1-1.5-5.7-4-8.2-6.5c-1.5,0.2-2.9,0.5-4.4,0.7c5.7,2.7,10.9,6.3,16.2,10c4.6,3.3,10.9,7.7,10.2,14.1c-0.8,6.9-7,8.6-12.5,6
	c-5.5-2.7-11-5.4-16.5-8.3V480h96v-64H138.1z"/>
<path class="st0" d="M75.4,324.6c-0.8,3.8-2.8,7-5.3,9.9c0.4,1.1,0.6,2.3,0.8,3.5c1.5-1.2,2.8-2.4,3.8-3.2c1.8-1.5,3.6-3.1,5.3-4.7
	c-0.8-0.2-1.6-0.7-2-1.6c-0.8-1.9-1.6-3.7-2.3-5.6c-0.1,0.3-0.2,0.5-0.2,0.8C75.5,323.9,75.5,324.2,75.4,324.6z"/>
<path class="st0" d="M102.3,370.6c-0.9-4.4,5.8-6.3,6.7-1.9c1,4.6,2.7,8.8,4.9,12.8c2.4-3.6,5.8-6.9,8.2-9.3
	c0.9-0.9,1.7-1.7,2.6-2.6c-0.8-0.8-1.3-2-0.8-3.3c0.9-2.5,1.9-4.9,2.9-7.4c-1.7,1.7-3.5,3.3-5.5,4.7c-2.6,1.9-5.8-1.2-5.1-4
	c1.2-5.1,2.8-10.2,4.7-15.1c0.6-3.4,1.6-6.8,2.7-10.1c-0.3,0-0.5,0-0.8,0c-1.2,1.9-4.5,2.8-6.3,0.3c-1.4-2-2.8-3.9-4.2-5.9
	c-2.1-0.6-4-1.7-5.6-3.4c-0.1-0.2-0.3-0.3-0.4-0.5c-0.6,0.2-1.3,0.3-2.1,0c-1.2-0.4-2.1-1-3-1.6c-1.1,1-2.6,1.3-3.9,0.7
	c-0.8,1.3-1.7,2.5-2.7,3.7c-1.9,2.4-6,0.3-6-2.5c0-0.6,0-1.3,0.1-2c-0.2,0-0.5,0.1-0.7,0.1c0,0.3,0,0.7,0,1c0,2.2-1.6,3.3-3.3,3.4
	c2.2,0.7,3.7,3.7,1.6,5.8c-3.7,3.7-7.7,7.2-12,10.2c-1,0.7-2.2,1.6-3.5,2.3c-0.3,2.9-0.7,5.6-1.2,7.8c1.2-0.4,2.4-0.8,3.7-1.2
	c1.6-0.5,3.1,0.4,3.9,1.7c1.8-0.1,3.6-0.3,5.4-0.7c3.8-0.9,6.2,4.4,2.7,6.4c-2.2,1.3-4.4,2.5-6.7,3.6c3.3,3.5,6.9,6.7,10.5,9.9
	c-0.5-2.6,2.8-5.4,5.2-3.6c4.5,3.3,8.3,7.3,11.7,11.6C104.4,378.1,103.1,374.5,102.3,370.6z"/>
<path class="st0" d="M67.6,322.9c0.1-0.5,0.1-0.9,0.2-1.4c-0.2-0.2-0.3-0.4-0.5-0.6c-0.2,0.5-0.4,1-0.6,1.5
	c-0.1,0.6-0.2,1.2-0.4,1.8C66.8,323.7,67.2,323.3,67.6,322.9z"/>
<path class="st0" d="M70.5,375.5c1.1,0.6,2.2,1.3,3.2,2.1c0.6,0,1.2,0.1,1.8,0.1c2.3-0.6,4.6-0.8,6.9-1c-3.5-3.2-6.9-6.4-10.1-9.9
	c-0.7,0.3-1.4,0.7-2.1,1C72.2,370.7,72,373.3,70.5,375.5z"/>
<path class="st0" d="M187.6,320c-0.1,2.7-0.1,5.3-0.1,8c0,3.1-3.3,4.1-5.3,2.9c0.5,7.7,0.8,15.4,1,23.1c0.1,4.5-6.9,4.5-7,0
	c-0.2-9.5-0.7-18.9-1.4-28.3c-1.8,0.9-4.4,0.1-5.1-2.2c-1.9,1.8-3.8,3.6-5.7,5.5c-0.4,1-0.8,2.1-1.2,3.1c0.1,0.1,0.2,0.2,0.3,0.3
	c1.2-0.5,2.9-0.2,3.7,0.8c3.6,4.1,4,9.2,2.7,14.5c-0.2,4.6-1.7,9.3-4,13.6c2.6-1.7,6.4,0.2,5.5,3.6c-0.9,3.3-2.2,6.6-3.9,9.7
	c3.2-2.6,7.8,2.1,4.7,5.2c-1.4,1.4-2.8,2.8-4.2,4.2H224v-64L187.6,320L187.6,320z"/>
<path class="st0" d="M164.6,278.3c1-1.9,2-3.8,3-5.7c0.3-0.5,0.6-0.9,1-1.1c-0.1-0.7-0.2-1.4-0.3-2.2c-1,2.8-2.2,5.6-3.5,8.3
	C164.8,277.8,164.7,278,164.6,278.3z"/>
<path class="st0" d="M180,237.4c-0.6,0-1.1-0.1-1.6-0.3c0.4,1.3,0.8,2.6,1.1,4C179.7,239.8,179.8,238.6,180,237.4z"/>
<path class="st0" d="M171.4,240.3c-0.1,0.4-0.2,0.8-0.4,1.2c0.3,1.5,0.5,3,0.8,4.5c0.4,0.6,0.5,1.3,0.4,2.1
	c0.7,4.3,1.5,8.5,2.1,12.8c0-0.9-0.1-1.8-0.1-2.6c-0.2-4.4-0.3-8.8-1.1-13.1c-0.7-3.9-2.1-7.7-2.9-11.6c-0.1-0.5-0.2-1-0.2-1.5
	c-0.3,0-0.5,0.1-0.8,0c0.3,1.5,0.6,3,0.8,4.5C171.2,237.3,171.8,238.6,171.4,240.3z"/>
<path class="st0" d="M193.7,224c-1.1,21.4-3.2,42.7-4.6,64H224v-64H193.7z"/>
<path class="st0" d="M81.5,90.4c0.8,0.7,1.4,1.7,1.7,2.8c0.9,0.1,1.8,0.4,2.6,1c-1.2-4-2.4-8-3.6-12c-0.5,0.3-1,0.5-1.5,0.8
	C83.3,84.6,83.5,88.2,81.5,90.4z"/>
<path class="st0" d="M97.5,92.2c0.8-0.3,1.7-0.5,2.6-0.8c2.6-1.4,5.2-2.7,7.5-3.8c2.9-1.4,6.1-2.8,9.4-4.1c0.3-1.8,1-3.5,1.8-5.1
	c-1.9-0.1-3.7-0.2-5.6-0.6c-4.1-0.8-4.7-6.6-1.6-8.9c-0.3,0-0.6-0.1-0.9-0.1c-2.2-0.4-3.4-2.3-3.5-4.3c-0.1,0-0.2,0-0.2,0
	c-0.7,0.1-1.4,0.1-2.2,0.2c-0.6,1.9-2.3,3.6-4.7,3.8c-0.8,0.1-1.5,0.1-2.3,0.2c-0.5,1.9-1.5,3.7-3.3,5.3c-1,0.9-2.2,1.7-3.5,2.4
	c1.7,5.5,3.3,11,4.9,16.4C96.4,92.5,97,92.4,97.5,92.2z"/>
<path class="st0" d="M75.2,135.5c2.9-1,5.9-2,8.8-3c0.1-0.4,0.2-0.7,0.4-1.1c-0.3,0-0.6-0.1-0.9-0.1c-0.7-0.1-1.3-0.3-2-0.6
	c-2.6,0.8-5.3,1.6-7.9,2.4C74.5,133.6,75,134.5,75.2,135.5z"/>
<path class="st0" d="M112.6,153.2c0.1-0.2,0.1-0.4,0.2-0.7c0.7-1.7,2-3.1,3.6-4.2c-0.3-3.6-0.3-7.5,1.6-10.5
	c0.7-1.2,1.9-1.7,3.2-1.7c-2.1-1.2-4.1-2.4-6.1-3.6c-2.5,0.8-5.1,1.7-7.6,2.5c1.6,6.1,3.1,12.1,4.7,18.2
	C112.3,153.3,112.4,153.3,112.6,153.2z"/>
<path class="st0" d="M95.5,155.5c0.2,0,0.3,0,0.5,0c6.4-0.1,6.4,9.9,0,10c-5.4,0.1-10.7,0.3-16,0.5c-0.5,1.2-1.5,2.3-3.1,2.8
	c-4.1,1.2-8.2,2.7-12.2,4.4c0.3,0.6,0.5,1.2,0.5,1.9c0.2,0.5,0.2,1.2,0,1.8s-0.4,1.2-0.6,1.8c0,0.2,0,0.3,0,0.5
	c0.3-0.1,0.6-0.1,0.9-0.1c0.2,0,0.3,0,0.5,0c1.9-0.4,3.8-0.7,5.6-1.2c4.4-0.9,6.3,5.7,1.9,6.7c-2,0.4-3.9,1-5.8,1.3
	c-0.6,1.2-1.3,2.4-1.7,3.7c2.3-0.4,4.6-0.6,6.9-0.1c1.9,0.4,3.6,1.1,5.3,1.9c0.4,0.1,0.8,0.2,1.2,0.3c0.1-0.2,0.1-0.5,0.2-0.7
	c0.5-1.6,1.8-2.4,3.1-2.5c0.4-1.1,0.8-2.1,1.2-3.2c1.7-4.2,7.4-2.6,6.8,1.9c-0.2,1.2-0.4,2.5-0.5,3.7c0.6-0.8,1.6-1.3,2.6-1.3
	c0.3-1,0.7-1.9,1-2.9c0-0.1,0-0.3,0-0.4c0.1-0.9,0.4-1.6,0.8-2.1c0.6-1.8,1.3-3.7,2-5.5c1.4-3.8,6.3-2.8,6.8,0.6
	c0.4-1.1,0.8-2.2,1.2-3.3c0.3-0.9,0.9-1.5,1.5-1.9c0.3-0.8,0.5-1.6,0.8-2.4c1.6-4.2,7.8-2.6,6.8,1.9c-0.8,3.6-1.6,7.3-2.3,10.9
	c0.4,0.4,0.6,0.9,0.7,1.4c0.5-0.3,1.1-0.4,1.7-0.3c0.7-1.5,1.7-2.9,2.9-4.1c0.1-0.4,0.2-0.8,0.4-1.3c0.9-2.8,3.6-7.1,6.7-10.1
	c-0.4-0.7-0.7-1.5-1.1-2.2c-1.7,0.9-3.4,1.8-5.3,2.4c-1.7,0.6-3.9-0.7-4.3-2.4c-0.4-2.2-0.4-4.2,0-6.2c-1.5-0.1-2.9-0.1-4.3-0.2
	c-1.2-0.1-2.1-0.6-2.7-1.3c-1.4-0.4-2.5-1.5-3-3.3c-1.5-6.2-3.1-12.3-4.7-18.4c-0.5,0.2-1,0.4-1.6,0.5c-1.7,0.9-3.4,1.9-5.1,2.8
	c-5.1,2.9-10.3,5.8-15.4,8.8c5.7,0.6,11.3,1.6,16.9,3.2C94.1,154,94.9,154.7,95.5,155.5z"/>
<path class="st0" d="M82.8,269.6c1.1,0.6,1.6,1.6,1.7,2.6c0.4,1,0.3,2.2-0.2,3.2c0.7,1,1.3,2,2,3.1c4.1-0.3,8.1-0.7,12.2-1.1
	c6.6-4.2,12.9-8.8,19-13.7c3-8.2,6-16.4,9.1-24.5c-3.4,4.3-6.7,8.6-9.8,13c-2.6,3.6-8.7,0.1-6-3.5c2.1-2.9,4.2-5.8,6.4-8.6
	c-13.4,7.9-26.8,15.8-40.2,23.6c0.8,1.3,1.5,2.5,2.3,3.8C80.4,268.2,81.5,268.9,82.8,269.6z"/>
<path class="st0" d="M73.3,257.6c16.6-9.7,33.1-19.5,49.7-29.2c-0.7-0.1-1.4-0.4-2-0.9c-0.9,0.6-1.7,1.3-2.6,1.9
	c-2.2,1.5-4.2,0.1-4.9-1.9c-1.5,1-2.9,2-4.4,3c0,0.1-0.1,0.3-0.1,0.4c-0.5,1.8-2.3,2.6-3.9,2.4c-10.9,7.5-21.9,15.1-32.8,22.6
	C72.6,256.5,72.9,257,73.3,257.6z"/>
<path class="st0" d="M93.4,231.1c-3,1.3-6,2.5-9,3.8c-0.1,0.3-0.2,0.7-0.4,1c-0.7,1.8-2.7,2.6-4.4,2.3c-0.5,1.8-1,3.6-1.7,5.3
	c5.5-3.8,10.9-7.5,16.4-11.3C93.9,232,93.6,231.6,93.4,231.1z"/>
<path class="st0" d="M177.8,135c2.1,0.6,4.2,1.3,6.4,1.9c-0.1-0.4-0.1-0.8,0-1.2C182,135.5,179.9,135.3,177.8,135z"/>
<path class="st0" d="M220.3,140.6c-1.2-0.5-2-1.9-2-3.3c-1.5,0-3-0.1-4.4-0.1c-0.5,0.5-0.9,1.1-1.3,1.6c2.7,1.3,5.5,2.4,8.4,3.4
	c-0.1-0.2-0.2-0.4-0.3-0.6C220.5,141.3,220.4,141,220.3,140.6z"/>
<path class="st0" d="M201.8,141c-0.2-0.1-0.4-0.2-0.6-0.4c-1.5-1-1.8-2.5-1.5-3.9c-1.5-0.1-2.9-0.1-4.4-0.2
	c-1.8,0.7-3.6,1.4-5.3,2.1c3.7,1.1,7.3,2.2,11,3.3C201.3,141.7,201.6,141.4,201.8,141z"/>
<path class="st0" d="M184.3,162.3c-3.4-1.1-6.8-2.3-10.1-3.4c-2.6,2.8-5.3,5.5-8.1,8.1c0.8-0.3,1.6-0.6,2.4-0.8
	c1.7-0.3,4,0.5,4.3,2.4c0.5,3-0.1,5.7-1.3,8.2C175.7,172.1,180,167.2,184.3,162.3z"/>
<path class="st0" d="M174.7,141.4c-0.4,1.3-0.8,2.7-1.4,4c1.3,1.8,0.1,4.4-1.8,5.2c0.2,0.1,0.4,0.1,0.5,0.2c1.8-2,3.7-3.9,5.5-5.9
	c3.1-3.3,8,1.7,4.9,4.9c-1,1.1-2.1,2.3-3.2,3.5c3.3,1.1,6.6,2.2,9.9,3.3c0.2-0.2,0.4-0.5,0.6-0.7c2.2-2.7,4.4-5.3,6.6-8.1
	C189.2,145.7,181.9,143.5,174.7,141.4z"/>
<path class="st0" d="M200.4,154c2.2-1,4.4-2,6.5-2.9c-1.1-0.3-2.2-0.7-3.3-1C202.5,151.4,201.4,152.7,200.4,154z"/>
<path class="st0" d="M217.8,154.5c-3.2,2.2-6.4,4.5-9.5,6.7c-12.1,8.6-24.3,17.1-36.5,25.7c-1,1.1-2,2.2-2.9,3.3
	c-0.6,0.6-1.1,1.2-1.7,1.9h1c5.9-2.5,11.9-5,17.8-7.6c0.2-0.1,0.4-0.2,0.6-0.4c0.7-0.5,1.5-0.9,2.2-1.4c0.9-0.6,1.7-0.7,2.4-0.5
	c3-1.3,5.9-2.5,8.9-3.8c2.9-1.2,5.5,1.4,5.3,3.7c3.8-2.4,7.3,3.7,3.5,6.1c-2.2,1.4-4.4,2.7-6.6,4H224v-35.6
	C221.9,155.8,219.9,155.1,217.8,154.5z"/>
<path class="st0" d="M195,129.3c1.1-0.4,2.2-0.9,3.3-1.3h-18.4C184.9,128.6,189.9,129,195,129.3z"/>
<path class="st0" d="M398.6,320c3.5,4.7,7,9.5,10.4,14.2c2.7,3.6-3.4,7.1-6,3.5c-4.3-5.9-8.7-11.9-13-17.8h-4.7
	c0,0.3-0.1,0.6-0.2,0.9c-0.7,1.7-0.5,3,0,4.8c0.3,1.2,0.1,2.2-0.5,2.9c7.5,5,15.1,10.1,22.9,14.7c1.6,0.9,1.9,2.5,1.5,3.8
	c3.6,2.3,0.1,8.1-3.7,5.9c-7.5-4.3-14.2-9.5-21.2-14.4V384h64v-64H398.6z"/>
<path class="st0" d="M440.1,231.3c0,3.4-0.2,6.8-0.6,10.1c-0.5,4.4-7.5,4.5-7,0c0.3-2.4,0.5-4.9,0.6-7.4c-1.5,0.9-3.7,0.8-4.8-1.2
	c-0.9-1.6-1.7-3.3-2.6-4.9c0.8,4.6,1.1,9.3,0.8,14.1c-0.3,4.1-5.5,4.6-6.9,0.9c-1.9-5-3.8-9.9-5.7-14.9c-2.9,0.2-5.9-0.1-8.9-0.5
	c0.1,1.4-0.5,2.8-1.6,3.5c-2.9,1.7-6.4,2.9-10.1,3.7c-0.2,0.7-0.7,1.5-1.5,2c-0.5,0.3-1.1,0.7-1.6,1c0.9,1.3,0.9,3.3-0.4,4.5
	c-1.2,1.2-2.6,2-4.1,2.7c0.4,1,0.8,1.9,1.1,2.9c1.4,0.1,2.7,1.4,3.3,2.6c0.7,1.6,1.1,3.1,1.2,4.7c0.2,0.4,0.3,0.9,0.2,1.5
	c-0.1,1.5-0.4,2.8-0.8,4.3c-0.3,1.1-1,1.8-1.8,2.2c-0.6,0.9-1.2,1.7-1.9,2.6c0.7,2.3,0.7,4.6-0.4,6.8c-0.6,1.2-1.4,2.1-2.3,2.8
	c2.9,1.2,5.7,2.9,8.1,4.4c3,1.8,1.7,6.5-1.8,6.5c-2.2,0-4.4,0.1-6.7,0.3v1.5h12.6c3.2-2.5,6.8-4.4,10.4-5.7c0.9-0.3,1.8-0.2,2.5,0.2
	c0.8-0.4,1.6-0.8,2.4-1.2c3.1-1.5,5.9,1.7,5.2,4.2c2.1-1.3,4.3-2.6,6.5-3.8c3.9-2.3,7.4,3.8,3.5,6c-0.2,0.1-0.3,0.2-0.5,0.3H448
	v-49.2C445.4,236.3,442.7,233.8,440.1,231.3z"/>
<path class="st0" d="M344.3,239.5c-1.5-0.6-2.4-2.1-2.5-3.6c-2.5-1.4-3-5.6,0.5-6.3c-0.3-0.3-0.5-0.6-0.7-0.9
	c-4.8-0.3-9.6-0.9-14.3-1.9c3.9,5,7.8,10,11.7,15c2-0.4,4-0.6,5.8-0.9C344.6,240.5,344.4,240,344.3,239.5z"/>
<path class="st0" d="M310.8,269.5c5.7,5.7,11.7,11.2,17.7,16.6c0.1-0.2,0.2-0.4,0.4-0.5c-1.7-2.9,1.4-7.3,4.5-4.9
	c4,3.1,8.7,4.9,13,7.4h5.5v-18.4c-2.7-3.5-5.4-7-8.1-10.5c-1.5-1.9-2.9-3.7-4.4-5.6c-3-0.5-6-1.3-8.7-2.2c-2.9-0.9-3.4-4.8-0.8-6.4
	c0.6-0.4,1.3-0.7,2-1.1c-5.2-6.6-10.3-13.2-15.4-19.9H288v64h32.1c-4.9-4.4-9.6-8.9-14.3-13.5C302.7,271.3,307.6,266.3,310.8,269.5z
	"/>
<path class="st0" d="M173.8,87.6c2.7-1.3,5.5-2.6,8.2-4c-2.1,0-4.2,0-6.3-0.1C175.2,85,174.6,86.3,173.8,87.6z"/>
<path class="st0" d="M162,84c-0.2,0.3-0.5,0.5-0.7,0.7c0.6,0.2,1.2,0.2,1.7,0c0.6-0.2,1.2-0.9,1.8-1.7c-0.4,0-0.9,0-1.3-0.1
	c-0.2,0-0.5-0.1-0.7-0.1C162.6,83.3,162.4,83.7,162,84z"/>
<path class="st0" d="M171.5,55.8c-3.4,1.8-6.9,3.2-10.5,4.3c0,0.1,0.1,0.1,0.1,0.2c1,0.7,1.9,1.5,2.9,2.3c2.4-0.2,4.2,1.3,4.9,3.1
	c0.3,0.1,0.6,0.3,0.9,0.4c2.3,0.2,4.5,0.5,6.7,1c0.7,0,1.5-0.1,2.2-0.1c5.1-1.8,9.5-5.4,14.7-7c9.5-3,19.3-2.9,29.1-2.9
	c-1.9-1.7-3.8-3.5-5.7-5.2c-3.1-2.8-7.2-5.7-9-9.5c-0.5-1.1-0.7-2.2-0.5-3.3c-0.2-0.2-0.4-0.3-0.5-0.5c-0.3-0.3-0.5-0.7-0.7-1.1
	c-3.2-0.8-6.5-1.8-9.7-2.7c-0.3,1.5-0.6,3-1.1,4.5c-1.2,3.9-6,4.4-8.4,2.2c-7.4,1.5-14.8,2.7-22.2,3.8c-0.1,0.1-0.2,0.2-0.3,0.3
	c2,0.3,4,0.7,6,1.3C174.4,47.8,175.4,53.8,171.5,55.8z"/>
<rect x="320" y="416" class="st0" width="96" height="64"/>
<path class="st0" d="M320.2,348.6c7.4-5.3,14.8-10.5,22.3-15.7c0.1-0.4,0.2-0.7,0.4-1.1c1.9-3.2,4.3-6.2,6.9-9
	c-0.7-0.7-1-1.8-0.9-2.9h-61v64h64v-49c-9.5,6.4-18.9,13-28.2,19.7C320.1,357.3,316.6,351.3,320.2,348.6z"/>
<path class="st0" d="M75.4,324.6c-0.8,3.8-2.8,7-5.3,9.9c0.4,1.1,0.6,2.3,0.8,3.5c1.5-1.2,2.8-2.4,3.8-3.2c1.8-1.5,3.6-3.1,5.3-4.7
	c-0.8-0.2-1.6-0.7-2-1.6c-0.8-1.9-1.6-3.7-2.3-5.6c-0.1,0.3-0.2,0.5-0.2,0.8C75.5,323.9,75.5,324.2,75.4,324.6z"/>
<path class="st0" d="M102.3,370.6c-0.9-4.4,5.8-6.3,6.7-1.9c1,4.6,2.7,8.8,4.9,12.8c2.4-3.6,5.8-6.9,8.2-9.3
	c0.9-0.9,1.7-1.7,2.6-2.6c-0.8-0.8-1.3-2-0.8-3.3c0.9-2.5,1.9-4.9,2.9-7.4c-1.7,1.7-3.5,3.3-5.5,4.7c-2.6,1.9-5.8-1.2-5.1-4
	c1.2-5.1,2.8-10.2,4.7-15.1c0.6-3.4,1.6-6.8,2.7-10.1c-0.3,0-0.5,0-0.8,0c-1.2,1.9-4.5,2.8-6.3,0.3c-1.4-2-2.8-3.9-4.2-5.9
	c-2.1-0.6-4-1.7-5.6-3.4c-0.1-0.2-0.3-0.3-0.4-0.5c-0.6,0.2-1.3,0.3-2.1,0c-1.2-0.4-2.1-1-3-1.6c-1.1,1-2.6,1.3-3.9,0.7
	c-0.8,1.3-1.7,2.5-2.7,3.7c-1.9,2.4-6,0.3-6-2.5c0-0.6,0-1.3,0.1-2c-0.2,0-0.5,0.1-0.7,0.1c0,0.3,0,0.7,0,1c0,2.2-1.6,3.3-3.3,3.4
	c2.2,0.7,3.7,3.7,1.6,5.8c-3.7,3.7-7.7,7.2-12,10.2c-1,0.7-2.2,1.6-3.5,2.3c-0.3,2.9-0.7,5.6-1.2,7.8c1.2-0.4,2.4-0.8,3.7-1.2
	c1.6-0.5,3.1,0.4,3.9,1.7c1.8-0.1,3.6-0.3,5.4-0.7c3.8-0.9,6.2,4.4,2.7,6.4c-2.2,1.3-4.4,2.5-6.7,3.6c3.3,3.5,6.9,6.7,10.5,9.9
	c-0.5-2.6,2.8-5.4,5.2-3.6c4.5,3.3,8.3,7.3,11.7,11.6C104.4,378.1,103.1,374.5,102.3,370.6z"/>
<path class="st0" d="M67.6,322.9c0.1-0.5,0.1-0.9,0.2-1.4c-0.2-0.2-0.3-0.4-0.5-0.6c-0.2,0.5-0.4,1-0.6,1.5
	c-0.1,0.6-0.2,1.2-0.4,1.8C66.8,323.7,67.2,323.3,67.6,322.9z"/>
<path class="st0" d="M70.5,375.5c1.1,0.6,2.2,1.3,3.2,2.1c0.6,0,1.2,0.1,1.8,0.1c2.3-0.6,4.6-0.8,6.9-1c-3.5-3.2-6.9-6.4-10.1-9.9
	c-0.7,0.3-1.4,0.7-2.1,1C72.2,370.7,72,373.3,70.5,375.5z"/>
<path class="st0" d="M113.5,449.7c1.6,0.8,2.8,2.3,3.7,0.5c0.9-1.8-0.7-3-2.1-4.2c-2.9-2.7-6.3-5.2-9.9-7.5c-0.5,1.7-2,3-4.1,2.3
	c-1.4-0.4-2.7-0.8-4.1-1.3c-0.3,0.2-0.6,0.4-1,0.6v0.7c2,1.1,4.1,2.2,6.1,3.3C105.9,446,109.7,447.8,113.5,449.7z"/>
<path class="st0" d="M138.1,416c7.2,10.3,14.4,20.6,21.6,30.9c2.6,3.7-3.5,7.2-6,3.5c-7.1-10.1-14-20.3-21.1-30.4
	c-1.2,1.2-2.5,2.5-3.7,3.7c-3.2,3.2-8.1-1.8-4.9-4.9c0.2-0.2,0.4-0.4,0.6-0.6c-0.8-0.5-1.5-1.1-2.2-1.7c-0.2,0.5-0.4,0.9-0.8,1.2
	c1.3,1.5,1.4,3.9-0.4,5.1c1.9,3.1,2.9,6.5,2,10.1c-0.6,2.1-3.2,3.3-5.1,2.1c-1.2-0.7-2.3-1.5-3.4-2.3c-1,0.5-2.2,0.5-3.3,0
	c-3.1-1.5-5.7-4-8.2-6.5c-1.5,0.2-2.9,0.5-4.4,0.7c5.7,2.7,10.9,6.3,16.2,10c4.6,3.3,10.9,7.7,10.2,14.1c-0.8,6.9-7,8.6-12.5,6
	c-5.5-2.7-11-5.4-16.5-8.3V480h96v-64H138.1z"/>
<path class="st0" d="M187.6,320c-0.1,2.7-0.1,5.3-0.1,8c0,3.1-3.3,4.1-5.3,2.9c0.5,7.7,0.8,15.4,1,23.1c0.1,4.5-6.9,4.5-7,0
	c-0.2-9.5-0.7-18.9-1.4-28.3c-1.8,0.9-4.4,0.1-5.1-2.2c-1.9,1.8-3.8,3.6-5.7,5.5c-0.4,1-0.8,2.1-1.2,3.1c0.1,0.1,0.2,0.2,0.3,0.3
	c1.2-0.5,2.9-0.2,3.7,0.8c3.6,4.1,4,9.2,2.7,14.5c-0.2,4.6-1.7,9.3-4,13.6c2.6-1.7,6.4,0.2,5.5,3.6c-0.9,3.3-2.2,6.6-3.9,9.7
	c3.2-2.6,7.8,2.1,4.7,5.2c-1.4,1.4-2.8,2.8-4.2,4.2H224v-64L187.6,320L187.6,320z"/>
<path class="st0" d="M184.1,135.7c-2.1-0.2-4.2-0.4-6.3-0.7c2.1,0.6,4.2,1.3,6.4,1.9C184.1,136.5,184.1,136.1,184.1,135.7z"/>
<path class="st0" d="M220.3,140.6c-1.2-0.5-2-1.9-2-3.3c-1.5,0-3-0.1-4.4-0.1c-0.5,0.5-0.9,1.1-1.3,1.6c2.7,1.3,5.5,2.4,8.4,3.4
	c-0.1-0.2-0.2-0.4-0.3-0.6C220.5,141.3,220.4,141,220.3,140.6z"/>
<path class="st0" d="M184.3,162.3c-3.4-1.1-6.8-2.3-10.1-3.4c-2.6,2.8-5.3,5.5-8.1,8.1c0.8-0.3,1.6-0.6,2.4-0.8
	c1.7-0.3,4,0.5,4.3,2.4c0.5,3-0.1,5.7-1.3,8.2C175.7,172.1,180,167.2,184.3,162.3z"/>
<path class="st0" d="M174.7,141.4c-0.4,1.3-0.8,2.7-1.4,4c1.3,1.8,0.1,4.4-1.8,5.2c0.2,0.1,0.4,0.1,0.5,0.2c1.8-2,3.7-3.9,5.5-5.9
	c3.1-3.3,8,1.7,4.9,4.9c-1,1.1-2.1,2.3-3.2,3.5c3.3,1.1,6.6,2.2,9.9,3.3c0.2-0.2,0.4-0.5,0.6-0.7c2.2-2.7,4.4-5.3,6.6-8.1
	C189.2,145.7,181.9,143.5,174.7,141.4z"/>
<path class="st0" d="M200.4,154c2.2-1,4.4-2,6.5-2.9c-1.1-0.3-2.2-0.7-3.3-1C202.5,151.4,201.4,152.7,200.4,154z"/>
<path class="st0" d="M217.8,154.5c-3.2,2.2-6.4,4.5-9.5,6.7c-12.1,8.6-24.3,17.1-36.5,25.7c-1,1.1-2,2.2-2.9,3.3
	c-0.6,0.6-1.1,1.2-1.7,1.9h1c5.9-2.5,11.9-5,17.8-7.6c0.2-0.1,0.4-0.2,0.6-0.4c0.7-0.5,1.5-0.9,2.2-1.4c0.9-0.6,1.7-0.7,2.4-0.5
	c3-1.3,5.9-2.5,8.9-3.8c2.9-1.2,5.5,1.4,5.3,3.7c3.8-2.4,7.3,3.7,3.5,6.1c-2.2,1.4-4.4,2.7-6.6,4H224v-35.6
	C221.9,155.8,219.9,155.1,217.8,154.5z"/>
<path class="st0" d="M201.8,141c-0.2-0.1-0.4-0.2-0.6-0.4c-1.5-1-1.8-2.5-1.5-3.9c-1.5-0.1-2.9-0.1-4.4-0.2
	c-1.8,0.7-3.6,1.4-5.3,2.1c3.7,1.1,7.3,2.2,11,3.3C201.3,141.7,201.6,141.4,201.8,141z"/>
<path class="st0" d="M93.4,231.1c-3,1.3-6,2.5-9,3.8c-0.1,0.3-0.2,0.7-0.4,1c-0.7,1.8-2.7,2.6-4.4,2.3c-0.5,1.8-1,3.6-1.7,5.3
	c5.5-3.8,10.9-7.5,16.4-11.3C93.9,232,93.6,231.6,93.4,231.1z"/>
<path class="st0" d="M73.3,257.6c16.6-9.7,33.1-19.5,49.7-29.2c-0.7-0.1-1.4-0.4-2-0.9c-0.9,0.6-1.7,1.3-2.6,1.9
	c-2.2,1.5-4.2,0.1-4.9-1.9c-1.5,1-2.9,2-4.4,3c0,0.1-0.1,0.3-0.1,0.4c-0.5,1.8-2.3,2.6-3.9,2.4c-10.9,7.5-21.9,15.1-32.8,22.6
	C72.6,256.5,72.9,257,73.3,257.6z"/>
<path class="st0" d="M82.8,269.6c1.1,0.6,1.6,1.6,1.7,2.6c0.4,1,0.3,2.2-0.2,3.2c0.7,1,1.3,2,2,3.1c4.1-0.3,8.1-0.7,12.2-1.1
	c6.6-4.2,12.9-8.8,19-13.7c3-8.2,6-16.4,9.1-24.5c-3.4,4.3-6.7,8.6-9.8,13c-2.6,3.6-8.7,0.1-6-3.5c2.1-2.9,4.2-5.8,6.4-8.6
	c-13.4,7.9-26.8,15.8-40.2,23.6c0.8,1.3,1.5,2.5,2.3,3.8C80.4,268.2,81.5,268.9,82.8,269.6z"/>
<path class="st0" d="M180,237.4c-0.6,0-1.1-0.1-1.6-0.3c0.4,1.3,0.8,2.6,1.1,4C179.7,239.8,179.8,238.6,180,237.4z"/>
<path class="st0" d="M171.4,240.3c-0.1,0.4-0.2,0.8-0.4,1.2c0.3,1.5,0.5,3,0.8,4.5c0.4,0.6,0.5,1.3,0.4,2.1
	c0.7,4.3,1.5,8.5,2.1,12.8c0-0.9-0.1-1.8-0.1-2.6c-0.2-4.4-0.3-8.8-1.1-13.1c-0.7-3.9-2.1-7.7-2.9-11.6c-0.1-0.5-0.2-1-0.2-1.5
	c-0.3,0-0.5,0.1-0.8,0c0.3,1.5,0.6,3,0.8,4.5C171.2,237.3,171.8,238.6,171.4,240.3z"/>
<path class="st0" d="M164.6,278.3c1-1.9,2-3.8,3-5.7c0.3-0.5,0.6-0.9,1-1.1c-0.1-0.7-0.2-1.4-0.3-2.2c-1,2.8-2.2,5.6-3.5,8.3
	C164.8,277.8,164.7,278,164.6,278.3z"/>
<path class="st0" d="M193.7,224c-1.1,21.4-3.2,42.7-4.6,64H224v-64H193.7z"/>
<rect x="320" y="416" class="st0" width="96" height="64"/>
<path class="st0" d="M440.1,231.3c0,3.4-0.2,6.8-0.6,10.1c-0.5,4.4-7.5,4.5-7,0c0.3-2.4,0.5-4.9,0.6-7.4c-1.5,0.9-3.7,0.8-4.8-1.2
	c-0.9-1.6-1.7-3.3-2.6-4.9c0.8,4.6,1.1,9.3,0.8,14.1c-0.3,4.1-5.5,4.6-6.9,0.9c-1.9-5-3.8-9.9-5.7-14.9c-2.9,0.2-5.9-0.1-8.9-0.5
	c0.1,1.4-0.5,2.8-1.6,3.5c-2.9,1.7-6.4,2.9-10.1,3.7c-0.2,0.7-0.7,1.5-1.5,2c-0.5,0.3-1.1,0.7-1.6,1c0.9,1.3,0.9,3.3-0.4,4.5
	c-1.2,1.2-2.6,2-4.1,2.7c0.4,1,0.8,1.9,1.1,2.9c1.4,0.1,2.7,1.4,3.3,2.6c0.7,1.6,1.1,3.1,1.2,4.7c0.2,0.4,0.3,0.9,0.2,1.5
	c-0.1,1.5-0.4,2.8-0.8,4.3c-0.3,1.1-1,1.8-1.8,2.2c-0.6,0.9-1.2,1.7-1.9,2.6c0.7,2.3,0.7,4.6-0.4,6.8c-0.6,1.2-1.4,2.1-2.3,2.8
	c2.9,1.2,5.7,2.9,8.1,4.4c3,1.8,1.7,6.5-1.8,6.5c-2.2,0-4.4,0.1-6.7,0.3v1.5h12.6c3.2-2.5,6.8-4.4,10.4-5.7c0.9-0.3,1.8-0.2,2.5,0.2
	c0.8-0.4,1.6-0.8,2.4-1.2c3.1-1.5,5.9,1.7,5.2,4.2c2.1-1.3,4.3-2.6,6.5-3.8c3.9-2.3,7.4,3.8,3.5,6c-0.2,0.1-0.3,0.2-0.5,0.3H448
	v-49.2C445.4,236.3,442.7,233.8,440.1,231.3z"/>
<path class="st0" d="M344.3,239.5c-1.5-0.6-2.4-2.1-2.5-3.6c-2.5-1.4-3-5.6,0.5-6.3c-0.3-0.3-0.5-0.6-0.7-0.9
	c-4.8-0.3-9.6-0.9-14.3-1.9c3.9,5,7.8,10,11.7,15c2-0.4,4-0.6,5.8-0.9C344.6,240.5,344.4,240,344.3,239.5z"/>
<path class="st0" d="M310.8,269.5c5.7,5.7,11.7,11.2,17.7,16.6c0.1-0.2,0.2-0.4,0.4-0.5c-1.7-2.9,1.4-7.3,4.5-4.9
	c4,3.1,8.7,4.9,13,7.4h5.5v-18.4c-2.7-3.5-5.4-7-8.1-10.5c-1.5-1.9-2.9-3.7-4.4-5.6c-3-0.5-6-1.3-8.7-2.2c-2.9-0.9-3.4-4.8-0.8-6.4
	c0.6-0.4,1.3-0.7,2-1.1c-5.2-6.6-10.3-13.2-15.4-19.9H288v64h32.1c-4.9-4.4-9.6-8.9-14.3-13.5C302.7,271.3,307.6,266.3,310.8,269.5z
	"/>
<path class="st0" d="M398.6,320c3.5,4.7,7,9.5,10.4,14.2c2.7,3.6-3.4,7.1-6,3.5c-4.3-5.9-8.7-11.9-13-17.8h-4.7
	c0,0.3-0.1,0.6-0.2,0.9c-0.7,1.7-0.5,3,0,4.8c0.3,1.2,0.1,2.2-0.5,2.9c7.5,5,15.1,10.1,22.9,14.7c1.6,0.9,1.9,2.5,1.5,3.8
	c3.6,2.3,0.1,8.1-3.7,5.9c-7.5-4.3-14.2-9.5-21.2-14.4V384h64v-64H398.6z"/>
<path class="st0" d="M320.2,348.6c7.4-5.3,14.8-10.5,22.3-15.7c0.1-0.4,0.2-0.7,0.4-1.1c1.9-3.2,4.3-6.2,6.9-9
	c-0.7-0.7-1-1.8-0.9-2.9h-61v64h64v-49c-9.5,6.4-18.9,13-28.2,19.7C320.1,357.3,316.6,351.3,320.2,348.6z"/>
<path class="st0" d="M187.6,320c-0.1,2.7-0.1,5.3-0.1,8c0,3.1-3.3,4.1-5.3,2.9c0.5,7.7,0.8,15.4,1,23.1c0.1,4.5-6.9,4.5-7,0
	c-0.2-9.5-0.7-18.9-1.4-28.3c-1.8,0.9-4.4,0.1-5.1-2.2c-1.9,1.8-3.8,3.6-5.7,5.5c-0.4,1-0.8,2.1-1.2,3.1c0.1,0.1,0.2,0.2,0.3,0.3
	c1.2-0.5,2.9-0.2,3.7,0.8c3.6,4.1,4,9.2,2.7,14.5c-0.2,4.6-1.7,9.3-4,13.6c2.6-1.7,6.4,0.2,5.5,3.6c-0.9,3.3-2.2,6.6-3.9,9.7
	c3.2-2.6,7.8,2.1,4.7,5.2c-1.4,1.4-2.8,2.8-4.2,4.2H224v-64L187.6,320L187.6,320z"/>
<path class="st0" d="M171.4,240.3c-0.1,0.4-0.2,0.8-0.4,1.2c0.3,1.5,0.5,3,0.8,4.5c0.4,0.6,0.5,1.3,0.4,2.1
	c0.7,4.3,1.5,8.5,2.1,12.8c0-0.9-0.1-1.8-0.1-2.6c-0.2-4.4-0.3-8.8-1.1-13.1c-0.7-3.9-2.1-7.7-2.9-11.6c-0.1-0.5-0.2-1-0.2-1.5
	c-0.3,0-0.5,0.1-0.8,0c0.3,1.5,0.6,3,0.8,4.5C171.2,237.3,171.8,238.6,171.4,240.3z"/>
<path class="st0" d="M180,237.4c-0.6,0-1.1-0.1-1.6-0.3c0.4,1.3,0.8,2.6,1.1,4C179.7,239.8,179.8,238.6,180,237.4z"/>
<path class="st0" d="M164.6,278.3c1-1.9,2-3.8,3-5.7c0.3-0.5,0.6-0.9,1-1.1c-0.1-0.7-0.2-1.4-0.3-2.2c-1,2.8-2.2,5.6-3.5,8.3
	C164.8,277.8,164.7,278,164.6,278.3z"/>
<path class="st0" d="M193.7,224c-1.1,21.4-3.2,42.7-4.6,64H224v-64H193.7z"/>
<path class="st0" d="M75.4,324.6c-0.8,3.8-2.8,7-5.3,9.9c0.4,1.1,0.6,2.3,0.8,3.5c1.5-1.2,2.8-2.4,3.8-3.2c1.8-1.5,3.6-3.1,5.3-4.7
	c-0.8-0.2-1.6-0.7-2-1.6c-0.8-1.9-1.6-3.7-2.3-5.6c-0.1,0.3-0.2,0.5-0.2,0.8C75.5,323.9,75.5,324.2,75.4,324.6z"/>
<path class="st0" d="M102.3,370.6c-0.9-4.4,5.8-6.3,6.7-1.9c1,4.6,2.7,8.8,4.9,12.8c2.4-3.6,5.8-6.9,8.2-9.3
	c0.9-0.9,1.7-1.7,2.6-2.6c-0.8-0.8-1.3-2-0.8-3.3c0.9-2.5,1.9-4.9,2.9-7.4c-1.7,1.7-3.5,3.3-5.5,4.7c-2.6,1.9-5.8-1.2-5.1-4
	c1.2-5.1,2.8-10.2,4.7-15.1c0.6-3.4,1.6-6.8,2.7-10.1c-0.3,0-0.5,0-0.8,0c-1.2,1.9-4.5,2.8-6.3,0.3c-1.4-2-2.8-3.9-4.2-5.9
	c-2.1-0.6-4-1.7-5.6-3.4c-0.1-0.2-0.3-0.3-0.4-0.5c-0.6,0.2-1.3,0.3-2.1,0c-1.2-0.4-2.1-1-3-1.6c-1.1,1-2.6,1.3-3.9,0.7
	c-0.8,1.3-1.7,2.5-2.7,3.7c-1.9,2.4-6,0.3-6-2.5c0-0.6,0-1.3,0.1-2c-0.2,0-0.5,0.1-0.7,0.1c0,0.3,0,0.7,0,1c0,2.2-1.6,3.3-3.3,3.4
	c2.2,0.7,3.7,3.7,1.6,5.8c-3.7,3.7-7.7,7.2-12,10.2c-1,0.7-2.2,1.6-3.5,2.3c-0.3,2.9-0.7,5.6-1.2,7.8c1.2-0.4,2.4-0.8,3.7-1.2
	c1.6-0.5,3.1,0.4,3.9,1.7c1.8-0.1,3.6-0.3,5.4-0.7c3.8-0.9,6.2,4.4,2.7,6.4c-2.2,1.3-4.4,2.5-6.7,3.6c3.3,3.5,6.9,6.7,10.5,9.9
	c-0.5-2.6,2.8-5.4,5.2-3.6c4.5,3.3,8.3,7.3,11.7,11.6C104.4,378.1,103.1,374.5,102.3,370.6z"/>
<path class="st0" d="M67.6,322.9c0.1-0.5,0.1-0.9,0.2-1.4c-0.2-0.2-0.3-0.4-0.5-0.6c-0.2,0.5-0.4,1-0.6,1.5
	c-0.1,0.6-0.2,1.2-0.4,1.8C66.8,323.7,67.2,323.3,67.6,322.9z"/>
<path class="st0" d="M70.5,375.5c1.1,0.6,2.2,1.3,3.2,2.1c0.6,0,1.2,0.1,1.8,0.1c2.3-0.6,4.6-0.8,6.9-1c-3.5-3.2-6.9-6.4-10.1-9.9
	c-0.7,0.3-1.4,0.7-2.1,1C72.2,370.7,72,373.3,70.5,375.5z"/>
<path class="st0" d="M344.3,239.5c-1.5-0.6-2.4-2.1-2.5-3.6c-2.5-1.4-3-5.6,0.5-6.3c-0.3-0.3-0.5-0.6-0.7-0.9
	c-4.8-0.3-9.6-0.9-14.3-1.9c3.9,5,7.8,10,11.7,15c2-0.4,4-0.6,5.8-0.9C344.6,240.5,344.4,240,344.3,239.5z"/>
<path class="st0" d="M310.8,269.5c5.7,5.7,11.7,11.2,17.7,16.6c0.1-0.2,0.2-0.4,0.4-0.5c-1.7-2.9,1.4-7.3,4.5-4.9
	c4,3.1,8.7,4.9,13,7.4h5.5v-18.4c-2.7-3.5-5.4-7-8.1-10.5c-1.5-1.9-2.9-3.7-4.4-5.6c-3-0.5-6-1.3-8.7-2.2c-2.9-0.9-3.4-4.8-0.8-6.4
	c0.6-0.4,1.3-0.7,2-1.1c-5.2-6.6-10.3-13.2-15.4-19.9H288v64h32.1c-4.9-4.4-9.6-8.9-14.3-13.5C302.7,271.3,307.6,266.3,310.8,269.5z
	"/>
<path class="st0" d="M113.5,449.7c1.6,0.8,2.8,2.3,3.7,0.5c0.9-1.8-0.7-3-2.1-4.2c-2.9-2.7-6.3-5.2-9.9-7.5c-0.5,1.7-2,3-4.1,2.3
	c-1.4-0.4-2.7-0.8-4.1-1.3c-0.3,0.2-0.6,0.4-1,0.6v0.7c2,1.1,4.1,2.2,6.1,3.3C105.9,446,109.7,447.8,113.5,449.7z"/>
<path class="st0" d="M138.1,416c7.2,10.3,14.4,20.6,21.6,30.9c2.6,3.7-3.5,7.2-6,3.5c-7.1-10.1-14-20.3-21.1-30.4
	c-1.2,1.2-2.5,2.5-3.7,3.7c-3.2,3.2-8.1-1.8-4.9-4.9c0.2-0.2,0.4-0.4,0.6-0.6c-0.8-0.5-1.5-1.1-2.2-1.7c-0.2,0.5-0.4,0.9-0.8,1.2
	c1.3,1.5,1.4,3.9-0.4,5.1c1.9,3.1,2.9,6.5,2,10.1c-0.6,2.1-3.2,3.3-5.1,2.1c-1.2-0.7-2.3-1.5-3.4-2.3c-1,0.5-2.2,0.5-3.3,0
	c-3.1-1.5-5.7-4-8.2-6.5c-1.5,0.2-2.9,0.5-4.4,0.7c5.7,2.7,10.9,6.3,16.2,10c4.6,3.3,10.9,7.7,10.2,14.1c-0.8,6.9-7,8.6-12.5,6
	c-5.5-2.7-11-5.4-16.5-8.3V480h96v-64H138.1z"/>
<path class="st0" d="M320.2,348.6c7.4-5.3,14.8-10.5,22.3-15.7c0.1-0.4,0.2-0.7,0.4-1.1c1.9-3.2,4.3-6.2,6.9-9
	c-0.7-0.7-1-1.8-0.9-2.9h-61v64h64v-49c-9.5,6.4-18.9,13-28.2,19.7C320.1,357.3,316.6,351.3,320.2,348.6z"/>
<path class="st0" d="M440.1,231.3c0,3.4-0.2,6.8-0.6,10.1c-0.5,4.4-7.5,4.5-7,0c0.3-2.4,0.5-4.9,0.6-7.4c-1.5,0.9-3.7,0.8-4.8-1.2
	c-0.9-1.6-1.7-3.3-2.6-4.9c0.8,4.6,1.1,9.3,0.8,14.1c-0.3,4.1-5.5,4.6-6.9,0.9c-1.9-5-3.8-9.9-5.7-14.9c-2.9,0.2-5.9-0.1-8.9-0.5
	c0.1,1.4-0.5,2.8-1.6,3.5c-2.9,1.7-6.4,2.9-10.1,3.7c-0.2,0.7-0.7,1.5-1.5,2c-0.5,0.3-1.1,0.7-1.6,1c0.9,1.3,0.9,3.3-0.4,4.5
	c-1.2,1.2-2.6,2-4.1,2.7c0.4,1,0.8,1.9,1.1,2.9c1.4,0.1,2.7,1.4,3.3,2.6c0.7,1.6,1.1,3.1,1.2,4.7c0.2,0.4,0.3,0.9,0.2,1.5
	c-0.1,1.5-0.4,2.8-0.8,4.3c-0.3,1.1-1,1.8-1.8,2.2c-0.6,0.9-1.2,1.7-1.9,2.6c0.7,2.3,0.7,4.6-0.4,6.8c-0.6,1.2-1.4,2.1-2.3,2.8
	c2.9,1.2,5.7,2.9,8.1,4.4c3,1.8,1.7,6.5-1.8,6.5c-2.2,0-4.4,0.1-6.7,0.3v1.5h12.6c3.2-2.5,6.8-4.4,10.4-5.7c0.9-0.3,1.8-0.2,2.5,0.2
	c0.8-0.4,1.6-0.8,2.4-1.2c3.1-1.5,5.9,1.7,5.2,4.2c2.1-1.3,4.3-2.6,6.5-3.8c3.9-2.3,7.4,3.8,3.5,6c-0.2,0.1-0.3,0.2-0.5,0.3H448
	v-49.2C445.4,236.3,442.7,233.8,440.1,231.3z"/>
<rect x="320" y="416" class="st0" width="96" height="64"/>
<path class="st0" d="M398.6,320c3.5,4.7,7,9.5,10.4,14.2c2.7,3.6-3.4,7.1-6,3.5c-4.3-5.9-8.7-11.9-13-17.8h-4.7
	c0,0.3-0.1,0.6-0.2,0.9c-0.7,1.7-0.5,3,0,4.8c0.3,1.2,0.1,2.2-0.5,2.9c7.5,5,15.1,10.1,22.9,14.7c1.6,0.9,1.9,2.5,1.5,3.8
	c3.6,2.3,0.1,8.1-3.7,5.9c-7.5-4.3-14.2-9.5-21.2-14.4V384h64v-64H398.6z"/>
<path class="st0" d="M400.7,320v0.9H385l0,0c-0.7,1.7-0.5,3,0,4.8c0.3,1.2,0.1,2.2-0.5,2.9c7.5,5,15.1,10.1,22.9,14.7
	c1.6,0.9,1.9,2.5,1.5,3.8c3.6,2.3,0.1,8.1-3.7,5.9c-7.5-4.3-14.2-9.5-21.2-14.4V384h64v-64H400.7z"/>
<path class="st0" d="M320.2,348.6c7.4-5.3,14.8-10.5,22.3-15.7c0.1-0.4,0.2-0.7,0.4-1.1c1.9-3.2,4.3-6.2,6.9-9
	c-0.5-0.5-0.8-1.2-0.9-2h-4.1V320H288v64h64v-49c-9.5,6.4-18.9,13-28.2,19.7C320.1,357.3,316.6,351.3,320.2,348.6z"/>
<rect x="320" y="416" class="st0" width="96" height="64"/>
<path d="M480,480V267.9c-8.4-7.3-16.7-14.7-24.8-22.3c-2.4-2.2-4.8-4.5-7.2-6.8V288h-21.4c-8.7,5.1-17.3,10.3-25.9,15.6V320H448v64
	h-64v-45.4c-0.7-0.5-1.4-1-2.2-1.5c-5.5-3.7-11.1-7.2-16.4-11.1c-4.5,3-9,6-13.4,9v49h-64v-64h56.9v-10.9
	c-8.5-6.8-16.8-13.8-24.8-21.1H288v-64h28.5c-0.5-0.7-1-1.3-1.6-2c-4.6-6-9.1-12.2-13.6-18.2c-2.9-3.9-5.8-7.7-8.4-11.7h-90.3
	c-2.7,1.6-5.3,3.1-8,4.7c0,9.1-0.3,18.2-0.8,27.3H224v64h-34.9c-0.7,10.7-1.3,21.3-1.5,32H224v64h-56.4
	c-10.2,10.2-20.1,20.7-30.2,31c0.2,0.3,0.5,0.6,0.7,1H192v64H96v-31.3c-2.9-1.5-5.8-3.1-8.6-4.7c-2.2-1.3-4.4-2.6-6.6-3.9
	c-16.2,2.6-32.5,5-48.8,7.3V480H0v32h512v-32H480z M416,480h-96v-64h96V480z"/>
<g>
	<title>Fichier 7</title>
	<g id="Calque_2_2_">
		<g id="OBJECTS_1_">
			<path class="st1" d="M422.8,313.5c0,0,4.5,30.2-28.9,44.5c0,0-31.5,7.8-30.6,35.8c0,0-12.4-19.5,1.1-51.2
				c0,0-37.3,31.3-29.5,69.1c-3.1-5.7-9.9-12.2-25.2-12.2c0,0,15.2,5.8,13.2,24.8c0,0-6.9,44.6,49.8,62.9c0,0,52-19.6,48.9-69.2
				c0,0-12.7,19.4-23.4,20.8c0,0,0.9-18.1,27.2-40.6C425.4,398.2,462.5,362.3,422.8,313.5z"/>
			<path class="st2" d="M387.8,462.2c0,0-7.7-19.7,2.3-31.5c0,0,22.6-23.5,3.9-39.9c0,0,6,13.5-12.1,23.3c0,0-15,5.5-14.4,21.8
				c0,0-7.2-11.4,0.7-29.9c0,0-21.8,18.3-17.2,40.4c-1.8-3.4-5.8-7.1-14.7-7.1c0,0,8.9,3.4,7.7,14.5c-0.8,8.9,2.2,17.8,8.4,24.3
				c6.5,3.9,13.4,6.9,20.5,9.2c7.4-3.1,14.5-7.2,20.8-12.1c5.7-7.1,8.5-16,7.9-25.1C401.5,450,394,461.4,387.8,462.2z"/>
			<path class="st3" d="M380,483.8c3-3.4,4.5-7.8,4.1-12.3c0,0-3.5,5.3-6.4,5.7c0,0-3.6-9.3,1.1-14.8c0,0,8.5-10.3-0.5-20.8
				c0,0,4.1,9.2-4.7,12.8c0,0-5.7,2.8-5.4,10.5c0,0-3.4-5.4,0.3-14.1c0,0-10.3,8.6-8.1,19c-0.8-1.6-2.7-3.4-6.9-3.4
				c2.6,1.2,4.1,4,3.6,6.8c-0.3,3,0.4,5.9,1.8,8.5c4.5,2.2,9.1,4,13.8,5.6C375.2,486.2,377.7,485,380,483.8z"/>
		</g>
	</g>
</g>
<g>
	<title>Fichier 10</title>
	<g id="Calque_2_3_">
		<g id="OBJECTS_2_">
			<path class="st1" d="M349,327.9c0,0-2.5,11.2-6.5,15.4c0,0,5.1-14.7-13.2-32.9c0,0-9.3-5.5-2-23.3c0,0,7.2-13.6-7.5-29.9
				c0,0,2,20.2-19.9,31.6c0,0-21.3,13.2-13.8,38.2c0,0-7.9-6.4-7-18.5c0,0-34.2,50.3,32.1,79.3C311.2,387.9,353.5,375.6,349,327.9z"
				/>
			<path class="st2" d="M329.4,365c0,0,2.9-8.2-7.4-18.4c0,0-5.2-3.1-1.1-13c0,0,4-7.6-4.2-16.7c0,0,1.1,11.3-11.1,17.7
				c0,0-11.9,7.4-7.7,21.3c-2.9-2.7-4.3-6.5-3.9-10.3c0,0-13.2,19.4,3.6,35.2c4.3,2.7,8.9,5,13.6,7c5.4-1.8,10.4-4.4,15-7.7
				c4.4-5.2,7.9-12.8,6.8-23.8C333,356.4,331.6,362.6,329.4,365z"/>
			<path class="st3" d="M320.8,383.6c2.7-3.3,4.8-8,4.2-14.9c0,0-0.9,3.9-2.3,5.4c0,0,1.8-5.2-4.6-11.6c0,0-3.3-1.9-0.7-8.2
				c0,0,2.5-4.8-2.6-10.5c0,0,0.7,7.1-7,11.1c0,0-7.5,4.6-4.9,13.4c-1.8-1.7-2.7-4.1-2.5-6.5c0,0-7.8,11.4,1.3,21.2
				c2.9,1.6,6.1,3.2,9.6,4.7C314.5,386.8,317.8,385.4,320.8,383.6z"/>
		</g>
	</g>
</g>
</svg>
