<?xml version="1.0" encoding="utf-8"?>
<!-- Generator: Adobe Illustrator 22.0.1, SVG Export Plug-In . SVG Version: 6.00 Build 0)  -->
<svg version="1.1" id="Layer_1" xmlns="http://www.w3.org/2000/svg" xmlns:xlink="http://www.w3.org/1999/xlink" x="0px" y="0px"
	 viewBox="0 0 512 512" style="enable-background:new 0 0 512 512;" xml:space="preserve">
<style type="text/css">
	.st0{fill:none;}
</style>
<rect x="96" y="416" class="st0" width="96" height="64"/>
<rect x="64" y="320" class="st0" width="64" height="64"/>
<rect x="160" y="320" class="st0" width="64" height="64"/>
<rect x="160" y="224" class="st0" width="64" height="64"/>
<path class="st0" d="M92.4,34.5c-0.1,0.1-0.2,0.3-0.3,0.4c0.2,0.3,0.3,0.6,0.5,0.9c1.7-0.2,3.5-0.4,5.2-0.5c0.5,0,0.9,0,1.3,0
	c-0.1-0.1-0.2-0.2-0.3-0.3c-0.3-0.4-0.7-0.7-1-1.1C96,34.6,94.1,34.9,92.4,34.5z"/>
<path class="st0" d="M81.5,90.4c0.8,0.7,1.4,1.7,1.7,2.8c0.9,0.1,1.8,0.4,2.6,1c-1.2-4-2.4-8-3.6-12c-0.5,0.3-1,0.5-1.5,0.8
	C83.3,84.6,83.5,88.2,81.5,90.4z"/>
<path class="st0" d="M109.9,32c1.6,1.5,3.1,3.1,4.3,5.1c1.7,2.9,0.1,6.3-3,7.3c-4,1.3-7.6,0.8-11.8,0.8c-3.5,0-6.9,0.7-10.3,0.9
	c-1.9,0.1-3.9,0.2-5.9,0.2c-0.3,0.5-0.8,1-1.3,1.4c0.4,1.1,0.7,2.3,1.1,3.4c6.9,2,13.6,4.3,19.5,8c4.5,2.8,2.3,8.8-2.5,9.3
	c-0.8,0.1-1.5,0.1-2.3,0.2c-0.5,1.9-1.5,3.7-3.3,5.3c-1,0.9-2.2,1.7-3.5,2.4c2,6.6,3.9,13.1,5.8,19.7H128V32H109.9z"/>
<path class="st0" d="M105.6,128c2.3,8.7,4.5,17.4,6.7,26.2c1.6,6.3-8.1,8.9-9.6,2.7c-2.1-8.3-4.2-16.6-6.4-24.9
	c-1.1,1.3-2,2.7-3,4.1c-3.5,5.2-11.8,0.6-8.8-4.7c-0.3,0-0.6-0.1-0.9-0.1c-3.3-0.7-6-2.7-9.5-2.2c-0.6,0.1-1.2,0-1.7-0.2
	c-0.8,1.1-2,2-3.3,2.4c1.5,0.5,2.9,0.9,4,1.4c3.8,1.7,2.9,8.5-1.2,9.1c-1.3,0.2-2.7,0.4-4,0.5c0.2,2.3-1,4.4-3.1,5.2
	c-0.1,0.7-0.3,1.4-0.7,2.1c9.7,0.4,19.4,1.4,28.8,4.1c1.2,0.3,2.1,1,2.7,1.8c0.2,0,0.3,0,0.5,0c6.4-0.1,6.4,9.9,0,10
	c-10.7,0.2-21.3,0.7-32,1.3V192h64v-64H105.6z"/>
<rect x="64" y="224" class="st0" width="64" height="64"/>
<rect x="160" y="128" class="st0" width="64" height="64"/>
<rect x="384" y="320" class="st0" width="64" height="64"/>
<rect x="384" y="224" class="st0" width="64" height="64"/>
<rect x="288" y="224" class="st0" width="64" height="64"/>
<path class="st0" d="M216.9,51.8c-3.1-2.8-7.2-5.7-9-9.5c-0.5-1.1-0.7-2.2-0.5-3.3c-0.2-0.2-0.4-0.3-0.5-0.5
	c-0.3-0.3-0.5-0.7-0.7-1.1c-3.2-0.8-6.5-1.8-9.7-2.7c-0.3,1.5-0.6,3-1.1,4.5c-1.6,5.4-10,4.4-9.8-1.3c0-1.9,0-3.9,0.1-5.8H160v64h64
	V58.3C221.6,56.1,219.2,54,216.9,51.8z"/>
<rect x="320" y="416" class="st0" width="96" height="64"/>
<rect x="288" y="320" class="st0" width="64" height="64"/>
<path d="M480,480V192H256V86.1c-0.8-0.7-1.7-1.4-2.6-2.1c-8.4-7-16.6-14.2-24.8-21.5c-1.5-1.4-3.1-2.8-4.6-4.2V96h-64V32h25.6
	c0.1-2.2,0.2-4.5,0.7-6.7h-82.6c0,0.2,0,0.3,0.1,0.5c1.1,1.1,2.2,2.2,3.3,3.4c1,1,2,1.9,2.9,2.8H128v64H96.8c3.1,10.6,6,21.3,8.9,32
	H128v64H64v-25.2c-10.7,0.6-21.3,1.4-32,2.3V480H0v32h512v-32H480z M64,224h64v64H64V224z M64,320h64v64H64V320z M192,480H96v-64h96
	V480z M224,384h-64v-64h64V384z M224,288h-64v-64h64V288z M224,192h-64v-64h64V192z M288,224h64v64h-64V224z M288,320h64v64h-64V320
	z M416,480h-96v-64h96V480z M448,384h-64v-64h64V384z M448,288h-64v-64h64V288z"/>
</svg>
