<?xml version="1.0" encoding="utf-8"?>
<!-- Generator: Adobe Illustrator 22.0.1, SVG Export Plug-In . SVG Version: 6.00 Build 0)  -->
<svg version="1.1" id="Layer_1" xmlns="http://www.w3.org/2000/svg" xmlns:xlink="http://www.w3.org/1999/xlink" x="0px" y="0px"
	 viewBox="0 0 512 512" style="enable-background:new 0 0 512 512;" xml:space="preserve">
<style type="text/css">
	.st0{fill:none;}
	.st1{fill:#F15A24;}
	.st2{fill:#F7931E;}
	.st3{fill:#FCEE21;}
</style>
<rect x="96" y="416" class="st0" width="96" height="64"/>
<rect x="64" y="320" class="st0" width="64" height="64"/>
<path class="st0" d="M187.6,320c-0.1,2.7-0.1,5.3-0.1,8c0,3.1-3.3,4.1-5.3,2.9c0.5,7.7,0.8,15.4,1,23.1c0.1,4.5-6.9,4.5-7,0
	c-0.2-9.5-0.7-18.9-1.4-28.3c-2,1-5-0.1-5.3-3c-0.1-0.9-0.1-1.8-0.2-2.7H160v64h64v-64H187.6z"/>
<path class="st0" d="M169.4,276.5c-2.2-15.3-4.8-30.5-7.7-45.6c-0.3-1.5-0.6-3-0.9-4.4c-0.3-0.2-0.6-0.4-0.8-0.6V288h9
	C169.1,284.2,169.3,280.3,169.4,276.5z"/>
<path class="st0" d="M180,237.4c-0.6,0-1.1-0.1-1.6-0.3c0.4,1.3,0.8,2.6,1.1,4C179.7,239.8,179.8,238.6,180,237.4z"/>
<path class="st0" d="M174.2,258.3c-0.2-4.4-0.3-8.8-1.1-13.1c-0.7-3.9-2.1-7.7-2.9-11.6c-0.1-0.5-0.2-1-0.2-1.5
	c-0.3,0-0.5,0.1-0.8,0c1.8,9.6,3.5,19.2,5.1,28.8C174.3,260,174.3,259.1,174.2,258.3z"/>
<path class="st0" d="M193.7,224c-1.1,21.4-3.2,42.7-4.6,64H224v-64H193.7z"/>
<path class="st0" d="M81.5,90.4c0.8,0.7,1.4,1.7,1.7,2.8c0.9,0.1,1.8,0.4,2.6,1c-1.2-4-2.4-8-3.6-12c-0.5,0.3-1,0.5-1.5,0.8
	C83.3,84.6,83.5,88.2,81.5,90.4z"/>
<path class="st0" d="M97.5,92.2c0.8-0.3,1.7-0.5,2.6-0.8c2.6-1.4,5.2-2.7,7.5-3.8c2.9-1.4,6.1-2.8,9.4-4.1c0.3-1.8,1-3.5,1.8-5.1
	c-1.9-0.1-3.7-0.2-5.6-0.6c-4.1-0.8-4.7-6.6-1.6-8.9c-0.3,0-0.6-0.1-0.9-0.1c-2.2-0.4-3.4-2.3-3.5-4.3c-0.1,0-0.2,0-0.2,0
	c-0.7,0.1-1.4,0.1-2.2,0.2c-0.6,1.9-2.3,3.6-4.7,3.8c-0.8,0.1-1.5,0.1-2.3,0.2c-0.5,1.9-1.5,3.7-3.3,5.3c-1,0.9-2.2,1.7-3.5,2.4
	c1.7,5.5,3.3,11,4.9,16.4C96.4,92.5,97,92.4,97.5,92.2z"/>
<path class="st0" d="M75.2,135.5c2.9-1,5.9-2,8.8-3c0.1-0.4,0.2-0.7,0.4-1.1c-0.3,0-0.6-0.1-0.9-0.1c-0.7-0.1-1.3-0.3-2-0.6
	c-2.6,0.8-5.3,1.6-7.9,2.4C74.5,133.6,75,134.5,75.2,135.5z"/>
<path class="st0" d="M112.6,153.2c0.1-0.2,0.1-0.4,0.2-0.7c0.7-1.7,2-3.1,3.6-4.2c-0.3-3.6-0.3-7.5,1.6-10.5
	c0.7-1.2,1.9-1.7,3.2-1.7c-2.1-1.2-4.1-2.4-6.1-3.6c-2.5,0.8-5.1,1.7-7.6,2.5c1.6,6.1,3.1,12.1,4.7,18.2
	C112.3,153.3,112.4,153.3,112.6,153.2z"/>
<path class="st0" d="M95.5,155.5c0.2,0,0.3,0,0.5,0c6.4-0.1,6.4,9.9,0,10c-5.4,0.1-10.7,0.3-16,0.5c-0.5,1.2-1.5,2.3-3.1,2.8
	c-4.1,1.2-8.2,2.7-12.2,4.4c0.3,0.6,0.5,1.2,0.5,1.9c0.2,0.5,0.2,1.2,0,1.8s-0.4,1.2-0.6,1.8c0,0.2,0,0.3,0,0.5
	c0.3-0.1,0.6-0.1,0.9-0.1c0.2,0,0.3,0,0.5,0c1.9-0.4,3.8-0.7,5.6-1.2c4.4-0.9,6.3,5.7,1.9,6.7c-2,0.4-3.9,1-5.8,1.3
	c-0.6,1.2-1.3,2.4-1.7,3.7c2.3-0.4,4.6-0.6,6.9-0.1c1.9,0.4,3.6,1.1,5.3,1.9c0.4,0.1,0.8,0.2,1.2,0.3c0.1-0.2,0.1-0.5,0.2-0.7
	c0.5-1.6,1.8-2.4,3.1-2.5c0.4-1.1,0.8-2.1,1.2-3.2c1.7-4.2,7.4-2.6,6.8,1.9c-0.2,1.2-0.4,2.5-0.5,3.7c0.6-0.8,1.6-1.3,2.6-1.3
	c0.3-1,0.7-1.9,1-2.9c0-0.1,0-0.3,0-0.4c0.1-0.9,0.4-1.6,0.8-2.1c0.6-1.8,1.3-3.7,2-5.5c1.4-3.8,6.3-2.8,6.8,0.6
	c0.4-1.1,0.8-2.2,1.2-3.3c0.3-0.9,0.9-1.5,1.5-1.9c0.3-0.8,0.5-1.6,0.8-2.4c1.6-4.2,7.8-2.6,6.8,1.9c-0.8,3.6-1.6,7.3-2.3,10.9
	c0.4,0.4,0.6,0.9,0.7,1.4c0.5-0.3,1.1-0.4,1.7-0.3c0.7-1.5,1.7-2.9,2.9-4.1c0.1-0.4,0.2-0.8,0.4-1.3c0.9-2.8,3.6-7.1,6.7-10.1
	c-0.4-0.7-0.7-1.5-1.1-2.2c-1.7,0.9-3.4,1.8-5.3,2.4c-1.7,0.6-3.9-0.7-4.3-2.4c-0.4-2.2-0.4-4.2,0-6.2c-1.5-0.1-2.9-0.1-4.3-0.2
	c-1.2-0.1-2.1-0.6-2.7-1.3c-1.4-0.4-2.5-1.5-3-3.3c-1.5-6.2-3.1-12.3-4.7-18.4c-0.5,0.2-1,0.4-1.6,0.5c-1.7,0.9-3.4,1.9-5.1,2.8
	c-5.1,2.9-10.3,5.8-15.4,8.8c5.7,0.6,11.3,1.6,16.9,3.2C94.1,154,94.9,154.7,95.5,155.5z"/>
<path class="st0" d="M116.7,252.1c-2.6,3.6-8.7,0.1-6-3.5c2.1-2.9,4.2-5.8,6.4-8.6c-13.9,8.2-27.8,16.5-41.8,24.6
	c2.4,1.8,4.9,3.6,7.5,5.1c1.1,0.6,1.6,1.6,1.7,2.6c0.8,2-0.2,4.8-3,4.9c-0.3,0.8-1,1.5-2,1.8c12.8-0.8,25.6-2.1,38.3-4
	c4.4-0.7,6.3,6.1,1.9,6.7c-14.6,2.2-29.3,3.7-44,4.4c-1.1,0.6-2.2,1.2-3.3,1.9H128v-50.7C124.1,242.1,120.3,247.1,116.7,252.1z"/>
<path class="st0" d="M69.2,260c18-10.4,35.9-21.1,53.9-31.6c-0.7-0.1-1.4-0.4-2-0.9c-0.9,0.6-1.7,1.3-2.6,1.9
	c-2.2,1.5-4.2,0.1-4.9-1.9c-1.5,1-2.9,2-4.4,3c0,0.1-0.1,0.3-0.1,0.4c-0.5,1.8-2.3,2.6-3.9,2.4c-12.4,8.6-24.9,17.1-37.3,25.7
	C68.2,259.3,68.7,259.7,69.2,260z"/>
<path class="st0" d="M93.4,231.1c-3,1.3-6,2.5-9,3.8c-0.1,0.3-0.2,0.7-0.4,1c-0.7,1.8-2.7,2.6-4.4,2.3c-0.5,1.8-1,3.6-1.7,5.3
	c5.5-3.8,10.9-7.5,16.4-11.3C93.9,232,93.6,231.6,93.4,231.1z"/>
<path class="st0" d="M66.8,248.7c0.1-0.7,0.2-1.3,0.3-2c-0.3,0.5-0.7,1-1.1,1.4c0.8,0.8,1.2,2,0.7,3.2l0,0c0.3-0.2,0.5-0.4,0.8-0.5
	C67,250.2,66.7,249.4,66.8,248.7z"/>
<path class="st0" d="M177.8,135c2.1,0.6,4.2,1.3,6.4,1.9c-0.1-0.4-0.1-0.8,0-1.2C182,135.5,179.9,135.3,177.8,135z"/>
<path class="st0" d="M220.3,140.6c-1.2-0.5-2-1.9-2-3.3c-1.5,0-3-0.1-4.4-0.1c-0.5,0.5-0.9,1.1-1.3,1.6c2.7,1.3,5.5,2.4,8.4,3.4
	c-0.1-0.2-0.2-0.4-0.3-0.6C220.5,141.3,220.4,141,220.3,140.6z"/>
<path class="st0" d="M201.8,141c-0.2-0.1-0.4-0.2-0.6-0.4c-1.5-1-1.8-2.5-1.5-3.9c-1.5-0.1-2.9-0.1-4.4-0.2
	c-1.8,0.7-3.6,1.4-5.3,2.1c3.7,1.1,7.3,2.2,11,3.3C201.3,141.7,201.6,141.4,201.8,141z"/>
<path class="st0" d="M184.3,162.3c-3.4-1.1-6.8-2.3-10.1-3.4c-2.6,2.8-5.3,5.5-8.1,8.1c0.8-0.3,1.6-0.6,2.4-0.8
	c1.7-0.3,4,0.5,4.3,2.4c0.5,3-0.1,5.7-1.3,8.2C175.7,172.1,180,167.2,184.3,162.3z"/>
<path class="st0" d="M174.7,141.4c-0.4,1.3-0.8,2.7-1.4,4c1.3,1.8,0.1,4.4-1.8,5.2c0.2,0.1,0.4,0.1,0.5,0.2c1.8-2,3.7-3.9,5.5-5.9
	c3.1-3.3,8,1.7,4.9,4.9c-1,1.1-2.1,2.3-3.2,3.5c3.3,1.1,6.6,2.2,9.9,3.3c0.2-0.2,0.4-0.5,0.6-0.7c2.2-2.7,4.4-5.3,6.6-8.1
	C189.2,145.7,181.9,143.5,174.7,141.4z"/>
<path class="st0" d="M200.4,154c2.2-1,4.4-2,6.5-2.9c-1.1-0.3-2.2-0.7-3.3-1C202.5,151.4,201.4,152.7,200.4,154z"/>
<path class="st0" d="M217.8,154.5c-3.2,2.2-6.4,4.5-9.5,6.7c-12.1,8.6-24.3,17.1-36.5,25.7c-1,1.1-2,2.2-2.9,3.3
	c-0.6,0.6-1.1,1.2-1.7,1.9h1c5.9-2.5,11.9-5,17.8-7.6c0.2-0.1,0.4-0.2,0.6-0.4c0.7-0.5,1.5-0.9,2.2-1.4c0.9-0.6,1.7-0.7,2.4-0.5
	c3-1.3,5.9-2.5,8.9-3.8c2.9-1.2,5.5,1.4,5.3,3.7c3.8-2.4,7.3,3.7,3.5,6.1c-2.2,1.4-4.4,2.7-6.6,4H224v-35.6
	C221.9,155.8,219.9,155.1,217.8,154.5z"/>
<path class="st0" d="M195,129.3c1.1-0.4,2.2-0.9,3.3-1.3h-18.4C184.9,128.6,189.9,129,195,129.3z"/>
<rect x="384" y="320" class="st0" width="64" height="64"/>
<rect x="384" y="224" class="st0" width="64" height="64"/>
<rect x="288" y="224" class="st0" width="64" height="64"/>
<path class="st0" d="M173.8,87.6c2.7-1.3,5.5-2.6,8.2-4c-2.1,0-4.2,0-6.3-0.1C175.2,85,174.6,86.3,173.8,87.6z"/>
<path class="st0" d="M162,84c-0.2,0.3-0.5,0.5-0.7,0.7c0.6,0.2,1.2,0.2,1.7,0c0.6-0.2,1.2-0.9,1.8-1.7c-0.4,0-0.9,0-1.3-0.1
	c-0.2,0-0.5-0.1-0.7-0.1C162.6,83.3,162.4,83.7,162,84z"/>
<path class="st0" d="M171.5,55.8c-3.4,1.8-6.9,3.2-10.5,4.3c0,0.1,0.1,0.1,0.1,0.2c1,0.7,1.9,1.5,2.9,2.3c2.4-0.2,4.2,1.3,4.9,3.1
	c0.3,0.1,0.6,0.3,0.9,0.4c2.3,0.2,4.5,0.5,6.7,1c0.7,0,1.5-0.1,2.2-0.1c5.1-1.8,9.5-5.4,14.7-7c9.5-3,19.3-2.9,29.1-2.9
	c-1.9-1.7-3.8-3.5-5.7-5.2c-3.1-2.8-7.2-5.7-9-9.5c-0.5-1.1-0.7-2.2-0.5-3.3c-0.2-0.2-0.4-0.3-0.5-0.5c-0.3-0.3-0.5-0.7-0.7-1.1
	c-3.2-0.8-6.5-1.8-9.7-2.7c-0.3,1.5-0.6,3-1.1,4.5c-1.2,3.9-6,4.4-8.4,2.2c-7.4,1.5-14.8,2.7-22.2,3.8c-0.1,0.1-0.2,0.2-0.3,0.3
	c2,0.3,4,0.7,6,1.3C174.4,47.8,175.4,53.8,171.5,55.8z"/>
<rect x="320" y="416" class="st0" width="96" height="64"/>
<rect x="288" y="320" class="st0" width="64" height="64"/>
<rect x="64" y="320" class="st0" width="64" height="64"/>
<rect x="96" y="416" class="st0" width="96" height="64"/>
<path class="st0" d="M187.6,320c-0.1,2.7-0.1,5.3-0.1,8c0,3.1-3.3,4.1-5.3,2.9c0.5,7.7,0.8,15.4,1,23.1c0.1,4.5-6.9,4.5-7,0
	c-0.2-9.5-0.7-18.9-1.4-28.3c-2,1-5-0.1-5.3-3c-0.1-0.9-0.1-1.8-0.2-2.7H160v64h64v-64H187.6z"/>
<path class="st0" d="M184.1,135.7c-2.1-0.2-4.2-0.4-6.3-0.7c2.1,0.6,4.2,1.3,6.4,1.9C184.1,136.5,184.1,136.1,184.1,135.7z"/>
<path class="st0" d="M220.3,140.6c-1.2-0.5-2-1.9-2-3.3c-1.5,0-3-0.1-4.4-0.1c-0.5,0.5-0.9,1.1-1.3,1.6c2.7,1.3,5.5,2.4,8.4,3.4
	c-0.1-0.2-0.2-0.4-0.3-0.6C220.5,141.3,220.4,141,220.3,140.6z"/>
<path class="st0" d="M184.3,162.3c-3.4-1.1-6.8-2.3-10.1-3.4c-2.6,2.8-5.3,5.5-8.1,8.1c0.8-0.3,1.6-0.6,2.4-0.8
	c1.7-0.3,4,0.5,4.3,2.4c0.5,3-0.1,5.7-1.3,8.2C175.7,172.1,180,167.2,184.3,162.3z"/>
<path class="st0" d="M174.7,141.4c-0.4,1.3-0.8,2.7-1.4,4c1.3,1.8,0.1,4.4-1.8,5.2c0.2,0.1,0.4,0.1,0.5,0.2c1.8-2,3.7-3.9,5.5-5.9
	c3.1-3.3,8,1.7,4.9,4.9c-1,1.1-2.1,2.3-3.2,3.5c3.3,1.1,6.6,2.2,9.9,3.3c0.2-0.2,0.4-0.5,0.6-0.7c2.2-2.7,4.4-5.3,6.6-8.1
	C189.2,145.7,181.9,143.5,174.7,141.4z"/>
<path class="st0" d="M200.4,154c2.2-1,4.4-2,6.5-2.9c-1.1-0.3-2.2-0.7-3.3-1C202.5,151.4,201.4,152.7,200.4,154z"/>
<path class="st0" d="M217.8,154.5c-3.2,2.2-6.4,4.5-9.5,6.7c-12.1,8.6-24.3,17.1-36.5,25.7c-1,1.1-2,2.2-2.9,3.3
	c-0.6,0.6-1.1,1.2-1.7,1.9h1c5.9-2.5,11.9-5,17.8-7.6c0.2-0.1,0.4-0.2,0.6-0.4c0.7-0.5,1.5-0.9,2.2-1.4c0.9-0.6,1.7-0.7,2.4-0.5
	c3-1.3,5.9-2.5,8.9-3.8c2.9-1.2,5.5,1.4,5.3,3.7c3.8-2.4,7.3,3.7,3.5,6.1c-2.2,1.4-4.4,2.7-6.6,4H224v-35.6
	C221.9,155.8,219.9,155.1,217.8,154.5z"/>
<path class="st0" d="M201.8,141c-0.2-0.1-0.4-0.2-0.6-0.4c-1.5-1-1.8-2.5-1.5-3.9c-1.5-0.1-2.9-0.1-4.4-0.2
	c-1.8,0.7-3.6,1.4-5.3,2.1c3.7,1.1,7.3,2.2,11,3.3C201.3,141.7,201.6,141.4,201.8,141z"/>
<path class="st0" d="M93.4,231.1c-3,1.3-6,2.5-9,3.8c-0.1,0.3-0.2,0.7-0.4,1c-0.7,1.8-2.7,2.6-4.4,2.3c-0.5,1.8-1,3.6-1.7,5.3
	c5.5-3.8,10.9-7.5,16.4-11.3C93.9,232,93.6,231.6,93.4,231.1z"/>
<path class="st0" d="M66.8,248.7c0.1-0.7,0.2-1.3,0.3-2c-0.3,0.5-0.7,1-1.1,1.4c0.8,0.8,1.2,2,0.7,3.2l0,0c0.3-0.2,0.5-0.4,0.8-0.5
	C67,250.2,66.7,249.4,66.8,248.7z"/>
<path class="st0" d="M69.2,260c18-10.4,35.9-21.1,53.9-31.6c-0.7-0.1-1.4-0.4-2-0.9c-0.9,0.6-1.7,1.3-2.6,1.9
	c-2.2,1.5-4.2,0.1-4.9-1.9c-1.5,1-2.9,2-4.4,3c0,0.1-0.1,0.3-0.1,0.4c-0.5,1.8-2.3,2.6-3.9,2.4c-12.4,8.6-24.9,17.1-37.3,25.7
	C68.2,259.3,68.7,259.7,69.2,260z"/>
<path class="st0" d="M116.7,252.1c-2.6,3.6-8.7,0.1-6-3.5c2.1-2.9,4.2-5.8,6.4-8.6c-13.9,8.2-27.8,16.5-41.8,24.6
	c2.4,1.8,4.9,3.6,7.5,5.1c1.1,0.6,1.6,1.6,1.7,2.6c0.8,2-0.2,4.8-3,4.9c-0.3,0.8-1,1.5-2,1.8c12.8-0.8,25.6-2.1,38.3-4
	c4.4-0.7,6.3,6.1,1.9,6.7c-14.6,2.2-29.3,3.7-44,4.4c-1.1,0.6-2.2,1.2-3.3,1.9H128v-50.7C124.1,242.1,120.3,247.1,116.7,252.1z"/>
<path class="st0" d="M180,237.4c-0.6,0-1.1-0.1-1.6-0.3c0.4,1.3,0.8,2.6,1.1,4C179.7,239.8,179.8,238.6,180,237.4z"/>
<path class="st0" d="M174.2,258.3c-0.2-4.4-0.3-8.8-1.1-13.1c-0.7-3.9-2.1-7.7-2.9-11.6c-0.1-0.5-0.2-1-0.2-1.5
	c-0.3,0-0.5,0.1-0.8,0c1.8,9.6,3.5,19.2,5.1,28.8C174.3,260,174.3,259.1,174.2,258.3z"/>
<path class="st0" d="M169.4,276.5c-2.2-15.3-4.8-30.5-7.7-45.6c-0.3-1.5-0.6-3-0.9-4.4c-0.3-0.2-0.6-0.4-0.8-0.6V288h9
	C169.1,284.2,169.3,280.3,169.4,276.5z"/>
<path class="st0" d="M193.7,224c-1.1,21.4-3.2,42.7-4.6,64H224v-64H193.7z"/>
<rect x="320" y="416" class="st0" width="96" height="64"/>
<rect x="384" y="224" class="st0" width="64" height="64"/>
<rect x="288" y="224" class="st0" width="64" height="64"/>
<rect x="384" y="320" class="st0" width="64" height="64"/>
<rect x="288" y="320" class="st0" width="64" height="64"/>
<path class="st0" d="M187.6,320c-0.1,2.7-0.1,5.3-0.1,8c0,3.1-3.3,4.1-5.3,2.9c0.5,7.7,0.8,15.4,1,23.1c0.1,4.5-6.9,4.5-7,0
	c-0.2-9.5-0.7-18.9-1.4-28.3c-2,1-5-0.1-5.3-3c-0.1-0.9-0.1-1.8-0.2-2.7H160v64h64v-64H187.6z"/>
<path class="st0" d="M174.2,258.3c-0.2-4.4-0.3-8.8-1.1-13.1c-0.7-3.9-2.1-7.7-2.9-11.6c-0.1-0.5-0.2-1-0.2-1.5
	c-0.3,0-0.5,0.1-0.8,0c1.8,9.6,3.5,19.2,5.1,28.8C174.3,260,174.3,259.1,174.2,258.3z"/>
<path class="st0" d="M180,237.4c-0.6,0-1.1-0.1-1.6-0.3c0.4,1.3,0.8,2.6,1.1,4C179.7,239.8,179.8,238.6,180,237.4z"/>
<path class="st0" d="M169.4,276.5c-2.2-15.3-4.8-30.5-7.7-45.6c-0.3-1.5-0.6-3-0.9-4.4c-0.3-0.2-0.6-0.4-0.8-0.6V288h9
	C169.1,284.2,169.3,280.3,169.4,276.5z"/>
<path class="st0" d="M193.7,224c-1.1,21.4-3.2,42.7-4.6,64H224v-64H193.7z"/>
<rect x="64" y="320" class="st0" width="64" height="64"/>
<rect x="288" y="224" class="st0" width="64" height="64"/>
<rect x="96" y="416" class="st0" width="96" height="64"/>
<rect x="288" y="320" class="st0" width="64" height="64"/>
<rect x="384" y="224" class="st0" width="64" height="64"/>
<rect x="320" y="416" class="st0" width="96" height="64"/>
<rect x="384" y="320" class="st0" width="64" height="64"/>
<path d="M480,480V192H202.5c-2.7,1.6-5.3,3.1-8,4.7c0,9.1-0.3,18.2-0.8,27.3H224v64h-34.9c-0.7,10.7-1.3,21.3-1.5,32H224v64h-64v-64
	h9.3c-0.9-10.7-0.7-21.3-0.3-32h-9v-62.1c-2.8-1.9-5.4-3.9-8.1-5.9c-3.8,2.1-7.7,4.2-11.4,6.4c-2.3,1.3-4.6,2.6-6.8,4
	c-1.9,2.3-3.8,4.6-5.6,6.9V288H72.3c-12.9,7.2-26.5,12.8-40.3,18.2V480H0v32h512v-32H480z M64,320h64v64H64V320z M192,480H96v-64h96
	V480z M288,224h64v64h-64V224z M288,320h64v64h-64V320z M416,480h-96v-64h96V480z M448,384h-64v-64h64V384z M448,288h-64v-64h64V288
	z"/>
<g>
	<title>Fichier 7</title>
	<g id="Calque_2_2_">
		<g id="OBJECTS_1_">
			<path class="st1" d="M224.9,256c0,0,3.2,24.4-20.7,36c0,0-22.5,6.3-21.8,28.9c0,0-8.8-15.8,0.8-41.4c0,0-26.6,25.3-21.1,55.9
				c-2.2-4.6-7.1-9.9-18-9.9c0,0,10.8,4.7,9.4,20c0,0-4.9,36.1,35.5,50.9c0,0,37.1-15.9,34.9-55.9c0,0-9.1,15.7-16.7,16.8
				c0,0,0.6-14.6,19.4-32.8C226.7,324.5,253.2,295.4,224.9,256z"/>
			<path class="st2" d="M199.9,376.2c0,0-5.5-15.9,1.6-25.5c0,0,16.1-19,2.8-32.2c0,0,4.3,10.9-8.6,18.8c0,0-10.7,4.4-10.3,17.7
				c0,0-5.2-9.2,0.5-24.2c0,0-15.6,14.8-12.3,32.7c-1.3-2.7-4.1-5.8-10.5-5.8c0,0,6.3,2.7,5.5,11.7c-0.6,7.2,1.6,14.4,6,19.7
				c4.6,3.1,9.5,5.6,14.6,7.4c5.3-2.5,10.3-5.8,14.9-9.8c4.1-5.7,6.1-12.9,5.6-20.3C209.6,366.4,204.3,375.6,199.9,376.2z"/>
			<path class="st3" d="M194.3,393.7c2.1-2.7,3.2-6.3,3-10c0,0-2.5,4.3-4.6,4.6c0,0-2.6-7.5,0.8-12c0,0,6-8.3-0.4-16.8
				c0,0,2.9,7.5-3.4,10.3c0,0-4.1,2.3-3.9,8.5c0,0-2.4-4.3,0.2-11.4c0,0-7.3,7-5.8,15.4c-0.6-1.3-1.9-2.7-4.9-2.7
				c1.9,1,2.9,3.2,2.6,5.5c-0.2,2.4,0.3,4.8,1.3,6.9c3.2,1.8,6.5,3.3,9.9,4.5C190.9,395.6,192.6,394.7,194.3,393.7z"/>
		</g>
	</g>
</g>
<g>
	<title>Fichier 8</title>
	<g id="Calque_2_3_">
		<g id="OBJECTS_2_">
			<path class="st1" d="M128.6,309.6c0,0,2.2,21.5-10.2,30.2c0,0,4.1-12.3-1.5-20.8c0,0,1.1,9.2-8.5,17.2c0,0,13.8-42.5-38.6-61.2
				c0,0,18.4,22,2.4,42.5c-2.9,3.4-5.4,7.1-7.2,11c-2.2-5.1-6.8-10.8-15.4-16.6c0,0,9.6,20.2-2.4,41.5c0,0-17,27.6,46.8,43.9
				C94,397.5,159.4,376.6,128.6,309.6z"/>
			<path class="st2" d="M114.8,349.1c0,0,1.2,12.2-5.8,17.2c0,0,2.3-7-0.8-11.8c0,0,0.6,5.2-4.9,9.8c0,0,7.9-24.2-22-34.9
				c0,0,10.5,12.5,1.4,24.2c-1.7,1.9-3,4-4.1,6.3c-1.3-2.9-3.9-6.2-8.8-9.4c0,0,5.5,11.5-1.4,23.6c0,0-5.8,9.5,8.6,18.1
				c5.5,2.1,11.2,3.8,17,5.3c6.3-2.3,12.2-5.3,17.5-9.1C118.7,380.7,123.6,368.1,114.8,349.1z"/>
			<path class="st3" d="M107,367.4c0,0,0.8,7.8-3.7,10.9c0,0,1.5-4.4-0.5-7.5c0.1,2.4-1.1,4.7-3.1,6.2c0,0,5-15.4-13.9-22.1
				c0,0,6.6,7.9,0.9,15.4c-1.1,1.2-1.9,2.6-2.6,4c-0.8-1.9-2.5-3.9-5.6-6c2,4.9,1.7,10.3-0.9,15c0,0-3.3,5.4,4.1,10.6
				c3.8,1.3,7.9,2.5,12.4,3.6c3.7-1.3,7.2-2.9,10.5-4.7C109.2,387.8,112.7,379.8,107,367.4z"/>
		</g>
	</g>
</g>
</svg>
