<?xml version="1.0" encoding="utf-8"?>
<!-- Generator: Adobe Illustrator 22.0.1, SVG Export Plug-In . SVG Version: 6.00 Build 0)  -->
<svg version="1.1" id="Layer_1" xmlns="http://www.w3.org/2000/svg" xmlns:xlink="http://www.w3.org/1999/xlink" x="0px" y="0px"
	 viewBox="0 0 512 512" style="enable-background:new 0 0 512 512;" xml:space="preserve">
<style type="text/css">
	.st0{fill:none;}
	.st1{fill:#F15A24;}
	.st2{fill:#F7931E;}
	.st3{fill:#FCEE21;}
</style>
<rect x="96" y="416" class="st0" width="96" height="64"/>
<rect x="64" y="320" class="st0" width="64" height="64"/>
<rect x="160" y="320" class="st0" width="64" height="64"/>
<rect x="160" y="224" class="st0" width="64" height="64"/>
<path class="st0" d="M92.4,34.5c-0.1,0.1-0.2,0.3-0.3,0.4c0.2,0.3,0.3,0.6,0.5,0.9c1.7-0.2,3.5-0.4,5.2-0.5c0.5,0,0.9,0,1.3,0
	c-0.1-0.1-0.2-0.2-0.3-0.3c-0.3-0.4-0.7-0.7-1-1.1C96,34.6,94.1,34.9,92.4,34.5z"/>
<path class="st0" d="M81.5,90.4c0.8,0.7,1.4,1.7,1.7,2.8c0.9,0.1,1.8,0.4,2.6,1c-1.2-4-2.4-8-3.6-12c-0.5,0.3-1,0.5-1.5,0.8
	C83.3,84.6,83.5,88.2,81.5,90.4z"/>
<path class="st0" d="M109.9,32c1.6,1.5,3.1,3.1,4.3,5.1c1.7,2.9,0.1,6.3-3,7.3c-4,1.3-7.6,0.8-11.8,0.8c-3.5,0-6.9,0.7-10.3,0.9
	c-1.9,0.1-3.9,0.2-5.9,0.2c-0.3,0.5-0.8,1-1.3,1.4c0.4,1.1,0.7,2.3,1.1,3.4c6.9,2,13.6,4.3,19.5,8c4.5,2.8,2.3,8.8-2.5,9.3
	c-0.8,0.1-1.5,0.1-2.3,0.2c-0.5,1.9-1.5,3.7-3.3,5.3c-1,0.9-2.2,1.7-3.5,2.4c2,6.6,3.9,13.1,5.8,19.7H128V32H109.9z"/>
<path class="st0" d="M105.6,128c2.3,8.7,4.5,17.4,6.7,26.2c1.6,6.3-8.1,8.9-9.6,2.7c-2.1-8.3-4.2-16.6-6.4-24.9
	c-1.1,1.3-2,2.7-3,4.1c-3.5,5.2-11.8,0.6-8.8-4.7c-0.3,0-0.6-0.1-0.9-0.1c-3.3-0.7-6-2.7-9.5-2.2c-0.6,0.1-1.2,0-1.7-0.2
	c-0.8,1.1-2,2-3.3,2.4c1.5,0.5,2.9,0.9,4,1.4c3.8,1.7,2.9,8.5-1.2,9.1c-1.3,0.2-2.7,0.4-4,0.5c0.2,2.3-1,4.4-3.1,5.2
	c-0.1,0.7-0.3,1.4-0.7,2.1c9.7,0.4,19.4,1.4,28.8,4.1c1.2,0.3,2.1,1,2.7,1.8c0.2,0,0.3,0,0.5,0c6.4-0.1,6.4,9.9,0,10
	c-10.7,0.2-21.3,0.7-32,1.3V192h64v-64H105.6z"/>
<rect x="64" y="224" class="st0" width="64" height="64"/>
<rect x="160" y="128" class="st0" width="64" height="64"/>
<rect x="384" y="320" class="st0" width="64" height="64"/>
<rect x="384" y="224" class="st0" width="64" height="64"/>
<rect x="288" y="224" class="st0" width="64" height="64"/>
<path class="st0" d="M216.9,51.8c-3.1-2.8-7.2-5.7-9-9.5c-0.5-1.1-0.7-2.2-0.5-3.3c-0.2-0.2-0.4-0.3-0.5-0.5
	c-0.3-0.3-0.5-0.7-0.7-1.1c-3.2-0.8-6.5-1.8-9.7-2.7c-0.3,1.5-0.6,3-1.1,4.5c-1.6,5.4-10,4.4-9.8-1.3c0-1.9,0-3.9,0.1-5.8H160v64h64
	V58.3C221.6,56.1,219.2,54,216.9,51.8z"/>
<rect x="320" y="416" class="st0" width="96" height="64"/>
<rect x="288" y="320" class="st0" width="64" height="64"/>
<path d="M480,480V192H256V86.1c-0.8-0.7-1.7-1.4-2.6-2.1c-8.4-7-16.6-14.2-24.8-21.5c-1.5-1.4-3.1-2.8-4.6-4.2V96h-64V32h25.6
	c0.1-2.2,0.2-4.5,0.7-6.7h-82.6c0,0.2,0,0.3,0.1,0.5c1.1,1.1,2.2,2.2,3.3,3.4c1,1,2,1.9,2.9,2.8h18v64H96.8c3.1,10.6,6,21.3,8.9,32
	H128v64H64v-25.2c-10.7,0.6-21.3,1.4-32,2.3V480H0v32h512v-32H480z M64,224h64v64H64V224z M64,320h64v64H64V320z M192,480H96v-64h96
	V480z M224,384h-64v-64h64V384z M224,288h-64v-64h64V288z M224,192h-64v-64h64V192z M288,224h64v64h-64V224z M288,320h64v64h-64V320
	z M416,480h-96v-64h96V480z M448,384h-64v-64h64V384z M448,288h-64v-64h64V288z"/>
<g>
	<title>Fichier 3</title>
	<g id="Calque_2_2_">
		<g id="OBJECTS_1_">
			<path class="st1" d="M183.7,64.8c0,0,11.2,23.5-10,55.7c0,0-9.7,11.8-5.3,38.2c0,0-7.5-10-5.3-26.5c0,0-15.7,56.9,33.3,59
				c0,0,46.4-17.9,17.1-72.5c0,0,2.6,22.3-3.1,27.2c0,0-9.6-4.9-6.7-29.5c0,0,5.3-19.7-4.3-33.5c0,0,0,16-6.3,19.7
				C193.1,102.6,200.3,75.2,183.7,64.8z"/>
			<path class="st2" d="M204.8,186.4c5.1-6.3,8.4-17.1-0.5-33.7c0,0,1.5,12.7-1.8,15.5c0,0-5.5-2.8-3.8-16.8c0,0,3-11.3-2.5-19.1
				c0,0,0,9.2-3.6,11.3c0,0,4.1-15.7-5.4-21.6c0,0,6.4,13.4-5.7,31.8c0,0-5.6,6.8-3,21.8c0,0-4.3-5.7-3-15.2c0,0-4.5,16.3,2.8,26.3
				c4.8,2.5,10.7,4.1,18.2,4.4C199.4,189.9,202.2,188.3,204.8,186.4z"/>
			<path class="st3" d="M201.9,188.3c1.9-4.1,2.3-10-2.1-18.2c0,0,1,8-1.1,9.8c0,0-3.5-1.7-2.4-10.6c0,0,1.9-7.1-1.6-12.1
				c0,0,0,5.8-2.2,7.1c0,0,2.6-9.9-3.4-13.6c0,0,4,8.4-3.6,20c0,0-3.5,4.2-1.9,13.7c0,0-2.7-3.6-1.9-9.5c0,0-2,7.3,0.1,13.3
				c4.8,1.8,9.7,2.7,14.7,2.9C198.3,190.4,200.1,189.4,201.9,188.3z"/>
		</g>
	</g>
</g>
<g>
	<title>Fichier 4</title>
	<g id="Calque_2_3_">
		<g id="OBJECTS_2_">
			<path class="st1" d="M135.4,219c0.4,5.8-3.1,13.3-6.5,19.1c-0.7-15.6,4.2-42.3-18.1-60.2c0,0,10.8,21.8-7,36.5
				c-5.7,4.7-10.5,10.3-14.2,16.5c-1.7-6.4-6.7-13.9-18.8-21c0,0,12.6,21.5,1,34.1c0,0,4.7-13.1-7.9-20.1c0,0,5.1,8.3-1.6,22.5
				c0,0-16.2,33.4,36.7,46.7C153.7,277.3,135.4,219,135.4,219z"/>
			<path class="st1" d="M135.4,219c0.4,5.8-3.1,13.3-6.5,19.1c-0.7-15.6,4.2-42.3-18.1-60.2c0,0,10.8,21.8-7,36.5
				c-5.7,4.7-10.5,10.3-14.2,16.5c-1.7-6.4-6.7-13.9-18.8-21c0,0,12.6,21.5,1,34.1c0,0,4.7-13.1-7.9-20.1c0,0,5.1,8.3-1.6,22.5
				c0,0-16.2,33.4,36.7,46.7C153.7,277.3,135.4,219,135.4,219z"/>
			<path class="st2" d="M117.2,261.9c-0.4-9.6,2.5-25.9-11.1-36.9c0,0,6.7,13.3-4.3,22.4c-3.5,2.9-6.4,6.3-8.7,10.1
				c-1-3.9-4.1-8.5-11.5-12.9c0,0,7.8,13.2,0.6,20.9c0,0,2.9-8.1-4.9-12.4c0,0,3.1,5.1-1,13.8c0,0-4.9,10.2,3.5,19
				c6.1,3.1,12.5,5.4,19.2,7c5.4-1.5,10.6-3.7,15.4-6.5c12-13.8,6.8-36.3,6.8-36.3C121.4,253.8,119.3,258.4,117.2,261.9z"/>
			<path class="st3" d="M110.2,277.1c-0.3-6,1.6-16.2-6.9-23.1c0,0,4.2,8.3-2.7,14c-2.2,1.8-4,3.9-5.4,6.3c-0.6-2.5-2.6-5.3-7.2-8.1
				c0,0,4.8,8.2,0.4,13.1c0,0,1.8-5-3-7.7c0,0,2,3.2-0.6,8.6c-1.1,2.5-1.2,5.3-0.3,7.9c4.7,2,9.6,3.6,14.6,4.8
				c4.2-1.2,8.3-2.7,12.2-4.7c3.9-8.3,1.6-18.5,1.6-18.5C112.8,272,111.5,274.9,110.2,277.1z"/>
		</g>
	</g>
</g>
</svg>
