<?xml version="1.0" encoding="utf-8"?>
<!-- Generator: Adobe Illustrator 22.0.1, SVG Export Plug-In . SVG Version: 6.00 Build 0)  -->
<svg version="1.1" id="Capa_1" xmlns="http://www.w3.org/2000/svg" xmlns:xlink="http://www.w3.org/1999/xlink" x="0px" y="0px"
	 viewBox="0 0 554.6 554.6" style="enable-background:new 0 0 554.6 554.6;" xml:space="preserve">
<style type="text/css">
	.st0{fill:none;}
</style>
<rect x="373.6" y="335.5" class="st0" width="26" height="19.9"/>
<rect x="113.4" y="305.6" class="st0" width="104.1" height="19.9"/>
<path class="st0" d="M126.7,235.9c0.1,0,0.1-0.1,0.2-0.1c-1,0-2,0.1-3,0.1H126.7z"/>
<path class="st0" d="M154.9,216c0.2,0.8,0.1,1.7-0.4,2.5c1.3-0.3,2.7-0.6,4-0.8c1.5-0.3,3.3,0.5,4.1,1.8c1.6-1.1,3.1-2.3,4.7-3.4
	H154.9z"/>
<path class="st0" d="M178.7,216c-0.2,0.4-0.5,0.7-0.9,1c-5.4,4-10.8,7.9-16.3,11.9c0.1,2.6-0.5,4.9-1.5,7.1h0.7
	c0.1-0.1,0.2-0.3,0.3-0.4c1.6-2,3.9-1.2,5,0.4h51.4V216H178.7z"/>
<path class="st0" d="M133.5,275.8c-6.6,6.6-13.4,13.2-19.9,19.9h103.9v-19.9H133.5z"/>
<rect x="373.6" y="365.4" class="st0" width="26" height="19.9"/>
<rect x="113.4" y="365.4" class="st0" width="104.1" height="19.9"/>
<rect x="113.4" y="335.5" class="st0" width="104.1" height="19.9"/>
<path class="st0" d="M133.4,262.9c-1.6,0.3-3.2-0.5-4-1.7c-1.3,0.7-2.6,1.5-3.9,2.2c-0.5,0.7-1,1.4-1.5,2.1c0.1,0.1,0.1,0.3,0.2,0.4
	h9.4c1.4-1.4,2.8-2.9,4.2-4.3c-0.1,0-0.1,0-0.2,0C136.3,262.1,134.9,262.6,133.4,262.9z"/>
<path class="st0" d="M141.5,247.1c0.5-0.2,1-0.4,1.5-0.6c0.2-0.2,0.3-0.4,0.5-0.6h-3.4c-0.5,0.5-1,1-1.4,1.5
	C139.6,246.7,140.6,246.7,141.5,247.1z"/>
<path class="st0" d="M161.5,245.9c-5.8,6.9-11.9,13.5-18.2,19.9h74.1v-19.9H161.5z"/>
<path class="st0" d="M78.9,443.2c0.1-0.1,0.2-0.2,0.3-0.4c0.2-0.3,0.3-0.5,0.5-0.7c0.1-0.2,0.2-0.4,0.4-0.6c0-0.2,0-0.3,0.1-0.5
	c-0.3-1.1-0.1-2.4,0.7-3.3c0.4-1.4,1.4-2.5,3.2-2.5c0.4,0,0.8,0.1,1.2,0.2v-2c-39.5,6.5-54.9,27.9-63.1,44.8
	c-13.5-10.5-32-16.6-52.1-16.6c-33.1,0-68.9,18.8-69,49.3c2.2-1.1,4.4-2.1,6.8-3c2.2-0.9,4.5-1.6,6.9-2.3
	c3.6-22.4,31.3-34.4,55.3-34.4c25.4,0,47,11.8,55.9,28.7c7.4-13.2,12-44.4,52.2-55.4C78.3,444,78.5,443.5,78.9,443.2z"/>
<path class="st0" d="M148.8,188.2c0.1-0.1,0.1-0.1,0.2-0.2c2.5-2.1,5.8,0,6.1,2.4c1.5-1.4,3.1-2.8,4.6-4.3h-10.3
	c-0.4,0.6-0.8,1.2-1.3,1.7C148.4,188,148.6,188.1,148.8,188.2z"/>
<path class="st0" d="M170,186.1c-3.2,3-6.4,5.9-9.7,8.9c-4,3.7-7.9,7.3-11.9,11h69v-19.9H170z"/>
<path class="st0" d="M148.6,159c1.8-0.4,3.6-0.8,5.4-1c0.7-0.1,1.4,0.1,1.9,0.5c1.2-0.8,2.5-1.5,3.7-2.2h-11
	C148.9,157.1,149,158.1,148.6,159z"/>
<path class="st0" d="M127.4,156.3c1.5,0.6,2.2,2.4,1.9,4c3.2-1.4,6.4-2.7,9.6-4H127.4z"/>
<path class="st0" d="M173.3,160.5c2.2-1.4,4.5-2.8,6.7-4.2h-2.6c-0.4,0.5-1,0.9-1.9,1.1c-0.7,0.2-1.4,0.3-2.2,0.5
	C173.6,158.8,173.6,159.7,173.3,160.5z"/>
<path class="st0" d="M190.2,158.1c-1.7,1.1-3.3,2.1-5,3.1c0,0.7-0.2,1.3-0.6,2C186.5,161.5,188.4,159.8,190.2,158.1z"/>
<path class="st0" d="M164,175.7c0.5-0.7,1.1-1.5,1.6-2.2c-1.4,0.9-2.8,1.7-4.2,2.6h2.3C163.8,176,163.9,175.9,164,175.7z"/>
<path class="st0" d="M202.5,156.3c-7.2,6.6-14.5,13.3-21.7,19.9h36.6v-19.9H202.5z"/>
<path class="st0" d="M211.2,132c-1.3-0.3-2.7-0.7-4-1.1c0.4,0.3,0.7,0.8,0.9,1.3c0.8,0.2,1.7,0.3,2.5,0.5
	C210.7,132.4,210.9,132.2,211.2,132z"/>
<path class="st0" d="M204.1,130c-3.4-1-6.8-2-10.3-2.6c0,0,0,0,0,0c-1.1,0.5-2.2,1.1-3.3,1.6c3.9,0.7,7.7,1.4,11.6,2.1
	C202.6,130.5,203.3,130.1,204.1,130z"/>
<path class="st0" d="M169.8,145.7c-1.3,0.3-2.8,0.5-4.2,0.6h3.8C169.5,146.1,169.6,145.9,169.8,145.7z"/>
<path class="st0" d="M180.6,143.8c-0.4,0.1-0.8,0.2-1.2,0.2c-0.5,0.8-1,1.5-1.6,2.3h14.3c-0.5-0.5-0.8-1.2-0.9-1.9
	C187.6,145.6,183.7,145.6,180.6,143.8z"/>
<path class="st0" d="M216.2,144.7c-0.7,0.9-1.7,1.5-2.9,1.5H212c-0.3,0-0.6,0-0.8-0.1c-0.1,0.1-0.1,0.2-0.2,0.2h6.5V145
	C217.1,144.9,216.6,144.8,216.2,144.7z"/>
<path class="st0" d="M152.9,144.5c-0.1-0.1-0.1-0.1-0.2-0.2c-1.7,0.7-3.4,1.4-5.1,2h7.3C154.2,145.7,153.5,145,152.9,144.5z"/>
<path class="st0" d="M120.1,126.4c-0.1,0-0.2,0.1-0.3,0.1c-0.7,1.7-2,4.2-2.8,6.5c0.7-0.8,1.4-1.6,2-2.3c2.3-2.4,5.6-0.4,5.9,2.2
	c2.6-2.5,5.6-4.6,8.6-5.6c2-0.7,3.6,0.6,4.1,2.3c2.5-0.4,5-0.6,7.6-0.7c1.2,0,2.2,0.6,2.8,1.5c1.2-0.2,2.4-0.3,3.6-0.5
	c2.3-0.7,4.6-1.5,6.9-2.3c0-0.5,0.1-0.9,0.3-1.4H120.1z"/>
<path class="st0" d="M476.5,290.1c0.1,0.1,0.3,0.2,0.4,0.3c-1-1-2-2-3-3c0,0,0,0,0,0C474.3,288.3,475.8,289.5,476.5,290.1z"/>
<path class="st0" d="M464.9,291.4c0.3,0.4,0.6,0.7,0.9,1.1c0.3-0.2,0.6-0.4,0.9-0.6c-2.8-4.1-5.4-8.3-7.7-12.7
	c-0.8,0.5-1.7,0.7-2.6,0.6C459.2,283.7,462,287.5,464.9,291.4z"/>
<path class="st0" d="M460.1,365.4h-8.5v19.9h21.5C468.8,378.7,464.4,372,460.1,365.4z"/>
<rect x="373.6" y="305.6" class="st0" width="26" height="19.9"/>
<path class="st0" d="M419.3,305.6h-6.7v19.9h20.6C428.6,318.9,423.9,312.3,419.3,305.6z"/>
<path class="st0" d="M458,320.9c0.7,0.8,1.3,1.6,2,2.4c0.4-2.1,1.4-4,2.9-5.4c-1.3-1.6-2.7-3.3-4-5c-0.3,0-0.5,0-0.8,0
	C459.3,315.4,459.2,318.5,458,320.9z"/>
<path class="st0" d="M463,254.2c0.6,1,1.2,1.9,1.8,2.8c3.3,1.3,6.5,2.8,9.7,4.5c0.1-0.2,0.1-0.3,0.2-0.5
	c-5.6-4.6-11.3-9.3-16.9-13.9c-0.1,1.2-0.3,2.3-0.4,3.5c-0.2,1.4-0.4,2.8-0.7,4.2C457.8,252.5,461.4,251.5,463,254.2z"/>
<path class="st0" d="M457,257.8c-0.4-0.6-0.5-1.2-0.5-1.7c-0.2,1-0.5,2-0.8,3c-0.5,1.4-0.9,2.6-0.7,3.7c0.8-0.6,1.9-0.8,2.9-0.6
	c0.9,0.2,1.7,0.4,2.5,0.7c0-0.1-0.1-0.2-0.1-0.3C459.1,261,458,259.4,457,257.8z"/>
<rect x="412.6" y="335.5" class="st0" width="26" height="19.9"/>
<path class="st0" d="M397.6,275.8h-24v19.9h26v-17.2C398.9,277.6,398.2,276.7,397.6,275.8z"/>
<path class="st0" d="M374.4,245.9h-0.8v19.9H390C384.9,259.1,379.7,252.5,374.4,245.9z"/>
<rect x="412.6" y="365.4" class="st0" width="26" height="19.9"/>
<rect x="256.5" y="285.7" width="78" height="119.5"/>
<rect x="256.5" y="226" width="78" height="10"/>
<rect x="256.5" y="255.9" width="78" height="10"/>
<path d="M473.1,385.3h-21.5v-19.9h8.5c-2.2-3.3-4.4-6.6-6.6-10h-1.8v-2.8c-2.1-3.2-4.3-6.4-6.4-9.5c-4-5.9-8-11.7-12-17.6h-20.6
	v-19.9h6.7c-6.5-9.1-13-18.2-19.7-27.2v17.2h-26v-19.9h24c-2.5-3.3-5-6.7-7.5-10h-16.5v-19.9h0.8c-5.4-6.7-11-13.4-16.6-19.9h-10.2
	v179.3h117.1v149.4h39V433.4C493.6,417.3,483.4,401.3,473.1,385.3z M399.6,385.3h-26v-19.9h26V385.3z M399.6,355.4h-26v-19.9h26
	V355.4z M399.6,325.6h-26v-19.9h26V325.6z M438.6,385.3h-26v-19.9h26V385.3z M438.6,355.4h-26v-19.9h26V355.4z"/>
<polygon points="347.6,415.2 334.5,415.2 256.5,415.2 243.5,415.2 217.5,415.2 178.5,415.2 178.5,425.2 178.5,445.1 178.5,467.3 
	178.5,479.6 178.5,493.2 178.5,544.7 178.5,554.6 192,554.6 198.8,554.6 204.5,554.6 204.5,538.9 204.5,465 204.5,455 243.5,455 
	256.5,455 334.5,455 347.6,455 399.6,455 425.6,455 425.6,554.6 451.6,554.6 451.6,455 451.6,415.2 399.6,415.2 "/>
<polygon points="347.6,465 256.5,465 243.5,465 217.5,465 217.5,554.6 243.5,554.6 243.5,504.8 256.5,504.8 308.5,504.8 
	308.5,554.6 321.5,554.6 321.5,504.8 347.6,504.8 386.6,504.8 386.6,554.6 399.6,554.6 412.6,554.6 412.6,465 399.6,465 "/>
<g>
	<rect x="113.4" y="315.6" class="st0" width="104.1" height="19.1"/>
	<path class="st0" d="M122.4,286.9c-3,3-6,6-8.9,9V306h104.1v-19.1H122.4z"/>
	<path class="st0" d="M133.4,262.9c-1.6,0.3-3.2-0.5-4-1.7c-1.3,0.7-2.6,1.5-3.9,2.2c-0.5,0.7-1,1.4-1.5,2c0.1,0.2,0.2,0.4,0.3,0.7
		c0.7,2.1,0.7,4,0.2,5.9c0.8,0,1.5,0.4,2,0.9c3.8-3.8,7.5-7.5,11.2-11.4c-0.1,0-0.1,0-0.2,0C136.3,262.1,134.9,262.6,133.4,262.9z"
		/>
	<path class="st0" d="M150.6,258.2c-6.1,6.5-12.3,12.8-18.6,19.1h85.5v-19.1H150.6z"/>
	<rect x="113.4" y="344.2" class="st0" width="104.1" height="19.1"/>
	<rect x="113.4" y="372.9" class="st0" width="104.1" height="19.1"/>
	<path class="st0" d="M138,206c-0.9,0.8-2.1,0.9-3.2,0.7c-1.9,2.6-3.7,5.2-5.6,7.9c3.9-3.6,7.8-7.3,11.7-10.9
		C139.9,204.4,138.9,205.2,138,206z"/>
	<path class="st0" d="M154.2,200.8c-5.6,5.2-11.3,10.5-16.9,15.7c1.9-0.4,3.7-0.8,5.6-1c0.6-0.1,1.3-0.1,1.9-0.1
		c1.6-0.6,3.3-1.2,4.9-1.9c3.5-1.6,6.6,2.5,4.8,5c1.3-0.3,2.7-0.6,4-0.8c1.5-0.3,3.3,0.5,4.1,1.8c3.9-2.8,7.7-5.6,11.5-8.4
		c3.6-2.7,7.1,3.4,3.5,6c-1.3,1-2.6,1.9-4,2.9h43.7v-19.1H154.2z"/>
	<path class="st0" d="M124.9,133c2.6-2.5,5.6-4.6,8.6-5.6c2-0.7,3.6,0.6,4.1,2.3c2.5-0.4,5-0.6,7.6-0.7c1.2,0,2.2,0.6,2.8,1.5
		c1.2-0.2,2.4-0.3,3.6-0.5c2.3-0.7,4.6-1.5,6.9-2.3c0-2,1.7-4.3,4.4-3.8c4.9,0.9,9.9,1.8,14.8,2.7c2.3-1,4.5-1.9,6.8-2.9
		c0.1-0.2,0.2-0.3,0.3-0.5c-0.6-0.1-1.2-0.3-1.8-0.5c-2-0.7-3.1-2.8-2.3-4.7c-8.9,1.2-17.9,2-26.9,2.5c-1.4,0.6-2.8,1.2-4.1,1.8
		c-2,1-3.9-0.1-4.8-1.5c-2.8,0-5.5,0.1-8.3,0c-0.9,0-1.6-0.4-2.2-0.9c-4.8,2.1-9.5,4.3-14.2,6.4c-0.1,0.1-0.3,0.1-0.4,0.2
		c-0.7,1.7-2,4.2-2.8,6.5c0.7-0.8,1.4-1.6,2-2.3C121.3,128.4,124.6,130.4,124.9,133z"/>
	<path class="st0" d="M204.1,130c-3.4-1-6.8-2-10.3-2.6c0,0,0,0,0,0c-1.1,0.5-2.2,1.1-3.3,1.6c3.9,0.7,7.7,1.4,11.6,2.1
		C202.6,130.5,203.3,130.1,204.1,130z"/>
	<path class="st0" d="M211.2,132c-1.3-0.3-2.7-0.7-4-1.1c0.4,0.3,0.7,0.8,0.9,1.3c0.8,0.2,1.7,0.3,2.5,0.5
		C210.7,132.4,210.9,132.2,211.2,132z"/>
	<path class="st0" d="M212,120.2c-0.4,0-0.9,0-1.3,0c-0.9,0-1.6-0.4-2.2-0.9c-1.9,1-3.7,2.1-5.6,3.1c3.5,1,7,2.1,10.5,2.9
		c0.1-0.5,0.3-1,0.5-1.5C212.4,123.2,211.8,121.7,212,120.2z"/>
	<path class="st0" d="M122.5,236c-1.1,0.1-2-0.4-2.6-1.1c-0.3,1.5-0.8,3.1-1.3,4.5c0.1,0.5,0.2,0.9,0.3,1.4c2.7-1.6,5.4-3.3,8-5
		C125.4,235.8,123.9,235.9,122.5,236z"/>
	<path class="st0" d="M139.5,235c-4.7,4.1-10,7.5-15.3,10.8c0.3,0.3,0.5,0.7,0.6,1.1c5.5-4,11.1-8.1,16.6-12.1
		C140.8,234.9,140.1,235,139.5,235z"/>
	<path class="st0" d="M141.5,247.1c0.5-0.2,0.9-0.4,1.4-0.6c2.1-2.8,4.1-5.6,6-8.6c-1.1,0.8-2.3,1.6-3.4,2.5c-2.5,2.2-4.8,4.7-6.9,7
		C139.6,246.7,140.6,246.7,141.5,247.1z"/>
	<path class="st0" d="M161.5,229.5c0,3.3-1.2,6.2-2.9,8.9c0.8-1,1.6-1.9,2.4-2.9c2.8-3.5,7.7,1.5,4.9,4.9c-2.2,2.8-4.5,5.5-6.8,8.1
		h58.3v-19.1H161.5z"/>
	<path class="st0" d="M164,175.7c0.5-0.7,1.1-1.5,1.6-2.2c-4.4,2.7-8.7,5.5-13,8.3c-1.5,2-2.9,4-4.4,6c0.2,0.1,0.4,0.2,0.6,0.3
		c0.1-0.1,0.1-0.1,0.2-0.2c2.5-2.1,5.8,0,6.1,2.4c3.5-3.3,7.1-6.6,10.7-9.8C163.9,179.8,162.5,177.9,164,175.7z"/>
	<path class="st0" d="M185.3,172.1c-6.9,6.4-13.8,12.7-20.8,19.1h53v-19.1H185.3z"/>
	<path class="st0" d="M143.1,177.4c-0.2-0.3-0.4-0.6-0.6-1c-4.3,2.9-8.5,5.9-12.7,8.9c0.1,0.1,0.2,0.2,0.3,0.3
		c0.6-0.4,1.2-0.9,1.9-1.3C135.6,181.8,139.4,179.7,143.1,177.4z"/>
	<path class="st0" d="M191.2,144.4c-3.6,1.2-7.4,1.3-10.6-0.6c-0.4,0.1-0.8,0.2-1.2,0.2c-1.5,2.2-3,4.4-4.5,6.5
		c3.4,0.5,4.5,5.9,0.6,6.8c-0.7,0.2-1.4,0.3-2.2,0.6c0.3,0.8,0.3,1.8,0,2.5c6.9-4.3,13.8-8.6,20.6-13
		C192.5,147,191.4,145.8,191.2,144.4z"/>
	<path class="st0" d="M127,156.1c1.8,0.5,2.6,2.4,2.3,4.2c5.1-2.2,10.1-4.3,15.3-6.2c3.1-1.1,5.1,2.4,4,4.9c1.8-0.4,3.6-0.8,5.4-1
		c0.7-0.1,1.4,0.1,1.9,0.5c2.6-1.6,5.3-3.2,8-4.5c2-2.8,3.9-5.5,5.8-8.3c-2.8,0.6-6.1,0.6-9.1,1.3c-0.8,0.8-1.9,1.2-3.2,0.8
		c-1.7-0.5-3.2-2.1-4.5-3.2c-0.1-0.1-0.1-0.1-0.1-0.2c-8.7,3.4-17.4,6.6-26.2,9.6C126.9,154.6,127.1,155.4,127,156.1z"/>
	<path class="st0" d="M185.3,161.2c0,0.4-0.1,0.9-0.3,1.4h0.3c1.6-1.5,3.3-3,4.9-4.5C188.6,159.1,186.9,160.2,185.3,161.2z"/>
	<path class="st0" d="M216.2,144.7c-0.7,0.9-1.7,1.5-2.9,1.5H212c-0.3,0-0.6,0-0.8-0.1c-1.7,1.8-3.7,3.1-6.3,4c0,0-0.1,0-0.1,0
		c1,1.2,1.2,3-0.3,4.4c-2.9,2.7-5.9,5.4-8.8,8.1h21.8V145C217,144.9,216.6,144.8,216.2,144.7z"/>
	<path d="M217.5,145v17.6h-21.8c-3.5,3.2-6.9,6.4-10.4,9.6h32.2v19.1h-53c-1.4,1.3-2.8,2.5-4.1,3.8c-2.1,1.9-4.1,3.8-6.2,5.8h63.3
		v19.1h-43.7c-4.1,3-8.2,6-12.3,8.9c0,0.2,0,0.4,0,0.6h56v19.1h-58.3c-2.8,3.2-5.7,6.4-8.6,9.6h66.9v19.1H132
		c-3.2,3.2-6.4,6.4-9.6,9.6h95.1V306H113.4v-10.2c-9.1,9.2-17.9,18.7-26,28.8v113.2c0,0-0.1,0-0.1,0c0.1,0.6,0.1,1.3-0.1,1.9
		c0.3,0.9,0.2,1.9-0.1,2.8c0,0.1,0,0.1,0,0.2c0.3,0.6,0.4,1.2,0.3,1.9c0,0.2,0,0.5,0,0.7c0,0.5,0,1-0.1,1.5c0.1,0,0.1,0,0.2,0v28.6
		h49.5v79.2h28.6V449.4h-52v-19.1h52v-9.6h-52v-19.1h104.1v9.6h26V148.6C234.8,147.9,226,146.9,217.5,145z M217.5,392.1H113.4v-19.1
		h104.1V392.1z M217.5,363.4H113.4v-19.1h104.1V363.4z M217.5,334.7H113.4v-19.1h104.1V334.7z"/>
	<polygon points="87.4,475.4 87.4,510.4 87.4,554.6 126.6,554.6 136.9,554.6 136.9,475.4 	"/>
</g>
</svg>
