<?xml version="1.0" encoding="utf-8"?>
<!-- Generator: Adobe Illustrator 22.0.1, SVG Export Plug-In . SVG Version: 6.00 Build 0)  -->
<svg version="1.1" id="Capa_1" xmlns="http://www.w3.org/2000/svg" xmlns:xlink="http://www.w3.org/1999/xlink" x="0px" y="0px"
	 viewBox="0 0 554.6 554.6" style="enable-background:new 0 0 554.6 554.6;" xml:space="preserve">
<style type="text/css">
	.st0{fill:none;}
	.st1{fill:#F15A24;}
	.st2{fill:#F7931E;}
	.st3{fill:#FCEE21;}
</style>
<rect x="373.6" y="335.5" class="st0" width="26" height="19.9"/>
<rect x="113.4" y="305.6" class="st0" width="104.1" height="19.9"/>
<rect x="113.4" y="216" class="st0" width="104.1" height="19.9"/>
<rect x="113.4" y="275.8" class="st0" width="104.1" height="19.9"/>
<rect x="373.6" y="365.4" class="st0" width="26" height="19.9"/>
<rect x="113.4" y="365.4" class="st0" width="104.1" height="19.9"/>
<rect x="113.4" y="335.5" class="st0" width="104.1" height="19.9"/>
<rect x="113.4" y="245.9" class="st0" width="104.1" height="19.9"/>
<path class="st0" d="M78.9,443.2c0.1-0.1,0.2-0.2,0.3-0.4c0.2-0.3,0.3-0.5,0.5-0.7c0.1-0.2,0.2-0.4,0.4-0.6c0-0.2,0-0.3,0.1-0.5
	c-0.3-1.1-0.1-2.4,0.7-3.3c0.4-1.4,1.4-2.5,3.2-2.5c0.4,0,0.8,0.1,1.2,0.2v-2c-39.5,6.5-54.9,27.9-63.1,44.8
	c-13.5-10.5-32-16.6-52.1-16.6c-33.1,0-68.9,18.8-69,49.3c2.2-1.1,4.4-2.1,6.8-3c2.2-0.9,4.5-1.6,6.9-2.3
	c3.6-22.4,31.3-34.4,55.3-34.4c25.4,0,47,11.8,55.9,28.7c7.4-13.2,12-44.4,52.2-55.4C78.3,444,78.5,443.5,78.9,443.2z"/>
<path class="st0" d="M117.7,206.1h99.8v-19.9H146C136.3,192.5,126.9,199.1,117.7,206.1z"/>
<path class="st0" d="M148.6,159c1.8-0.4,3.6-0.8,5.4-1c0.7-0.1,1.4,0.1,1.9,0.5c1.2-0.8,2.5-1.5,3.7-2.2h-11
	C148.9,157.1,149,158.1,148.6,159z"/>
<path class="st0" d="M127.4,156.3c1.5,0.6,2.2,2.4,1.9,4c3.2-1.4,6.4-2.7,9.6-4H127.4z"/>
<path class="st0" d="M173.3,160.5c2.2-1.4,4.5-2.8,6.7-4.2h-2.6c-0.4,0.5-1,0.9-1.9,1.1c-0.7,0.2-1.4,0.3-2.2,0.5
	C173.6,158.8,173.6,159.7,173.3,160.5z"/>
<path class="st0" d="M161.4,176.2h56v-19.9H193C182.6,163,172,169.5,161.4,176.2z"/>
<path class="st0" d="M211.2,132c-1.3-0.3-2.7-0.7-4-1.1c0.4,0.3,0.7,0.8,0.9,1.3c0.8,0.2,1.7,0.3,2.5,0.5
	C210.7,132.4,210.9,132.2,211.2,132z"/>
<path class="st0" d="M204.1,130c-3.4-1-6.8-2-10.3-2.6l0,0c-1.1,0.5-2.2,1.1-3.3,1.6c3.9,0.7,7.7,1.4,11.6,2.1
	C202.6,130.5,203.3,130.1,204.1,130z"/>
<path class="st0" d="M191.2,144.4c-3.6,1.2-7.4,1.3-10.6-0.6c-2.1,0.6-4.3,0.5-6.4-0.2c-2.2,1.9-5.3,2.3-8.6,2.7h26.6
	C191.6,145.8,191.3,145.1,191.2,144.4z"/>
<path class="st0" d="M216.2,144.7c-0.7,0.9-1.7,1.5-2.9,1.5H212c-0.3,0-0.6,0-0.8-0.1c-0.1,0.1-0.1,0.2-0.2,0.2h6.5V145
	C217.1,144.9,216.6,144.8,216.2,144.7z"/>
<path class="st0" d="M152.9,144.5c-0.1-0.1-0.1-0.1-0.2-0.2c-1.7,0.7-3.4,1.4-5.1,2h7.3C154.2,145.7,153.5,145,152.9,144.5z"/>
<path class="st0" d="M120.1,126.4c-0.1,0-0.2,0.1-0.3,0.1c-0.7,1.7-2,4.2-2.8,6.5c0.7-0.8,1.4-1.6,2-2.3c2.3-2.4,5.6-0.4,5.9,2.2
	c2.6-2.5,5.6-4.6,8.6-5.6c2-0.7,3.6,0.6,4.1,2.3c2.5-0.4,5-0.6,7.6-0.7c1.2,0,2.2,0.6,2.8,1.5c1.2-0.2,2.4-0.3,3.6-0.5
	c2.3-0.7,4.6-1.5,6.9-2.3c0-0.5,0.1-0.9,0.3-1.4h-38.7V126.4z"/>
<rect x="451.6" y="275.8" class="st0" width="26" height="19.9"/>
<rect x="412.6" y="245.9" class="st0" width="26" height="19.9"/>
<rect x="451.6" y="365.4" class="st0" width="26" height="19.9"/>
<rect x="373.6" y="305.6" class="st0" width="26" height="19.9"/>
<rect x="412.6" y="305.6" class="st0" width="26" height="19.9"/>
<rect x="412.6" y="275.8" class="st0" width="26" height="19.9"/>
<rect x="451.6" y="305.6" class="st0" width="26" height="19.9"/>
<path class="st0" d="M456.5,245.9h-4.9v19.9h26v-2.6C470.6,257.5,463.5,251.7,456.5,245.9z"/>
<rect x="451.6" y="335.5" class="st0" width="26" height="19.9"/>
<rect x="412.6" y="335.5" class="st0" width="26" height="19.9"/>
<polygon class="st0" points="373.6,285.7 373.6,295.7 399.6,295.7 399.6,275.8 373.6,275.8 "/>
<polygon class="st0" points="373.6,255.9 373.6,265.8 399.6,265.8 399.6,245.9 373.6,245.9 "/>
<rect x="412.6" y="365.4" class="st0" width="26" height="19.9"/>
<rect x="256.5" y="285.7" width="78" height="119.5"/>
<rect x="256.5" y="226" width="78" height="10"/>
<path d="M373.6,180.1v16H256.5v10h117.1v10h26v-16C390.9,193.4,382.1,186.9,373.6,180.1z"/>
<rect x="256.5" y="255.9" width="78" height="10"/>
<path d="M491.5,274.6c-4.6-3.8-9.3-7.6-13.9-11.4v2.6h-26v-19.9h4.9c-8.1-6.7-16.3-13.3-24.4-19.9h-84.5v179.3h117.1v149.4h39v-270
	C499.6,281.3,495.5,278,491.5,274.6z M399.6,385.3h-26v-19.9h26V385.3z M399.6,355.4h-26v-19.9h26V355.4z M399.6,325.6h-26v-19.9h26
	V325.6z M399.6,295.7h-26v-19.9h26V295.7z M399.6,265.8h-26v-19.9h26V265.8z M438.6,385.3h-26v-19.9h26V385.3z M438.6,355.4h-26
	v-19.9h26V355.4z M438.6,325.6h-26v-19.9h26V325.6z M438.6,295.7h-26v-19.9h26V295.7z M438.6,265.8h-26v-19.9h26V265.8z
	 M477.6,385.3h-26v-19.9h26V385.3z M477.6,355.4h-26v-19.9h26V355.4z M477.6,325.6h-26v-19.9h26V325.6z M477.6,295.7h-26v-19.9h26
	V295.7z"/>
<polygon points="347.6,415.2 334.5,415.2 256.5,415.2 243.5,415.2 217.5,415.2 178.5,415.2 178.5,425.2 178.5,445.1 178.5,467.3 
	178.5,479.6 178.5,493.2 178.5,544.7 178.5,554.6 192,554.6 198.8,554.6 204.5,554.6 204.5,538.9 204.5,465 204.5,455 243.5,455 
	256.5,455 334.5,455 347.6,455 399.6,455 425.6,455 425.6,554.6 451.6,554.6 451.6,455 451.6,415.2 399.6,415.2 "/>
<polygon points="347.6,465 256.5,465 243.5,465 217.5,465 217.5,554.6 243.5,554.6 243.5,504.8 256.5,504.8 308.5,504.8 
	308.5,554.6 321.5,554.6 321.5,504.8 347.6,504.8 386.6,504.8 386.6,554.6 399.6,554.6 412.6,554.6 412.6,465 399.6,465 "/>
<g>
	<rect x="113.4" y="315.6" class="st0" width="104.1" height="19.1"/>
	<rect x="113.4" y="286.9" class="st0" width="104.1" height="19.1"/>
	<rect x="113.4" y="258.2" class="st0" width="104.1" height="19.1"/>
	<rect x="113.4" y="344.2" class="st0" width="104.1" height="19.1"/>
	<rect x="113.4" y="372.9" class="st0" width="104.1" height="19.1"/>
	<path class="st0" d="M113.4,209.3V220h104.1v-19.1h-92.7C121,203.6,117.2,206.4,113.4,209.3z"/>
	<path class="st0" d="M183.1,122.7c-2-0.7-3.1-2.8-2.3-4.7c-8.9,1.2-17.9,2-26.9,2.5c-1.4,0.6-2.8,1.2-4.1,1.8c-2,1-3.9-0.1-4.8-1.5
		c-2.8,0-5.5,0.1-8.3,0c-0.9,0-1.6-0.4-2.2-0.9c-4.8,2.1-9.5,4.3-14.2,6.4c-0.1,0.1-0.3,0.1-0.4,0.2c-0.7,1.7-2,4.2-2.8,6.5
		c0.7-0.8,1.4-1.6,2-2.3c2.3-2.4,5.6-0.4,5.9,2.2c2.6-2.5,5.6-4.6,8.6-5.6c2-0.7,3.6,0.6,4.1,2.3c2.5-0.4,5-0.6,7.6-0.7
		c1.2,0,2.2,0.6,2.8,1.5c1.2-0.2,2.4-0.3,3.6-0.5c2.3-0.7,4.6-1.5,6.9-2.3c0-2,1.7-4.3,4.4-3.8c4.9,0.9,9.9,1.8,14.8,2.7
		c2.6-1.1,5.1-2.2,7.7-3.3C184.6,123.2,183.8,123,183.1,122.7z"/>
	<path class="st0" d="M204.1,130c-3.4-1-6.8-2-10.3-2.6l0,0c-1.1,0.5-2.2,1.1-3.3,1.6c3.9,0.7,7.7,1.4,11.6,2.1
		C202.6,130.5,203.3,130.1,204.1,130z"/>
	<path class="st0" d="M211.2,132c-1.3-0.3-2.7-0.7-4-1.1c0.4,0.3,0.7,0.8,0.9,1.3c0.8,0.2,1.7,0.3,2.5,0.5
		C210.7,132.4,210.9,132.2,211.2,132z"/>
	<path class="st0" d="M212,120.2c-0.4,0-0.9,0-1.3,0c-0.9,0-1.6-0.4-2.2-0.9c-1.9,1-3.7,2.1-5.6,3.1c3.5,1,7,2.1,10.5,2.9
		c0.1-0.5,0.3-1,0.5-1.5C212.4,123.2,211.8,121.7,212,120.2z"/>
	<rect x="113.4" y="229.5" class="st0" width="104.1" height="19.1"/>
	<path class="st0" d="M149.1,184c-3.6,2.4-7.2,4.8-10.8,7.2h79.2v-19.1h-49.6C161.6,176.1,155.3,180,149.1,184z"/>
	<path class="st0" d="M143.1,177.4c-0.2-0.3-0.4-0.6-0.6-1c-4.3,2.9-8.5,5.9-12.7,8.9c0.1,0.1,0.2,0.2,0.3,0.3
		c0.6-0.4,1.2-0.9,1.9-1.3C135.6,181.8,139.4,179.7,143.1,177.4z"/>
	<path class="st0" d="M127,156.1c1.8,0.5,2.6,2.4,2.3,4.2c5.1-2.2,10.1-4.3,15.3-6.2c3.1-1.1,5.1,2.4,4,4.9c1.8-0.4,3.6-0.8,5.4-1
		c0.7-0.1,1.4,0.1,1.9,0.5c5.5-3.5,11.4-6.5,17.6-7.9c4.4-1,6.3,5.8,1.9,6.8c-0.7,0.2-1.4,0.3-2.2,0.6c0.3,0.8,0.3,1.8,0,2.5
		c6.9-4.3,13.8-8.6,20.6-13c-1.3-0.4-2.5-1.6-2.7-3c-3.6,1.2-7.4,1.3-10.6-0.6c-2.1,0.6-4.3,0.5-6.4-0.2c-3.2,2.9-8.8,2.4-13.5,3.3
		c-0.8,0.8-1.9,1.2-3.2,0.8c-1.7-0.5-3.2-2.1-4.5-3.2c-0.1-0.1-0.1-0.1-0.1-0.2c-8.7,3.4-17.4,6.6-26.2,9.6
		C126.9,154.6,127.1,155.4,127,156.1z"/>
	<path class="st0" d="M213.3,146.2H212c-0.3,0-0.6,0-0.8-0.1c-1.7,1.8-3.7,3.1-6.3,4c-0.8,0.2-1.5,0.2-2.1-0.1
		c-6.5,4.3-13.1,8.4-19.7,12.6h34.4V145c-0.4-0.1-0.9-0.2-1.3-0.3C215.5,145.6,214.5,146.2,213.3,146.2z"/>
	<path d="M217.5,145v17.6h-34.4c-5.1,3.2-10.2,6.4-15.2,9.6h49.6v19.1h-79.2c-4.6,3.1-9.1,6.3-13.5,9.6h92.7V220H113.4v-10.7
		c-8.8,6.7-17.5,13.6-26,20.6v208h-0.1c0.1,0.6,0.1,1.3-0.1,1.9c0.3,0.9,0.2,1.9-0.1,2.8c0,0.1,0,0.1,0,0.2c0.3,0.6,0.4,1.2,0.3,1.9
		c0,0.2,0,0.5,0,0.7c0,0.5,0,1-0.1,1.5c0.1,0,0.1,0,0.2,0v28.6H137v79.2h28.6V449.4h-52v-19.1h52v-9.6h-52v-19.1h104.1v9.6h26V148.6
		C234.8,147.9,226,146.9,217.5,145z M217.5,392.1H113.4V373h104.1V392.1z M217.5,363.4H113.4v-19.1h104.1V363.4z M217.5,334.7H113.4
		v-19.1h104.1V334.7z M217.5,306H113.4v-19.1h104.1V306z M217.5,277.3H113.4v-19.1h104.1V277.3z M217.5,248.6H113.4v-19.1h104.1
		V248.6z"/>
	<polygon points="87.4,475.4 87.4,510.4 87.4,554.6 126.6,554.6 136.9,554.6 136.9,475.4 	"/>
</g>
<g>
	<title>Fichier 11</title>
	<g id="Calque_2_2_">
		<g id="OBJECTS_1_">
			<path class="st1" d="M560.5,185.8c3.7,17.2-3.4,32.8-10.5,43.4c5.5-48.6-30.9-74.7-30.9-74.7C475.6,113.2,505.7,80,505.7,80
				c-78.2,30-73,121-73,121c-19.1-25.1-5.7-51.1-5.7-51.1c-66.3,70.8-12.4,121.4-12.4,121.4c-11.5-10-21-21.7-27.9-34.5
				c2.1,85.6,97.8,95,97.8,95C627.8,270,560.5,185.8,560.5,185.8z"/>
			<path class="st2" d="M520.2,279.2c3.1-27.4-17.5-42.2-17.5-42.2c-24.5-23.3-7.5-42-7.5-42c-44.1,16.9-41.2,68.3-41.2,68.3
				c-10.8-14.2-3.2-28.8-3.2-28.8c-37.4,40-7,68.6-7,68.6c-6.5-5.7-11.8-12.3-15.8-19.5c0.4,17.1,7.5,28.8,16.4,36.8
				c12.6,5.7,26.1,9.6,40.1,11.5c12.7-5.4,24.9-11.7,36.5-18.9c28.3-29.3,5.1-58.2,5.1-58.2C528.2,264.5,524.2,273.3,520.2,279.2z"
				/>
			<path class="st3" d="M506,321.6c14.6-16.7,1.8-32.9,1.8-32.9c0.9,5-0.4,10.1-3.5,14.4c1.3-9.2-2.5-18.4-10.3-24.8
				c-14.5-13.7-4.5-24.7-4.5-24.7c-26,10-24.3,40.2-24.3,40.2c-3.7-5.1-4.4-11.4-1.9-17c-22.1,23.5-4.2,40.3-4.2,40.3
				c-3.8-3.3-7-7.2-9.3-11.5c0.2,9,3.5,15.4,8,20c8.5,2.9,17.4,5,26.5,6.1C492.2,328.5,499.4,325.1,506,321.6z"/>
		</g>
	</g>
</g>
<g>
	<title>Fichier 3</title>
	<g id="Calque_2_3_">
		<g id="OBJECTS_2_">
			<path class="st1" d="M89.5,38c0,0,27.4,50.2-24.5,119.1c0,0-23.8,25.3-13,81.7c0,0-18.4-21.4-13.1-56.8
				c0,0-38.6,121.7,81.7,126.4c0,0,113.9-38.4,42-155.3c0,0,6.5,47.8-7.7,58.2c0,0-23.6-10.4-16.5-63.1c0,0,13-42.2-10.6-71.6
				c0,0,0,34.3-15.4,42.2C112.5,118.8,130.1,60.1,89.5,38z"/>
			<path class="st2" d="M141.2,298.3c12.5-13.6,20.7-36.5-1.2-72.1c0,0,3.7,27.3-4.4,33.3c0,0-13.5-6-9.4-36.1c0,0,7.4-24.2-6.1-41
				c0,0,0,19.6-8.8,24.2c0,0,10.1-33.6-13.2-46.2c0,0,15.7,28.7-14,68.2c0,0-13.6,14.5-7.4,46.7c0,0-10.5-12.2-7.5-32.5
				c0,0-11.1,34.9,6.9,56.2c11.7,5.3,26.2,8.7,44.5,9.4C127.8,305.7,134.7,302.4,141.2,298.3z"/>
			<path class="st3" d="M134,302.4c4.7-8.8,5.6-21.4-5.3-39c0,0,2.3,17.2-2.8,20.9c0,0-8.5-3.7-5.9-22.7c0,0,4.7-15.2-3.8-25.8
				c0,0,0,12.3-5.5,15.2c0,0,6.3-21.1-8.3-29c0,0,9.8,18.1-8.8,42.8c0,0-8.6,9.1-4.7,29.4c0,0-6.6-7.7-4.7-20.4
				c0,0-4.9,15.6,0.3,28.5c11.7,3.8,23.9,5.8,36.1,6.1C125.2,306.7,129.7,304.7,134,302.4z"/>
		</g>
	</g>
</g>
</svg>
