<?xml version="1.0" encoding="utf-8"?>
<!-- Generator: Adobe Illustrator 22.0.1, SVG Export Plug-In . SVG Version: 6.00 Build 0)  -->
<svg version="1.1" id="Capa_1" xmlns="http://www.w3.org/2000/svg" xmlns:xlink="http://www.w3.org/1999/xlink" x="0px" y="0px"
	 viewBox="0 0 554.6 554.6" style="enable-background:new 0 0 554.6 554.6;" xml:space="preserve">
<style type="text/css">
	.st0{fill:none;}
</style>
<rect x="373.6" y="335.5" class="st0" width="26" height="19.9"/>
<rect x="113.4" y="305.6" class="st0" width="104.1" height="19.9"/>
<rect x="113.4" y="216" class="st0" width="104.1" height="19.9"/>
<rect x="113.4" y="275.8" class="st0" width="104.1" height="19.9"/>
<rect x="373.6" y="365.4" class="st0" width="26" height="19.9"/>
<rect x="113.4" y="365.4" class="st0" width="104.1" height="19.9"/>
<rect x="113.4" y="335.5" class="st0" width="104.1" height="19.9"/>
<rect x="113.4" y="245.9" class="st0" width="104.1" height="19.9"/>
<rect x="113.4" y="96.5" class="st0" width="104.1" height="19.9"/>
<path class="st0" d="M78.9,443.2c0.1-0.1,0.2-0.2,0.3-0.4c0.2-0.3,0.3-0.5,0.5-0.7c0.1-0.2,0.2-0.4,0.4-0.6c0-0.2,0-0.3,0.1-0.5
	c-0.3-1.1-0.1-2.4,0.7-3.3c0.4-1.4,1.4-2.5,3.2-2.5c0.4,0,0.8,0.1,1.2,0.2v-2c-39.5,6.5-54.9,27.9-63.1,44.8
	c-13.5-10.5-32-16.6-52.1-16.6c-33.1,0-68.9,18.8-69,49.3c2.2-1.1,4.4-2.1,6.8-3c2.2-0.9,4.5-1.6,6.9-2.3
	c3.6-22.4,31.3-34.4,55.3-34.4c25.4,0,47,11.8,55.9,28.7c7.4-13.2,12-44.4,52.2-55.4C78.3,444,78.5,443.5,78.9,443.2z"/>
<rect x="113.4" y="186.1" class="st0" width="104.1" height="19.9"/>
<rect x="113.4" y="156.3" class="st0" width="104.1" height="19.9"/>
<rect x="113.4" y="126.4" class="st0" width="104.1" height="19.9"/>
<rect x="451.6" y="275.8" class="st0" width="26" height="19.9"/>
<rect x="412.6" y="245.9" class="st0" width="26" height="19.9"/>
<rect x="451.6" y="365.4" class="st0" width="26" height="19.9"/>
<rect x="373.6" y="305.6" class="st0" width="26" height="19.9"/>
<rect x="412.6" y="305.6" class="st0" width="26" height="19.9"/>
<rect x="412.6" y="275.8" class="st0" width="26" height="19.9"/>
<rect x="451.6" y="305.6" class="st0" width="26" height="19.9"/>
<rect x="451.6" y="245.9" class="st0" width="26" height="19.9"/>
<rect x="451.6" y="335.5" class="st0" width="26" height="19.9"/>
<rect x="412.6" y="335.5" class="st0" width="26" height="19.9"/>
<polygon class="st0" points="373.6,285.7 373.6,295.7 399.6,295.7 399.6,275.8 373.6,275.8 "/>
<polygon class="st0" points="373.6,255.9 373.6,265.8 399.6,265.8 399.6,245.9 373.6,245.9 "/>
<rect x="412.6" y="365.4" class="st0" width="26" height="19.9"/>
<rect x="256.5" y="285.7" width="78" height="119.5"/>
<rect x="256.5" y="226" width="78" height="10"/>
<polygon points="373.6,216 399.6,216 399.6,126.4 373.6,126.4 373.6,106.5 256.5,106.5 256.5,126.4 256.5,146.3 373.6,146.3 
	373.6,166.2 256.5,166.2 256.5,176.2 373.6,176.2 373.6,196.1 256.5,196.1 256.5,206.1 373.6,206.1 "/>
<rect x="256.5" y="255.9" width="78" height="10"/>
<path d="M399.6,226h-26h-26v10v19.9v10v19.9v119.5h52h13h26h13h13V455v99.6h39V455V226H399.6z M399.6,385.3h-26v-19.9h26V385.3z
	 M399.6,355.4h-26v-19.9h26V355.4z M399.6,325.6h-26v-19.9h26V325.6z M399.6,295.7h-26v-10v-10h26V295.7z M399.6,265.8h-26v-10v-10
	h26V265.8z M438.6,385.3h-26v-19.9h26V385.3z M438.6,355.4h-26v-19.9h26V355.4z M438.6,325.6h-26v-19.9h26V325.6z M438.6,295.7h-26
	v-19.9h26V295.7z M438.6,265.8h-26v-19.9h26V265.8z M477.6,385.3h-26v-19.9h26V385.3z M477.6,355.4h-26v-19.9h26V355.4z
	 M477.6,325.6h-26v-19.9h26V325.6z M477.6,295.7h-26v-19.9h26V295.7z M477.6,265.8h-26v-19.9h26V265.8z"/>
<polygon points="347.6,415.2 334.5,415.2 256.5,415.2 243.5,415.2 217.5,415.2 178.5,415.2 178.5,425.2 178.5,445.1 178.5,467.3 
	178.5,479.6 178.5,493.2 178.5,544.7 178.5,554.6 192,554.6 198.8,554.6 204.5,554.6 204.5,538.9 204.5,465 204.5,455 243.5,455 
	256.5,455 334.5,455 347.6,455 399.6,455 425.6,455 425.6,554.6 451.6,554.6 451.6,455 451.6,415.2 399.6,415.2 "/>
<polygon points="347.6,465 256.5,465 243.5,465 217.5,465 217.5,554.6 243.5,554.6 243.5,504.8 256.5,504.8 308.5,504.8 
	308.5,554.6 321.5,554.6 321.5,504.8 347.6,504.8 386.6,504.8 386.6,554.6 399.6,554.6 412.6,554.6 412.6,465 399.6,465 "/>
<g>
	<rect x="113.4" y="315.6" class="st0" width="104.1" height="19.1"/>
	<rect x="113.4" y="286.9" class="st0" width="104.1" height="19.1"/>
	<rect x="113.4" y="258.2" class="st0" width="104.1" height="19.1"/>
	<rect x="113.4" y="344.2" class="st0" width="104.1" height="19.1"/>
	<rect x="113.4" y="372.9" class="st0" width="104.1" height="19.1"/>
	<rect x="113.4" y="200.8" class="st0" width="104.1" height="19.1"/>
	<rect x="113.4" y="114.7" class="st0" width="104.1" height="19.1"/>
	<rect x="113.4" y="229.5" class="st0" width="104.1" height="19.1"/>
	<rect x="113.4" y="172.1" class="st0" width="104.1" height="19.1"/>
	<rect x="113.4" y="143.4" class="st0" width="104.1" height="19.1"/>
	<path d="M217.5,95.6V76.5h-26V57.4h-13V0h-26v57.4h-13v19.1h-26v19.1h-26v342.3c0,0-0.1,0-0.1,0c0.1,0.6,0.1,1.3-0.1,1.9
		c0.3,0.9,0.2,1.9-0.1,2.8c0,0.1,0,0.1,0,0.2c0.3,0.6,0.4,1.2,0.3,1.9c0,0.2,0,0.5,0,0.7c0,0.5,0,1-0.1,1.5c0.1,0,0.1,0,0.2,0v28.6
		h49.5v79.2h28.6V449.4h-52v-19.1h52v-9.6h-52v-19.1h104.1v9.6h26V95.6H217.5z M217.5,392.1H113.4v-19.1h104.1V392.1z M217.5,363.4
		H113.4v-19.1h104.1V363.4z M217.5,334.7H113.4v-19.1h104.1V334.7z M217.5,306H113.4v-19.1h104.1V306z M217.5,277.3H113.4v-19.1
		h104.1V277.3z M217.5,248.6H113.4v-19.1h104.1V248.6z M217.5,219.9H113.4v-19.1h104.1V219.9z M217.5,191.2H113.4v-19.1h104.1V191.2
		z M217.5,162.6H113.4v-19.1h104.1V162.6z M217.5,133.9H113.4v-19.1h104.1V133.9z"/>
	<polygon points="87.4,475.4 87.4,510.4 87.4,554.6 126.6,554.6 136.9,554.6 136.9,475.4 	"/>
</g>
</svg>
