<?xml version="1.0" encoding="utf-8"?>
<!-- Generator: Adobe Illustrator 22.0.1, SVG Export Plug-In . SVG Version: 6.00 Build 0)  -->
<svg version="1.1" id="Capa_1" xmlns="http://www.w3.org/2000/svg" xmlns:xlink="http://www.w3.org/1999/xlink" x="0px" y="0px"
	 viewBox="0 0 554.6 554.6" style="enable-background:new 0 0 554.6 554.6;" xml:space="preserve">
<style type="text/css">
	.st0{fill:none;}
	.st1{fill:#F15A24;}
	.st2{fill:#F7931E;}
	.st3{fill:#FCEE21;}
</style>
<rect x="373.6" y="335.5" class="st0" width="26" height="19.9"/>
<path class="st0" d="M151.8,305.6c-2.4,1.8-4.7,3.6-7.1,5.5c-6,4.7-11.9,9.5-17.7,14.5h90.4v-19.9h-65.6V305.6z"/>
<path class="st0" d="M126.7,235.9c0.1,0,0.1-0.1,0.2-0.1c-1,0-2,0.1-3,0.1H126.7z"/>
<path class="st0" d="M154.9,216c0.2,0.8,0.1,1.7-0.4,2.5c1.3-0.3,2.7-0.6,4-0.8c1.5-0.3,3.3,0.5,4.1,1.8c1.6-1.1,3.1-2.3,4.7-3.4
	h-12.4V216z"/>
<path class="st0" d="M178.7,216c-0.2,0.4-0.5,0.7-0.9,1c-5.4,4-10.8,7.9-16.3,11.9c0.1,2.6-0.5,4.9-1.5,7.1h0.7
	c0.1-0.1,0.2-0.3,0.3-0.4c1.6-2,3.9-1.2,5,0.4h51.4v-20H178.7z"/>
<path class="st0" d="M159.1,289.6c-2.1,2-4.2,4.1-6.3,6.1h0.8c2.2-1.6,4.3-3.2,6.5-4.7C159.6,290.6,159.3,290.1,159.1,289.6z"/>
<path class="st0" d="M196.7,275.8c-0.2,0.3-0.5,0.5-0.9,0.8c-9.1,5.1-17.9,10.7-26.5,16.6c1.2,0.1,2.5,0.2,3.7,0.5
	c0.8,0.1,1.4,0.6,1.8,1.2c3.9,0.3,7.8,0.6,11.7,0.6c0.4,0,0.8,0.1,1.1,0.2h29.9v-19.9L196.7,275.8L196.7,275.8z"/>
<path class="st0" d="M146.2,289.8c-0.4-0.3-0.8-0.6-1.1-1.1c-1,0.2-1.9,0.3-2.9,0.5c-2.1,2.3-4.4,4.4-6.7,6.5h7.2
	c1.5-1.5,3.1-3,4.6-4.4C146.8,290.9,146.4,290.4,146.2,289.8z"/>
<rect x="373.6" y="365.4" class="st0" width="26" height="19.9"/>
<path class="st0" d="M160.5,376c-6.4,0-12.9-0.1-19.4,0c-6.3,0.1-12.8,0.5-19-0.7c-0.2,1.9-0.3,3.9-0.5,5.8c0,1.1-0.1,2.2-0.1,3.3
	c5.1,0.4,10.3,0.7,15.4,0.9h21c1.7-3.3,3.5-6.5,5.3-9.7C162.4,375.9,161.5,376,160.5,376z"/>
<path class="st0" d="M177.5,365.4c-3.7,6.7-7.7,13.3-11.4,19.9h51.3v-19.9H177.5z"/>
<path class="st0" d="M161.5,349.4c-6.3,0-12.6-0.5-19-0.3c-6.2,0.3-12.8,0.9-19.1-0.1c0,2,0,3.9-0.1,5.9c0.4,0.2,0.9,0.4,1.4,0.6h50
	c1.5-2.8,2.9-5.6,4.3-8.5C173.9,349.6,167.2,349.4,161.5,349.4z"/>
<path class="st0" d="M191.1,335.5c-2.1,6.9-5,13.5-8.2,19.9h34.6v-19.9H191.1z"/>
<path class="st0" d="M129.6,265.8c0.7-2.4,4.2-3.9,5.9-1.9c0.8-0.8,1.6-1.6,2.3-2.4c-0.1,0-0.1,0-0.2,0c-1.3,0.6-2.7,1.1-4.2,1.4
	c-1.6,0.3-3.2-0.5-4-1.7c-1.3,0.7-2.6,1.5-3.9,2.2c-0.5,0.7-1,1.4-1.5,2.1c0.1,0.1,0.1,0.3,0.2,0.4h5.4V265.8z"/>
<path class="st0" d="M141.5,247.1c0.5-0.2,1-0.4,1.5-0.6c0.2-0.2,0.3-0.4,0.5-0.6h-3.4c-0.5,0.5-1,1-1.4,1.5
	C139.6,246.7,140.6,246.7,141.5,247.1z"/>
<path class="st0" d="M161.5,245.9c-5.8,6.9-11.9,13.5-18.2,19.9h9.6c1.7-2,3.3-3.9,5.1-5.8c3.2-3.4,7.7,1.5,4.9,4.9
	c-0.2,0.3-0.5,0.6-0.7,0.8h55.2v-19.9h-55.9V245.9z"/>
<path class="st0" d="M75,441.7c-0.6-1.8-1-3.8-1.1-5.9c-31.2,8.4-44.5,27.2-51.8,42.4c-13.5-10.5-32-16.6-52.1-16.6
	c-33.1,0-68.9,18.8-69,49.3c2.2-1.1,4.4-2.1,6.8-3c2.2-0.9,4.5-1.6,6.9-2.3c3.6-22.4,31.3-34.4,55.3-34.4c25.4,0,47,11.8,55.9,28.7
	c7.3-13,11.9-43.5,50.5-54.9C75.9,443.9,75.4,442.8,75,441.7z"/>
<path class="st0" d="M148.8,188.2c0.1-0.1,0.1-0.1,0.2-0.2c2.5-2.1,5.8,0,6.1,2.4c1.5-1.4,3.1-2.8,4.6-4.3h-10.3
	c-0.4,0.6-0.8,1.2-1.3,1.7C148.4,188,148.6,188.1,148.8,188.2z"/>
<path class="st0" d="M170,186.1c-3.2,3-6.4,5.9-9.7,8.9c-4,3.7-7.9,7.3-11.9,11h69v-19.9H170z"/>
<path class="st0" d="M148.6,159c1.8-0.4,3.6-0.8,5.4-1c0.7-0.1,1.4,0.1,1.9,0.5c1.2-0.8,2.5-1.5,3.7-2.2h-11
	C148.9,157.1,149,158.1,148.6,159z"/>
<path class="st0" d="M127.4,156.3c1.5,0.6,2.2,2.4,1.9,4c3.2-1.4,6.4-2.7,9.6-4H127.4z"/>
<path class="st0" d="M173.3,160.5c2.2-1.4,4.5-2.8,6.7-4.2h-2.6c-0.4,0.5-1,0.9-1.9,1.1c-0.7,0.2-1.4,0.3-2.2,0.5
	C173.6,158.8,173.6,159.7,173.3,160.5z"/>
<path class="st0" d="M190.2,158.1c-1.7,1.1-3.3,2.1-5,3.1c0,0.7-0.2,1.3-0.6,2C186.5,161.5,188.4,159.8,190.2,158.1z"/>
<path class="st0" d="M164,175.7c0.5-0.7,1.1-1.5,1.6-2.2c-1.4,0.9-2.8,1.7-4.2,2.6h2.3C163.8,176,163.9,175.9,164,175.7z"/>
<path class="st0" d="M202.5,156.3c-7.2,6.6-14.5,13.3-21.7,19.9h36.6v-19.9H202.5z"/>
<path class="st0" d="M211.2,132c-1.3-0.3-2.7-0.7-4-1.1c0.4,0.3,0.7,0.8,0.9,1.3c0.8,0.2,1.7,0.3,2.5,0.5
	C210.7,132.4,210.9,132.2,211.2,132z"/>
<path class="st0" d="M204.1,130c-3.4-1-6.8-2-10.3-2.6l0,0c-1.1,0.5-2.2,1.1-3.3,1.6c3.9,0.7,7.7,1.4,11.6,2.1
	C202.6,130.5,203.3,130.1,204.1,130z"/>
<path class="st0" d="M169.8,145.7c-1.3,0.3-2.8,0.5-4.2,0.6h3.8C169.5,146.1,169.6,145.9,169.8,145.7z"/>
<path class="st0" d="M180.6,143.8c-0.4,0.1-0.8,0.2-1.2,0.2c-0.5,0.8-1,1.5-1.6,2.3h14.3c-0.5-0.5-0.8-1.2-0.9-1.9
	C187.6,145.6,183.7,145.6,180.6,143.8z"/>
<path class="st0" d="M216.2,144.7c-0.7,0.9-1.7,1.5-2.9,1.5H212c-0.3,0-0.6,0-0.8-0.1c-0.1,0.1-0.1,0.2-0.2,0.2h6.5V145
	C217.1,144.9,216.6,144.8,216.2,144.7z"/>
<path class="st0" d="M152.9,144.5c-0.1-0.1-0.1-0.1-0.2-0.2c-1.7,0.7-3.4,1.4-5.1,2h7.3C154.2,145.7,153.5,145,152.9,144.5z"/>
<path class="st0" d="M120.1,126.4c-0.1,0-0.2,0.1-0.3,0.1c-0.7,1.7-2,4.2-2.8,6.5c0.7-0.8,1.4-1.6,2-2.3c2.3-2.4,5.6-0.4,5.9,2.2
	c2.6-2.5,5.6-4.6,8.6-5.6c2-0.7,3.6,0.6,4.1,2.3c2.5-0.4,5-0.6,7.6-0.7c1.2,0,2.2,0.6,2.8,1.5c1.2-0.2,2.4-0.3,3.6-0.5
	c2.3-0.7,4.6-1.5,6.9-2.3c0-0.5,0.1-0.9,0.3-1.4h-38.7V126.4z"/>
<path class="st0" d="M476.5,290.1c0.1,0.1,0.3,0.2,0.4,0.3c-1-1-2-2-3-3l0,0C474.3,288.3,475.8,289.5,476.5,290.1z"/>
<path class="st0" d="M464.9,291.4c0.3,0.4,0.6,0.7,0.9,1.1c0.3-0.2,0.6-0.4,0.9-0.6c-2.8-4.1-5.4-8.3-7.7-12.7
	c-0.8,0.5-1.7,0.7-2.6,0.6C459.2,283.7,462,287.5,464.9,291.4z"/>
<path class="st0" d="M456.9,379.2c-1-4.1,0.4-7.5,2.8-9.6c-2.4-1.4-4.9-2.7-7.3-4.1h-0.8v19.9h6.6
	C457.8,383.3,457.4,381.2,456.9,379.2z"/>
<path class="st0" d="M390,311.4c-0.8-0.6-1.6-1.1-2.5-1.7c-0.1,0-0.1,0-0.2,0c1.2,0.9,2.4,1.8,3.6,2.6
	C390.6,312,390.3,311.7,390,311.4z"/>
<path class="st0" d="M385.5,317c-4-2.9-8-5.9-12-8.9v17.5h21.1c-2.7-2.3-5.5-4.7-8.1-7.1C386,318,385.7,317.5,385.5,317z"/>
<path class="st0" d="M420,312.8c2.4,2.1,4.8,4.3,7.2,6.4c-2.1-2.5-4.3-5-6.4-7.6C420.6,312.1,420.3,312.5,420,312.8z"/>
<path class="st0" d="M458,320.9c0.7,0.8,1.3,1.6,2,2.4c0.4-2.1,1.4-4,2.9-5.4c-1.3-1.6-2.7-3.3-4-5c-0.3,0-0.5,0-0.8,0
	C459.3,315.4,459.2,318.5,458,320.9z"/>
<path class="st0" d="M463,254.2c0.6,1,1.2,1.9,1.8,2.8c3.3,1.3,6.5,2.8,9.7,4.5c0.1-0.2,0.1-0.3,0.2-0.5
	c-5.6-4.6-11.3-9.3-16.9-13.9c-0.1,1.2-0.3,2.3-0.4,3.5c-0.2,1.4-0.4,2.8-0.7,4.2C457.8,252.5,461.4,251.5,463,254.2z"/>
<path class="st0" d="M457,257.8c-0.4-0.6-0.5-1.2-0.5-1.7c-0.2,1-0.5,2-0.8,3c-0.5,1.4-0.9,2.6-0.7,3.7c0.8-0.6,1.9-0.8,2.9-0.6
	c0.9,0.2,1.7,0.4,2.5,0.7c0-0.1-0.1-0.2-0.1-0.3C459.1,261,458,259.4,457,257.8z"/>
<path class="st0" d="M434.1,354.4c-0.5-0.2-0.9-0.5-1.3-0.9c-6.9-4.4-13.6-9-20.2-13.8v15.8h23.3c-0.5-0.3-0.9-0.6-1.4-0.9
	C434.3,354.5,434.2,354.4,434.1,354.4z"/>
<path class="st0" d="M373.6,282.2L373.6,282.2c0.8,0.4,1.5,0.9,2.2,1.3c1.9,1.2,2,3.3,1.1,4.8c0.4,0.7,0.8,1.4,1.2,2.1
	c0.9-1.4,2.7-2.4,4.7-1.4c0.2,0.1,0.5,0.3,0.7,0.4c-1.4-1.3-2.8-2.5-4.2-3.8c-2.2-1-4-2.4-5.8-4L373.6,282.2L373.6,282.2z"/>
<rect x="412.6" y="365.4" class="st0" width="26" height="19.9"/>
<rect x="256.5" y="285.7" width="78" height="119.5"/>
<path d="M458.2,385.3h-6.6v-19.9h0.8c-5.6-3.2-11.1-6.5-16.6-10h-23.3v-15.8c-6.1-4.5-12.1-9.2-17.9-14.1h-21.1V308
	c-9-6.9-17.8-14-26-21.9v119h112.6C459.9,398.6,459.4,391.9,458.2,385.3z M399.6,385.3h-26v-19.9h26V385.3z M399.6,355.4h-26v-19.9
	h26V355.4z M438.6,385.3h-26v-19.9h26V385.3z"/>
<polygon points="347.6,415.2 334.5,415.2 256.5,415.2 243.5,415.2 217.5,415.2 178.5,415.2 178.5,425.2 178.5,445.1 178.5,467.3 
	178.5,479.6 178.5,493.2 178.5,544.7 178.5,554.6 192,554.6 198.8,554.6 204.5,554.6 204.5,538.9 204.5,465 204.5,455 243.5,455 
	256.5,455 334.5,455 347.6,455 399.6,455 425.6,455 425.6,554.6 451.6,554.6 451.6,455 451.6,415.2 399.6,415.2 "/>
<polygon points="347.6,465 256.5,465 243.5,465 217.5,465 217.5,554.6 243.5,554.6 243.5,504.8 256.5,504.8 308.5,504.8 
	308.5,554.6 321.5,554.6 321.5,504.8 347.6,504.8 386.6,504.8 386.6,554.6 399.6,554.6 412.6,554.6 412.6,465 399.6,465 "/>
<g>
	<path class="st0" d="M139.2,315.6c-5.1,4.1-10.2,8.4-15.2,12.6c1.1,0.4,3.3,1.1,3.7,1.2c5.7,0.6,11.5-0.2,17.2-0.4
		c5-0.1,10,0.3,14.9,0.3c2.7,0,5.3,0,8-0.1c0.4,0,1.4,0.1,2.1,0.1c0.1,0,0.1-0.1,0.2-0.1c-0.1,0-0.2,0-0.3-0.1
		c0.2,0,0.5-0.1,0.7-0.2c5.3-3.1,11.4-0.2,14,4.4c0.2-0.8,0.5-1.5,0.7-2.3c1.2-4.3,8-2.5,6.8,1.9c-0.2,0.6-0.4,1.2-0.5,1.8h26.1
		v-19.1L139.2,315.6L139.2,315.6z"/>
	<path class="st0" d="M147.3,291.3c-0.5-0.3-0.8-0.8-1-1.4c-0.4-0.3-0.8-0.6-1.1-1.1c-1,0.2-1.9,0.3-2.9,0.5
		c-3.4,3.7-7.1,7.1-11.2,10.1c-0.1,0.3-0.1,0.5-0.2,0.8c1.9-0.1,3.7,1.4,3.7,3.4C138.8,299.4,143,295.4,147.3,291.3z"/>
	<path class="st0" d="M159.1,289.6c-3,2.9-6,5.8-9,8.7c3.3-2.5,6.6-4.9,10-7.2C159.7,290.6,159.3,290.1,159.1,289.6z"/>
	<path class="st0" d="M178.7,286.9c-3.2,2-6.3,4.1-9.4,6.3c1.2,0.1,2.5,0.2,3.7,0.5c0.8,0.1,1.4,0.6,1.8,1.2
		c3.9,0.3,7.8,0.6,11.7,0.6c4.5,0.1,4.5,7.1,0,7c-8.9-0.1-17.6-1.4-26.5-1.5c-0.6,0-1-0.1-1.5-0.3c-2.4,1.7-4.8,3.5-7.2,5.3h66.1
		v-19.1H178.7z"/>
	<path class="st0" d="M124.6,272c0.8,0,1.5,0.4,2,0.9c0.9-0.9,1.8-1.8,2.7-2.7c0-1.2,0.1-2.5,0.2-3.7c0.2-2.8,4.2-4.8,6-2.6
		c0.8-0.8,1.6-1.6,2.3-2.4c-0.1,0-0.1,0-0.2,0c-1.3,0.6-2.7,1.1-4.2,1.4c-1.6,0.3-3.2-0.5-4-1.7c-1.3,0.7-2.6,1.5-3.9,2.2
		c-0.5,0.7-1,1.4-1.5,2c0.1,0.2,0.2,0.4,0.3,0.7C125.1,268.1,125.1,270.1,124.6,272z"/>
	<path class="st0" d="M150.6,258.2c-4.1,4.4-8.3,8.7-12.5,13c0.1,0.6,0.3,1.2,0.4,1.8c2.6-0.1,5.8-0.5,8.6,0.1
		c3.6-4.4,7.2-8.9,11-13c3.2-3.4,7.7,1.5,4.9,4.9c-2.6,3.3-5.6,6.2-8,9.6c0.3,0.8,0.4,1.6,0.2,2.5c0.8-0.7,1.6-1.4,2.5-2.1
		c1.8-1.2,3.9-0.2,4.8,1.4c2.5-2.5,5-4.9,7.5-7.4c3.1-3.1,7.9,1.6,5.1,4.8c0.6,0.7,1,1.6,0.8,2.6c0.1,0,0.3-0.1,0.4-0.1
		c1.9-0.7,3.9-1.2,6.1-1.3c0.6,0,1.1,0.1,1.5,0.3c2.7-1.6,5.4-3.2,8.2-4.8c3.9-2.2,7.5,3.8,3.5,6c-0.5,0.3-0.9,0.5-1.4,0.8h23.1
		v-19.1L150.6,258.2L150.6,258.2z"/>
	<path class="st0" d="M188,344.2c-2.7,6.5-5.9,12.9-9.3,19.1h38.8v-19.1H188z"/>
	<path class="st0" d="M161.5,349.4c-6.3,0-12.6-0.5-19-0.3c-6.2,0.3-12.8,0.9-19.1-0.1c0,2,0,3.9-0.1,5.9c5.7,2.8,13.9,1.2,20,1.2
		c5.7,0,11.4,0,17.1,0c5.3,0,8.4,3.4,9.4,7.4h0.5c3.1-5.4,6.1-10.8,8.7-16.4C173.9,349.6,167.2,349.4,161.5,349.4z"/>
	<path class="st0" d="M160.5,376c-6.4,0-12.9-0.1-19.4,0c-6.3,0.1-12.8,0.5-19-0.7c-0.2,1.9-0.3,3.9-0.5,5.8c0,1.1-0.1,2.2-0.1,3.3
		c8.1,0.7,16.3,1,24.4,1.1c4.7,0,7.6,2.7,8.9,6c0.5-0.9,0.9-1.9,1.4-2.8c2.1-4.4,4.5-8.8,7-13.1C162.4,375.9,161.5,376,160.5,376z"
		/>
	<path class="st0" d="M173.2,372.9c-3.7,6.4-7.4,12.7-10.7,19.1h55v-19.1H173.2z"/>
	<path class="st0" d="M138,206c-0.9,0.8-2.1,0.9-3.2,0.7c-1.9,2.6-3.7,5.2-5.6,7.9c3.9-3.6,7.8-7.3,11.7-10.9
		C139.9,204.4,138.9,205.2,138,206z"/>
	<path class="st0" d="M154.2,200.8c-5.6,5.2-11.3,10.5-16.9,15.7c1.9-0.4,3.7-0.8,5.6-1c0.6-0.1,1.3-0.1,1.9-0.1
		c1.6-0.6,3.3-1.2,4.9-1.9c3.5-1.6,6.6,2.5,4.8,5c1.3-0.3,2.7-0.6,4-0.8c1.5-0.3,3.3,0.5,4.1,1.8c3.9-2.8,7.7-5.6,11.5-8.4
		c3.6-2.7,7.1,3.4,3.5,6c-1.3,1-2.6,1.9-4,2.9h43.7v-19.1L154.2,200.8L154.2,200.8z"/>
	<path class="st0" d="M124.9,133c2.6-2.5,5.6-4.6,8.6-5.6c2-0.7,3.6,0.6,4.1,2.3c2.5-0.4,5-0.6,7.6-0.7c1.2,0,2.2,0.6,2.8,1.5
		c1.2-0.2,2.4-0.3,3.6-0.5c2.3-0.7,4.6-1.5,6.9-2.3c0-2,1.7-4.3,4.4-3.8c4.9,0.9,9.9,1.8,14.8,2.7c2.3-1,4.5-1.9,6.8-2.9
		c0.1-0.2,0.2-0.3,0.3-0.5c-0.6-0.1-1.2-0.3-1.8-0.5c-2-0.7-3.1-2.8-2.3-4.7c-8.9,1.2-17.9,2-26.9,2.5c-1.4,0.6-2.8,1.2-4.1,1.8
		c-2,1-3.9-0.1-4.8-1.5c-2.8,0-5.5,0.1-8.3,0c-0.9,0-1.6-0.4-2.2-0.9c-4.8,2.1-9.5,4.3-14.2,6.4c-0.1,0.1-0.3,0.1-0.4,0.2
		c-0.7,1.7-2,4.2-2.8,6.5c0.7-0.8,1.4-1.6,2-2.3C121.3,128.4,124.6,130.4,124.9,133z"/>
	<path class="st0" d="M204.1,130c-3.4-1-6.8-2-10.3-2.6l0,0c-1.1,0.5-2.2,1.1-3.3,1.6c3.9,0.7,7.7,1.4,11.6,2.1
		C202.6,130.5,203.3,130.1,204.1,130z"/>
	<path class="st0" d="M211.2,132c-1.3-0.3-2.7-0.7-4-1.1c0.4,0.3,0.7,0.8,0.9,1.3c0.8,0.2,1.7,0.3,2.5,0.5
		C210.7,132.4,210.9,132.2,211.2,132z"/>
	<path class="st0" d="M212,120.2c-0.4,0-0.9,0-1.3,0c-0.9,0-1.6-0.4-2.2-0.9c-1.9,1-3.7,2.1-5.6,3.1c3.5,1,7,2.1,10.5,2.9
		c0.1-0.5,0.3-1,0.5-1.5C212.4,123.2,211.8,121.7,212,120.2z"/>
	<path class="st0" d="M122.5,236c-1.1,0.1-2-0.4-2.6-1.1c-0.3,1.5-0.8,3.1-1.3,4.5c0.1,0.5,0.2,0.9,0.3,1.4c2.7-1.6,5.4-3.3,8-5
		C125.4,235.8,123.9,235.9,122.5,236z"/>
	<path class="st0" d="M139.5,235c-4.7,4.1-10,7.5-15.3,10.8c0.3,0.3,0.5,0.7,0.6,1.1c5.5-4,11.1-8.1,16.6-12.1
		C140.8,234.9,140.1,235,139.5,235z"/>
	<path class="st0" d="M141.5,247.1c0.5-0.2,0.9-0.4,1.4-0.6c2.1-2.8,4.1-5.6,6-8.6c-1.1,0.8-2.3,1.6-3.4,2.5c-2.5,2.2-4.8,4.7-6.9,7
		C139.6,246.7,140.6,246.7,141.5,247.1z"/>
	<path class="st0" d="M161.5,229.5c0,3.3-1.2,6.2-2.9,8.9c0.8-1,1.6-1.9,2.4-2.9c2.8-3.5,7.7,1.5,4.9,4.9c-2.2,2.8-4.5,5.5-6.8,8.1
		h58.3v-19.1h-55.9V229.5z"/>
	<path class="st0" d="M164,175.7c0.5-0.7,1.1-1.5,1.6-2.2c-4.4,2.7-8.7,5.5-13,8.3c-1.5,2-2.9,4-4.4,6c0.2,0.1,0.4,0.2,0.6,0.3
		c0.1-0.1,0.1-0.1,0.2-0.2c2.5-2.1,5.8,0,6.1,2.4c3.5-3.3,7.1-6.6,10.7-9.8C163.9,179.8,162.5,177.9,164,175.7z"/>
	<path class="st0" d="M185.3,172.1c-6.9,6.4-13.8,12.7-20.8,19.1h53v-19.1H185.3z"/>
	<path class="st0" d="M143.1,177.4c-0.2-0.3-0.4-0.6-0.6-1c-4.3,2.9-8.5,5.9-12.7,8.9c0.1,0.1,0.2,0.2,0.3,0.3
		c0.6-0.4,1.2-0.9,1.9-1.3C135.6,181.8,139.4,179.7,143.1,177.4z"/>
	<path class="st0" d="M191.2,144.4c-3.6,1.2-7.4,1.3-10.6-0.6c-0.4,0.1-0.8,0.2-1.2,0.2c-1.5,2.2-3,4.4-4.5,6.5
		c3.4,0.5,4.5,5.9,0.6,6.8c-0.7,0.2-1.4,0.3-2.2,0.6c0.3,0.8,0.3,1.8,0,2.5c6.9-4.3,13.8-8.6,20.6-13
		C192.5,147,191.4,145.8,191.2,144.4z"/>
	<path class="st0" d="M127,156.1c1.8,0.5,2.6,2.4,2.3,4.2c5.1-2.2,10.1-4.3,15.3-6.2c3.1-1.1,5.1,2.4,4,4.9c1.8-0.4,3.6-0.8,5.4-1
		c0.7-0.1,1.4,0.1,1.9,0.5c2.6-1.6,5.3-3.2,8-4.5c2-2.8,3.9-5.5,5.8-8.3c-2.8,0.6-6.1,0.6-9.1,1.3c-0.8,0.8-1.9,1.2-3.2,0.8
		c-1.7-0.5-3.2-2.1-4.5-3.2c-0.1-0.1-0.1-0.1-0.1-0.2c-8.7,3.4-17.4,6.6-26.2,9.6C126.9,154.6,127.1,155.4,127,156.1z"/>
	<path class="st0" d="M185.3,161.2c0,0.4-0.1,0.9-0.3,1.4h0.3c1.6-1.5,3.3-3,4.9-4.5C188.6,159.1,186.9,160.2,185.3,161.2z"/>
	<path class="st0" d="M216.2,144.7c-0.7,0.9-1.7,1.5-2.9,1.5H212c-0.3,0-0.6,0-0.8-0.1c-1.7,1.8-3.7,3.1-6.3,4h-0.1
		c1,1.2,1.2,3-0.3,4.4c-2.9,2.7-5.9,5.4-8.8,8.1h21.8V145C217,144.9,216.6,144.8,216.2,144.7z"/>
	<path d="M217.5,145v17.6h-21.8c-3.5,3.2-6.9,6.4-10.4,9.6h32.2v19.1h-53c-1.4,1.3-2.8,2.5-4.1,3.8c-2.1,1.9-4.1,3.8-6.2,5.8h63.3
		V220h-43.7c-4.1,3-8.2,6-12.3,8.9c0,0.2,0,0.4,0,0.6h56v19.1h-58.3c-2.8,3.2-5.7,6.4-8.6,9.6h66.9v19.1h-23.1
		c-5.3,3-10.6,6.2-15.8,9.6h38.8V306h-66.1c-2.2,1.7-4.4,3.4-6.6,5.1c-1.9,1.5-3.7,3-5.6,4.4h78.3v19.1h-26.1
		c-1,3.2-2.1,6.4-3.4,9.6h29.5v19.1h-38.8c-1.8,3.2-3.6,6.4-5.4,9.6h44.2V392h-55c-0.9,1.8-1.8,3.6-2.7,5.4c-0.7,1.4-1.3,2.8-2,4.2
		h59.6v9.6h26V148.6C234.8,147.9,226,146.9,217.5,145z"/>
</g>
<g>
	<title>Fichier 5</title>
	<g id="Calque_2_2_">
		<g id="OBJECTS_1_">
			<path class="st1" d="M461.7,267c0,0-125.5,20-81.5,143.9c0,0-23.1-8.2-24.8-46c0,0-44.6,71.5,77.6,103.4
				c0,0,106.8-49.6,28.6-124.8c0,0,11.6,31.4-2.2,46.5c0,0-25.9-22.8-13.2-59.2c0,0-16.6,13.7-16,20.5
				C430.3,351.3,414.9,300.7,461.7,267z"/>
			<path class="st2" d="M453,405.8c0,0-0.2,12.7-7.7,20.8c0,0-12.8-7.6-5.9-27.4c0,0-11.7,7.1-10.6,15.8c0,0-29.3-31.9-17.4-59
				c0,0-31.9,19.4-7.9,86.7c0,0-12.3-2.1-17.8-20c-4.9,9.9-3.2,21.2,4.5,29.7c13.4,6.8,27.9,12.1,42.9,15.9
				c11.3-5.6,21.6-12.5,30.6-20.5C468.6,437.2,467.9,423.2,453,405.8z"/>
			<path class="st3" d="M447.7,431.9c0,0,0.7,11.7-4.3,17.1c0,0-9.4-8.3-4.8-21.6c0,0-12.6,5.7-11.9,14.4c0,0-20.2-22-14.6-33.3
				c0,0-15.4,18.2-0.2,45.9c0,0-9.1,0.5-14.7-10.3c0,0-3.1,6,4.9,13.9c10,4.1,20.3,7.6,30.9,10.3c8.4-4.2,16.3-9.1,23.5-14.7
				C457.2,447.6,454.9,440.4,447.7,431.9z"/>
		</g>
	</g>
</g>
<g>
	<title>Fichier 6</title>
	<g id="Calque_2_3_">
		<g id="OBJECTS_2_">
			<path class="st1" d="M361,306.9c0,0-19.3-22.9,7.8-53.3c-12.5,3-23.5,10.2-31.3,20.6c5-16.4,4.6-42.4-27.7-70.5
				c0,0,14.8,26.6-7.4,55.1c0,0-15.2,15.1-19.1,36.8c-0.7-12.6-5.8-30.8-28.4-39.3c0,0,19.6,24.2,0,67.4c0,0-32.3,65.8,57.9,86.4
				c0,0,61-17.7,60.8-68.4C373.5,341.7,372.2,322.9,361,306.9z"/>
			<path class="st2" d="M341.6,396.1c6.4-6.8,11.2-15.9,11.1-27.6c-0.9-8.3-3.7-16.3-8.3-23.2c0,0-12.9-15.2,5.2-35.5
				c-8.3,2-15.7,6.8-20.9,13.7c3.3-10.9,3.1-28.2-18.5-46.9c0,0,9.9,17.7-4.9,36.7c0,0-10.1,10.1-12.7,24.5
				c-0.5-8.3-3.9-20.5-18.9-26.1c0,0,13,16.1,0,44.9c0,0-11.6,23.6,6,41.6c8.6,4.8,19.4,8.9,33,12
				C323,406.8,332.7,402.1,341.6,396.1z"/>
			<path class="st3" d="M330.5,402.7c4.6-4.7,7.1-11,7.1-17.5c-0.5-5.3-2.4-10.3-5.3-14.7c0,0-8.2-9.7,3.3-22.5
				c-5.3,1.2-9.9,4.3-13.2,8.7c2.1-6.9,1.9-17.8-11.7-29.7c0,0,6.3,11.2-3.1,23.3c-4.1,4.3-6.9,9.7-8.1,15.5
				c-0.3-5.3-2.5-13-12-16.6c0,0,8.2,10.2,0,28.5c0,0-7.1,14.5,3.3,25.8c7.1,2.8,14.5,5.1,21.9,6.8
				C318.8,408.2,324.8,405.7,330.5,402.7z"/>
		</g>
	</g>
</g>
</svg>
