<?xml version="1.0" encoding="utf-8"?>
<!-- Generator: Adobe Illustrator 22.0.1, SVG Export Plug-In . SVG Version: 6.00 Build 0)  -->
<svg version="1.1" id="Capa_1" xmlns="http://www.w3.org/2000/svg" xmlns:xlink="http://www.w3.org/1999/xlink" x="0px" y="0px"
	 viewBox="0 0 554.6 554.6" style="enable-background:new 0 0 554.6 554.6;" xml:space="preserve">
<style type="text/css">
	.st0{fill:none;}
	.st1{fill:#F15A24;}
	.st2{fill:#F7931E;}
	.st3{fill:#FCEE21;}
</style>
<rect x="373.6" y="335.5" class="st0" width="26" height="19.9"/>
<rect x="113.4" y="305.6" class="st0" width="104.1" height="19.9"/>
<rect x="113.4" y="216" class="st0" width="104.1" height="19.9"/>
<rect x="113.4" y="275.8" class="st0" width="104.1" height="19.9"/>
<rect x="373.6" y="365.4" class="st0" width="26" height="19.9"/>
<rect x="113.4" y="365.4" class="st0" width="104.1" height="19.9"/>
<rect x="113.4" y="335.5" class="st0" width="104.1" height="19.9"/>
<rect x="113.4" y="245.9" class="st0" width="104.1" height="19.9"/>
<path class="st0" d="M142.3,116.4h75.1V96.5H189C173.4,102.9,157.8,109.6,142.3,116.4z"/>
<path class="st0" d="M78.9,443.2c0.1-0.1,0.2-0.2,0.3-0.4c0.2-0.3,0.3-0.5,0.5-0.7c0.1-0.2,0.2-0.4,0.4-0.6c0-0.2,0-0.3,0.1-0.5
	c-0.3-1.1-0.1-2.4,0.7-3.3c0.4-1.4,1.4-2.5,3.2-2.5c0.4,0,0.8,0.1,1.2,0.2v-2c-39.5,6.5-54.9,27.9-63.1,44.8
	c-13.5-10.5-32-16.6-52.1-16.6c-33.1,0-68.9,18.8-69,49.3c2.2-1.1,4.4-2.1,6.8-3c2.2-0.9,4.5-1.6,6.9-2.3
	c3.6-22.4,31.3-34.4,55.3-34.4c25.4,0,47,11.8,55.9,28.7c7.4-13.2,12-44.4,52.2-55.4C78.3,444,78.5,443.5,78.9,443.2z"/>
<rect x="113.4" y="186.1" class="st0" width="104.1" height="19.9"/>
<rect x="113.4" y="156.3" class="st0" width="104.1" height="19.9"/>
<path class="st0" d="M113.4,129.4v16.9h104.1v-19.9h-97.4C117.9,127.4,115.7,128.4,113.4,129.4z"/>
<rect x="451.6" y="275.8" class="st0" width="26" height="19.9"/>
<rect x="412.6" y="245.9" class="st0" width="26" height="19.9"/>
<rect x="451.6" y="365.4" class="st0" width="26" height="19.9"/>
<rect x="373.6" y="305.6" class="st0" width="26" height="19.9"/>
<rect x="412.6" y="305.6" class="st0" width="26" height="19.9"/>
<rect x="412.6" y="275.8" class="st0" width="26" height="19.9"/>
<rect x="451.6" y="305.6" class="st0" width="26" height="19.9"/>
<rect x="451.6" y="245.9" class="st0" width="26" height="19.9"/>
<rect x="451.6" y="335.5" class="st0" width="26" height="19.9"/>
<rect x="412.6" y="335.5" class="st0" width="26" height="19.9"/>
<polygon class="st0" points="373.6,285.7 373.6,295.7 399.6,295.7 399.6,275.8 373.6,275.8 "/>
<polygon class="st0" points="373.6,255.9 373.6,265.8 399.6,265.8 399.6,245.9 373.6,245.9 "/>
<rect x="412.6" y="365.4" class="st0" width="26" height="19.9"/>
<rect x="256.5" y="285.7" width="78" height="119.5"/>
<rect x="256.5" y="226" width="78" height="10"/>
<polygon points="373.6,216 399.6,216 399.6,126.4 373.6,126.4 373.6,106.5 256.5,106.5 256.5,126.4 256.5,146.3 373.6,146.3 
	373.6,166.2 256.5,166.2 256.5,176.2 373.6,176.2 373.6,196.1 256.5,196.1 256.5,206.1 373.6,206.1 "/>
<rect x="256.5" y="255.9" width="78" height="10"/>
<path d="M399.6,226h-26h-26v10v19.9v10v19.9v119.5h52h13h26h13h13V455v99.6h39V455V226H399.6z M399.6,385.3h-26v-19.9h26V385.3z
	 M399.6,355.4h-26v-19.9h26V355.4z M399.6,325.6h-26v-19.9h26V325.6z M399.6,295.7h-26v-10v-10h26V295.7z M399.6,265.8h-26v-10v-10
	h26V265.8z M438.6,385.3h-26v-19.9h26V385.3z M438.6,355.4h-26v-19.9h26V355.4z M438.6,325.6h-26v-19.9h26V325.6z M438.6,295.7h-26
	v-19.9h26V295.7z M438.6,265.8h-26v-19.9h26V265.8z M477.6,385.3h-26v-19.9h26V385.3z M477.6,355.4h-26v-19.9h26V355.4z
	 M477.6,325.6h-26v-19.9h26V325.6z M477.6,295.7h-26v-19.9h26V295.7z M477.6,265.8h-26v-19.9h26V265.8z"/>
<polygon points="347.6,415.2 334.5,415.2 256.5,415.2 243.5,415.2 217.5,415.2 178.5,415.2 178.5,425.2 178.5,445.1 178.5,467.3 
	178.5,479.6 178.5,493.2 178.5,544.7 178.5,554.6 192,554.6 198.8,554.6 204.5,554.6 204.5,538.9 204.5,465 204.5,455 243.5,455 
	256.5,455 334.5,455 347.6,455 399.6,455 425.6,455 425.6,554.6 451.6,554.6 451.6,455 451.6,415.2 399.6,415.2 "/>
<polygon points="347.6,465 256.5,465 243.5,465 217.5,465 217.5,554.6 243.5,554.6 243.5,504.8 256.5,504.8 308.5,504.8 
	308.5,554.6 321.5,554.6 321.5,504.8 347.6,504.8 386.6,504.8 386.6,554.6 399.6,554.6 412.6,554.6 412.6,465 399.6,465 "/>
<g>
	<rect x="113.4" y="315.6" class="st0" width="104.1" height="19.1"/>
	<rect x="113.4" y="286.9" class="st0" width="104.1" height="19.1"/>
	<rect x="113.4" y="258.2" class="st0" width="104.1" height="19.1"/>
	<rect x="113.4" y="344.2" class="st0" width="104.1" height="19.1"/>
	<rect x="113.4" y="372.9" class="st0" width="104.1" height="19.1"/>
	<rect x="113.4" y="200.8" class="st0" width="104.1" height="19.1"/>
	<path class="st0" d="M120.2,126.3c-2.3,1-4.5,2.1-6.8,3.1v4.4h104.1v-19.1h-71.3C137.5,118.6,128.8,122.4,120.2,126.3z"/>
	<rect x="113.4" y="229.5" class="st0" width="104.1" height="19.1"/>
	<rect x="113.4" y="172.1" class="st0" width="104.1" height="19.1"/>
	<rect x="113.4" y="143.4" class="st0" width="104.1" height="19.1"/>
	<path d="M217.5,85.2c-24,9.3-47.8,19.2-71.3,29.5h71.3v19.1H113.4v-4.4c-8.7,4-17.4,8-26,12v296.4h-0.1c0.1,0.6,0.1,1.3-0.1,1.9
		c0.3,0.9,0.2,1.9-0.1,2.8c0,0.1,0,0.1,0,0.2c0.3,0.6,0.4,1.2,0.3,1.9c0,0.2,0,0.5,0,0.7c0,0.5,0,1-0.1,1.5c0.1,0,0.1,0,0.2,0v28.6
		H137v79.2h28.6V449.4h-52v-19.1h52v-9.6h-52v-19.1h104.1v9.6h26V95.6h-26V85.2H217.5z M217.5,392.1H113.4V373h104.1V392.1z
		 M217.5,363.4H113.4v-19.1h104.1V363.4z M217.5,334.7H113.4v-19.1h104.1V334.7z M217.5,306H113.4v-19.1h104.1V306z M217.5,277.3
		H113.4v-19.1h104.1V277.3z M217.5,248.6H113.4v-19.1h104.1V248.6z M217.5,219.9H113.4v-19.1h104.1V219.9z M217.5,191.2H113.4v-19.1
		h104.1V191.2z M217.5,162.6H113.4v-19.1h104.1V162.6z"/>
	<polygon points="87.4,475.4 87.4,510.4 87.4,554.6 126.6,554.6 136.9,554.6 136.9,475.4 	"/>
</g>
<g>
	<title>Fichier 4</title>
	<g id="Calque_2_2_">
		<g id="OBJECTS_1_">
			<path class="st1" d="M419.3,10c0.9,12.3-6.7,28.2-14.1,40.3c-1.5-33,9.1-89.3-39-127.2c0,0,23.4,46-15.1,77
				C338.8,10,328.4,21.8,320.4,35c-3.6-13.6-14.5-29.4-40.5-44.5c0,0,27.2,45.5,2.1,72.1c0,0,10.1-27.7-17.1-42.6
				c0,0,10.9,17.6-3.4,47.6c0,0-35,70.6,79.1,98.6C458.7,133.3,419.3,10,419.3,10z"/>
			<path class="st1" d="M419.3,10c0.9,12.3-6.7,28.2-14.1,40.3c-1.5-33,9.1-89.3-39-127.2c0,0,23.4,46-15.1,77
				C338.8,10,328.4,21.8,320.4,35c-3.6-13.6-14.5-29.4-40.5-44.5c0,0,27.2,45.5,2.1,72.1c0,0,10.1-27.7-17.1-42.6
				c0,0,10.9,17.6-3.4,47.6c0,0-35,70.6,79.1,98.6C458.7,133.3,419.3,10,419.3,10z"/>
			<path class="st2" d="M379.9,100.6c-1-20.2,5.5-54.8-24-78c0,0,14.3,28.2-9.3,47.2c-7.5,6.1-13.9,13.3-18.8,21.4
				c-2.2-8.3-8.9-18-24.8-27.3c0,0,16.7,27.9,1.4,44.2c0,0,6.2-17-10.5-26.1c0,0,6.7,10.8-2.1,29.2c0,0-10.6,21.5,7.5,40.1
				c13.1,6.5,27,11.5,41.4,14.8c11.7-3.2,22.8-7.8,33.2-13.7c25.9-29.1,14.7-76.7,14.7-76.7C389.2,83.5,384.5,93.2,379.9,100.6z"/>
			<path class="st3" d="M364.9,132.7c-0.6-12.6,3.4-34.2-15-48.7c0,0,8.9,17.6-5.8,29.5c-4.7,3.8-8.7,8.3-11.7,13.4
				c-1.4-5.2-5.5-11.3-15.5-17c0,0,10.4,17.4,0.8,27.6c0,0,3.9-10.6-6.5-16.3c0,0,4.2,6.8-1.3,18.2c-2.3,5.3-2.5,11.2-0.7,16.7
				c10.2,4.2,20.7,7.6,31.5,10.2c9.1-2.5,17.9-5.8,26.2-9.9c8.4-17.6,3.4-39.1,3.4-39.1C370.6,122,367.7,128.1,364.9,132.7z"/>
		</g>
	</g>
</g>
<g>
	<title>Fichier 6</title>
	<g id="Calque_2_3_">
		<g id="OBJECTS_2_">
			<path class="st1" d="M250.5-6.5c0,0-27.5-31.1,11.1-72.5c-17.8,4-33.5,13.9-44.6,28c7.1-22.3,6.6-57.7-39.5-95.8
				c0,0,21.1,36.2-10.6,75c0,0-21.6,20.6-27.2,50c-1-17.1-8.3-41.9-40.4-53.5c0,0,27.9,33,0,91.7c0,0-46.1,89.5,82.5,117.5
				c0,0,86.9-24,86.6-93C268.4,40.8,266.5,15.1,250.5-6.5z"/>
			<path class="st2" d="M222.9,114.7c9.1-9.3,16-21.6,15.9-37.6c-1.2-11.3-5.3-22.1-11.9-31.5c0,0-18.3-20.7,7.4-48.3
				C222.5,0,212,6.6,204.6,15.9c4.7-14.8,4.4-38.4-26.3-63.8c0,0,14.1,24.1-7,49.9c0,0-14.4,13.7-18.1,33.3
				c-0.6-11.3-5.6-27.9-26.9-35.6c0,0,18.5,21.9,0,61.1c0,0-16.5,32.1,8.6,56.6c12.2,6.5,27.6,12.1,47,16.4
				C196.4,129.3,210.2,122.9,222.9,114.7z"/>
			<path class="st3" d="M207.1,123.7c6.5-6.3,10.1-14.9,10.1-23.9c-0.8-7.2-3.4-14-7.5-20c0,0-11.7-13.1,4.7-30.6
				c-7.5,1.7-14.1,5.9-18.8,11.8c3-9.4,2.8-24.2-16.6-40.4c0,0,8.9,15.3-4.4,31.6c-5.8,5.9-9.8,13.2-11.5,21.1
				c-0.4-7.2-3.5-17.7-17-22.6c0,0,11.8,13.9,0,38.7c0,0-10.1,19.7,4.7,35.1c10.1,3.9,20.6,6.9,31.2,9.2
				C190.5,131.1,199,127.7,207.1,123.7z"/>
		</g>
	</g>
</g>
</svg>
